<?xml version="1.0" encoding="UTF-8"?>
<svg version="1.1" xmlns="http://www.w3.org/2000/svg" width="225" height="225">
<path d="M0 0 C74.25 0 148.5 0 225 0 C225 74.25 225 148.5 225 225 C150.75 225 76.5 225 0 225 C0 150.75 0 76.5 0 0 Z " fill="#FDFDFD" transform="translate(0,0)"/>
<path d="M0 0 C2.08922388 2.72906807 3.74750211 5.30265947 5.19921875 8.421875 C5.60462891 9.28425781 6.01003906 10.14664062 6.42773438 11.03515625 C6.84345703 11.93105469 7.25917969 12.82695313 7.6875 13.75 C10.95867208 20.7604143 14.33608281 27.70630077 17.80819702 34.61869812 C21.87918194 42.73275039 25.8462935 50.89685529 29.8125 59.0625 C30.20562378 59.87114502 30.59874756 60.67979004 31.00378418 61.51293945 C36.04547646 71.88409999 41.06331195 82.26600032 46.02539062 92.67553711 C49.59816128 100.16979063 53.20103254 107.64933886 56.8125 115.125 C57.10626526 115.73315552 57.40003052 116.34131104 57.70269775 116.96789551 C59.50042082 120.68936809 61.29869062 124.41057627 63.09710693 128.13171387 C64.59234877 131.22570107 66.0872612 134.31984735 67.58203125 137.4140625 C67.87604324 138.02266617 68.17005524 138.63126984 68.47297668 139.25831604 C70.51220859 143.48004428 72.54934675 147.70277826 74.5859375 151.92578125 C76.30310725 155.4864266 78.02155322 159.04642051 79.74707031 162.60302734 C81.41761218 166.04645652 83.08404413 169.49185034 84.75 172.9375 C85.50240967 174.4829248 85.50240967 174.4829248 86.27001953 176.05957031 C88.48058263 180.64084877 90.57377149 185.09941249 92 190 C84.86173234 187.69012216 77.86954726 185.08669026 70.875 182.375 C69.73554932 181.93478516 68.59609863 181.49457031 67.42211914 181.04101562 C63.94693739 179.69693479 60.47319273 178.34921142 57 177 C55.99469238 176.60973633 54.98938477 176.21947266 53.95361328 175.81738281 C42.76257301 171.46815052 31.59381514 167.06251226 20.4375 162.625 C19.38425537 162.20798828 18.33101074 161.79097656 17.24584961 161.36132812 C12.38576402 159.4215658 7.62538454 157.45105847 3 155 C4.69119142 151.61761716 8.54902 150.74469548 11.875 149.25 C18.06745717 146.41425656 24.08427825 143.42490287 29.99609375 140.03125 C32 139 32 139 34 139 C27.09885653 123.69784418 19.95326652 108.53016727 12.57527161 93.45321655 C11.97044139 92.20551119 11.37435877 90.95353117 10.78666687 89.69766235 C9.27839515 86.49433446 7.69943912 83.46979663 5.78076172 80.49194336 C-2.67249796 66.57465177 -0.91612508 50.4617279 -0.54931641 34.77404785 C-0.46639124 30.84516039 -0.43071323 26.91584476 -0.390625 22.98632812 C-0.30569847 15.32307015 -0.1697949 7.66189857 0 0 Z " fill="#020202" transform="translate(123,20)"/>
<path d="M0 0 C0.33 0 0.66 0 1 0 C1.30658794 8.12113114 1.53479041 16.2396959 1.67355824 24.36525345 C1.74029904 28.14212077 1.83009505 31.91492616 1.98071289 35.68945312 C2.81369692 57.15626019 0.22815922 72.07806372 -10.36758423 91.0479126 C-12.62873052 95.13700657 -14.6084739 99.33887419 -16.59375 103.56640625 C-17.25497529 104.93041549 -17.91894676 106.29309761 -18.5859375 107.65429688 C-18.90143555 108.29874756 -19.21693359 108.94319824 -19.54199219 109.60717773 C-19.85813477 110.25243408 -20.17427734 110.89769043 -20.5 111.5625 C-21.82479531 114.27122172 -23.14782044 116.98079723 -24.46875 119.69140625 C-24.77570801 120.3212442 -25.08266602 120.95108215 -25.39892578 121.6000061 C-28.03139093 127.02266602 -30.5474157 132.49394826 -33 138 C-32.16984375 138.25136719 -31.3396875 138.50273437 -30.484375 138.76171875 C-26.55422424 140.15842031 -22.95570281 141.91350479 -19.25 143.8125 C-18.55132812 144.16634766 -17.85265625 144.52019531 -17.1328125 144.88476562 C-15.73686539 145.5917536 -14.34166422 146.30021666 -12.94726562 147.01025391 C-10.3047483 148.35337893 -7.65282655 149.67737648 -5 151 C-3.66666667 151.66666667 -2.33333333 152.33333333 -1 153 C-3.6734006 155.6734006 -6.77828314 156.644399 -10.2421875 157.984375 C-11.35723663 158.42280228 -11.35723663 158.42280228 -12.49481201 158.87008667 C-14.95293645 159.83508797 -17.41392759 160.79254477 -19.875 161.75 C-21.58399226 162.41932357 -23.29281187 163.08908811 -25.00146484 163.75927734 C-30.33121359 165.84749129 -35.66500691 167.92522604 -41 170 C-41.85424561 170.33221558 -42.70849121 170.66443115 -43.58862305 171.00671387 C-46.09542332 171.9813399 -48.60236628 172.9555978 -51.109375 173.9296875 C-51.91573395 174.24305054 -52.7220929 174.55641357 -53.55288696 174.87927246 C-57.39065722 176.37025315 -61.22925492 177.85901666 -65.06982422 179.34277344 C-66.47629011 179.88723256 -67.88270441 180.43182498 -69.2890625 180.9765625 C-69.9532016 181.23304565 -70.6173407 181.48952881 -71.30160522 181.75378418 C-76.51189808 183.77815044 -81.64527682 185.96162935 -86.75537109 188.22802734 C-87.49609863 188.48277832 -88.23682617 188.7375293 -89 189 C-89.66 188.67 -90.32 188.34 -91 188 C-86.55416202 178.5320117 -82.07891009 169.08880982 -77.36645508 159.75024414 C-69.10172098 143.30229004 -61.25106334 126.6379799 -53.32495117 110.02514648 C-48.90642499 100.77768239 -44.42767565 91.55963134 -39.95129395 82.34008789 C-35.73489356 73.65488482 -31.53236136 64.96367327 -27.375 56.25 C-9.0210579 17.78997443 -9.0210579 17.78997443 0 0 Z " fill="#020202" transform="translate(102,21)"/>
<path d="M0 0 C2.2207641 2.05402387 3.65378006 3.9384916 4.99291992 6.64526367 C5.35306686 7.36578415 5.71321381 8.08630463 6.08427429 8.82865906 C6.46251846 9.60063126 6.84076263 10.37260345 7.23046875 11.16796875 C7.62575272 11.96278152 8.02103668 12.7575943 8.42829895 13.57649231 C9.68703492 16.11072996 10.93735264 18.64901634 12.1875 21.1875 C13.04046368 22.9084768 13.89397295 24.62918329 14.74804688 26.34960938 C16.83837053 30.56329822 18.92115491 34.78063711 21 39 C17.55786932 41.65009463 13.979436 43.76140563 10.125 45.75 C9.22587891 46.24306641 9.22587891 46.24306641 8.30859375 46.74609375 C4.06667929 48.92686105 1.54659865 49.42809829 -3 48 C-5.70514062 46.77961991 -8.28781229 45.38903264 -10.875 43.9375 C-11.56335938 43.56044922 -12.25171875 43.18339844 -12.9609375 42.79492188 C-14.6449213 41.87106965 -16.32307467 40.93660333 -18 40 C-16.04119174 33.62889795 -13.59731536 27.67916685 -10.6875 21.6875 C-10.29377197 20.86660889 -9.90004395 20.04571777 -9.49438477 19.19995117 C-6.39867094 12.7655368 -3.23895503 6.36359401 0 0 Z " fill="#050505" transform="translate(112,110)"/>
</svg>
