<?xml version="1.0" standalone="no"?>
<!DOCTYPE svg PUBLIC "-//W3C//DTD SVG 20010904//EN"
 "http://www.w3.org/TR/2001/REC-SVG-20010904/DTD/svg10.dtd">
<svg version="1.0" xmlns="http://www.w3.org/2000/svg"
 width="460.000000pt" height="460.000000pt" viewBox="0 0 460.000000 460.000000"
 preserveAspectRatio="xMidYMid meet">
<metadata>
Created by potrace 1.16, written by Peter Selinger 2001-2019
</metadata>
<g transform="translate(0.000000,460.000000) scale(0.100000,-0.100000)"
fill="#000000" stroke="none">
<path d="M0 2300 l0 -2300 2300 0 2300 0 0 2300 0 2300 -2300 0 -2300 0 0
-2300z m2431 393 c0 -701 1 -723 9 -723 4 0 19 24 33 53 15 28 37 68 50 87 12
19 31 51 42 71 67 123 117 208 140 238 14 19 25 39 25 44 0 5 20 40 45 78 25
38 45 72 45 76 0 3 18 34 40 69 22 35 40 67 40 71 0 5 22 40 48 80 26 39 61
95 77 124 17 28 41 69 53 91 l24 39 29 -18 c15 -10 60 -37 98 -61 39 -23 73
-47 76 -52 4 -6 -3 -23 -15 -39 -11 -17 -27 -45 -36 -63 -8 -18 -28 -53 -44
-78 -16 -25 -38 -65 -50 -90 -11 -24 -24 -47 -29 -50 -4 -3 -26 -39 -48 -80
-22 -41 -52 -93 -67 -114 -14 -21 -26 -43 -26 -47 0 -5 -20 -41 -45 -81 -25
-40 -45 -76 -45 -81 0 -4 -9 -21 -20 -37 -11 -17 -29 -43 -40 -60 -11 -16 -20
-34 -20 -40 0 -6 -15 -34 -34 -63 -29 -45 -104 -177 -115 -200 -4 -10 97 45
156 85 23 15 45 28 49 28 4 0 40 20 80 45 39 25 75 45 79 45 4 0 38 20 76 45
38 25 72 45 77 45 5 0 26 11 47 25 20 14 67 42 103 62 37 20 74 42 83 49 8 8
31 19 50 26 19 6 36 14 39 17 10 12 70 51 78 51 4 0 14 6 21 13 6 6 15 12 19
13 16 2 61 24 66 32 3 6 28 21 55 35 l49 26 25 -37 c13 -21 36 -61 51 -89 14
-29 30 -54 36 -58 5 -3 10 -14 10 -23 0 -16 -43 -45 -219 -145 -36 -21 -83
-50 -105 -65 -21 -14 -45 -27 -53 -28 -8 -2 -22 -9 -31 -17 -10 -8 -46 -30
-82 -49 -36 -19 -86 -49 -111 -67 -26 -17 -51 -31 -56 -31 -6 0 -36 -17 -69
-38 -32 -21 -90 -55 -129 -77 -38 -21 -72 -41 -75 -45 -3 -3 -21 -12 -40 -20
-19 -8 -37 -17 -40 -20 -3 -3 -22 -16 -42 -29 -21 -12 -38 -26 -38 -30 0 -4
287 -8 637 -10 350 -1 639 -4 642 -7 8 -7 8 -245 0 -249 -3 -3 -306 -5 -673
-5 l-666 -1 -179 178 c-99 98 -184 183 -190 188 -6 6 -24 24 -41 40 -52 53
-57 56 -70 40 -7 -8 -18 -15 -25 -15 -7 0 -21 -12 -31 -26 -10 -15 -27 -34
-38 -43 -10 -9 -30 -28 -45 -43 -33 -34 -27 -28 -186 -185 -132 -131 -133
-132 -181 -134 -27 -1 -330 -1 -674 0 l-625 1 0 124 c0 69 3 127 6 130 3 3
294 6 647 7 l643 3 -28 22 c-15 13 -53 36 -83 51 -30 15 -57 30 -60 33 -10 10
-111 70 -118 70 -4 0 -39 20 -77 45 -39 25 -74 45 -79 45 -4 0 -29 14 -55 31
-25 18 -75 48 -111 67 -36 19 -72 41 -81 48 -8 8 -20 14 -25 14 -5 0 -45 22
-89 50 -44 27 -84 50 -89 50 -5 0 -23 11 -40 24 -17 13 -56 36 -86 51 -90 46
-93 51 -66 94 13 20 40 66 60 103 20 37 41 70 46 73 8 5 30 -6 105 -52 11 -7
54 -31 95 -54 41 -23 77 -45 80 -49 3 -4 23 -15 45 -24 21 -9 42 -20 45 -25 3
-5 37 -25 75 -46 39 -20 86 -47 105 -60 36 -23 142 -85 208 -120 20 -11 65
-37 98 -58 34 -20 66 -37 71 -37 6 0 22 -9 36 -20 25 -20 152 -90 163 -90 3 0
-4 13 -15 29 -12 16 -21 31 -21 34 0 3 -16 34 -36 69 -21 34 -57 99 -82 143
-24 44 -50 87 -57 95 -7 8 -16 25 -20 38 -3 12 -26 53 -51 90 -24 37 -44 72
-44 78 0 6 -13 29 -28 50 -25 35 -54 85 -126 219 -12 22 -38 65 -58 96 -19 30
-39 66 -43 78 -4 13 -18 39 -31 58 -13 20 -24 40 -24 44 0 5 30 25 68 44 37
20 86 47 108 61 l41 24 40 -63 c22 -34 54 -87 70 -117 16 -30 42 -73 56 -94
15 -21 27 -43 27 -48 0 -5 17 -37 38 -71 20 -34 45 -75 54 -92 31 -53 72 -125
104 -178 16 -29 35 -61 41 -72 7 -11 29 -49 50 -85 20 -36 47 -82 58 -102 59
-108 108 -188 114 -188 9 0 9 -18 10 685 l1 595 130 0 130 0 1 -567z"/>
</g>
</svg>
