<?xml version="1.0" encoding="UTF-8"?>
<svg version="1.1" xmlns="http://www.w3.org/2000/svg" width="192" height="192">
<path d="M0 0 C1.47763705 -0.0114458 2.95523521 -0.03177859 4.43261719 -0.06152344 C14.44183733 -0.2625163 22.75356705 0.69242755 32.23779297 4.29516602 C33.14207031 4.61670654 34.04634766 4.93824707 34.97802734 5.26953125 C46.76064752 9.52202653 59.28038246 16.78145753 67.11279297 26.73266602 C68.981918 29.41602182 68.981918 29.41602182 71.55029297 30.17016602 C72.10716797 30.21141602 72.66404297 30.25266602 73.23779297 30.29516602 C73.33447266 30.84688477 73.43115234 31.39860352 73.53076172 31.96704102 C74.41679775 34.88459612 75.85898721 37.01001819 77.55029297 39.54516602 C80.46673195 44.01583894 82.96213105 48.47076274 85.23779297 53.29516602 C85.89779297 53.29516602 86.55779297 53.29516602 87.23779297 53.29516602 C87.1971875 54.16463867 87.15658203 55.03411133 87.11474609 55.92993164 C87.24342036 59.44907059 87.98697946 61.85316757 89.20654297 65.13891602 C91.52648312 72.36106187 91.8487324 79.16558706 91.75927734 86.66088867 C91.73780428 88.79404264 91.75921036 90.92383117 91.78466797 93.05688477 C91.79842033 100.99474887 90.88551085 107.92794016 88.09521484 115.44555664 C87.16690565 118.53075735 87.08817674 121.09147893 87.23779297 124.29516602 C86.57779297 124.29516602 85.91779297 124.29516602 85.23779297 124.29516602 C84.49529297 125.90391602 84.49529297 125.90391602 83.73779297 127.54516602 C81.25433575 132.57506669 78.06359735 137.07444845 74.84716797 141.65844727 C72.97729818 144.20710199 72.97729818 144.20710199 73.23779297 147.29516602 C72.49529297 147.52204102 71.75279297 147.74891602 70.98779297 147.98266602 C68.11672068 149.10374619 68.11672068 149.10374619 66.44873047 151.56860352 C63.98211716 154.6104694 61.22272989 156.89792795 58.11279297 159.23266602 C57.53368164 159.66869141 56.95457031 160.1047168 56.35791016 160.55395508 C40.6923331 172.20582272 24.93987165 177.48577711 5.47558594 177.59033203 C3.99794889 177.60177783 2.52035072 177.62211063 1.04296875 177.65185547 C-8.96625139 177.85284833 -17.27798111 176.89790448 -26.76220703 173.29516602 C-28.11862305 172.81285522 -28.11862305 172.81285522 -29.50244141 172.32080078 C-41.28506158 168.06830551 -53.80479653 160.8088745 -61.63720703 150.85766602 C-63.50633206 148.17431021 -63.50633206 148.17431021 -66.07470703 147.42016602 C-66.63158203 147.37891602 -67.18845703 147.33766602 -67.76220703 147.29516602 C-67.85888672 146.74344727 -67.95556641 146.19172852 -68.05517578 145.62329102 C-68.94121181 142.70573591 -70.38340127 140.58031384 -72.07470703 138.04516602 C-74.99114602 133.57449309 -77.48654511 129.11956929 -79.76220703 124.29516602 C-80.42220703 124.29516602 -81.08220703 124.29516602 -81.76220703 124.29516602 C-81.72160156 123.42569336 -81.68099609 122.5562207 -81.63916016 121.66040039 C-81.76783442 118.14126144 -82.51139352 115.73716446 -83.73095703 112.45141602 C-86.05089719 105.22927016 -86.37314646 98.42474498 -86.28369141 90.92944336 C-86.26221834 88.79628939 -86.28362443 86.66650087 -86.30908203 84.53344727 C-86.32283439 76.59558316 -85.40992491 69.66239187 -82.61962891 62.14477539 C-81.69131971 59.05957468 -81.61259081 56.4988531 -81.76220703 53.29516602 C-81.10220703 53.29516602 -80.44220703 53.29516602 -79.76220703 53.29516602 C-79.26720703 52.22266602 -78.77220703 51.15016602 -78.26220703 50.04516602 C-75.77874981 45.01526534 -72.58801142 40.51588358 -69.37158203 35.93188477 C-67.50171224 33.38323004 -67.50171224 33.38323004 -67.76220703 30.29516602 C-67.01970703 30.06829102 -66.27720703 29.84141602 -65.51220703 29.60766602 C-62.64113474 28.48658584 -62.64113474 28.48658584 -60.97314453 26.02172852 C-58.50653122 22.97986263 -55.74714395 20.69240408 -52.63720703 18.35766602 C-51.76854004 17.70362793 -51.76854004 17.70362793 -50.88232422 17.03637695 C-35.21674717 5.38450932 -19.46428571 0.10455492 0 0 Z " fill="#182128" transform="translate(92.76220703125,6.704833984375)"/>
<path d="M0 0 C2.01237966 0.96622596 3.98963584 2.00720235 5.9375 3.09765625 C7.08089844 3.73509766 8.22429687 4.37253906 9.40234375 5.02929688 C9.99515137 5.36437256 10.58795898 5.69944824 11.19873047 6.04467773 C13.54381433 7.36978679 15.89850691 8.67738057 18.25317383 9.98536682 C19.42362832 10.64689649 20.58630425 11.32236996 21.7409668 12.01109314 C24.71894218 13.78326686 27.43134049 15.16200862 30.703125 16.39086914 C34.84395212 18.16913321 37.11684517 19.50483909 40 23 C42.27821343 30.02748189 42.12048056 37.47601169 42.02441406 44.78881836 C42.00006096 48.30370146 42.14583465 51.78412592 42.3046875 55.29492188 C42.56906904 71.09779157 42.56906904 71.09779157 38.08007812 76.16888428 C32.06534851 80.9179728 25.20378426 83.59873858 18 86 C16.28125 85.22265625 16.28125 85.22265625 14.5 84.0625 C11.91505621 82.39022277 11.21220503 82 8 82 C8 82.66 8 83.32 8 84 C8.721875 84.2475 9.44375 84.495 10.1875 84.75 C13.24713266 86.10983674 15.4673738 87.82917754 18 90 C15.62828823 91.42302706 13.25631307 92.84558192 10.8828125 94.265625 C8.97621194 95.4126855 7.07503525 96.56881489 5.1796875 97.734375 C4.29539063 98.27578125 3.41109375 98.8171875 2.5 99.375 C1.6853125 99.87773437 0.870625 100.38046875 0.03125 100.8984375 C-2 102 -2 102 -4 102 C-4.495 98.04 -4.495 98.04 -5 94 C-5.99 94.66 -6.98 95.32 -8 96 C-8 88.08 -8 80.16 -8 72 C-10.31 73.32 -12.62 74.64 -15 76 C-14.34 77.32 -13.68 78.64 -13 80 C-16.10154778 81.81700979 -19.20666987 83.62782136 -22.3125 85.4375 C-23.63411133 86.2119043 -23.63411133 86.2119043 -24.98242188 87.00195312 C-25.82998047 87.49501953 -26.67753906 87.98808594 -27.55078125 88.49609375 C-28.33106689 88.95169678 -29.11135254 89.4072998 -29.9152832 89.87670898 C-32 91 -32 91 -35 92 C-35.495 80.12 -35.495 80.12 -36 68 C-36.99 67.67 -37.98 67.34 -39 67 C-29.78102808 61.05289703 -29.78102808 61.05289703 -24.8125 59.6875 C-19.37888741 58.10432511 -14.80576277 55.03840703 -10.05200195 52.04760742 C-5.18374594 49 -5.18374594 49 -3 49 C-3 40.42 -3 31.84 -3 23 C-3.66 23 -4.32 23 -5 23 C-5.33 30.59 -5.66 38.18 -6 46 C-12 44 -12 44 -14.5 42.3125 C-17.8072019 40.576219 -19.44365486 41.03682319 -23 42 C-24.68375165 42.62225605 -26.35767228 43.27544365 -28 44 C-28.04898438 43.28972656 -28.09796875 42.57945313 -28.1484375 41.84765625 C-28.22320312 40.92855469 -28.29796875 40.00945312 -28.375 39.0625 C-28.44460937 38.14597656 -28.51421875 37.22945312 -28.5859375 36.28515625 C-28.72257812 35.53105469 -28.85921875 34.77695313 -29 34 C-29.66 33.67 -30.32 33.34 -31 33 C-31 40.92 -31 48.84 -31 57 C-34.25885 55.69646 -37.00042816 54.5363417 -39.98828125 52.8359375 C-40.69404297 52.43632813 -41.39980469 52.03671875 -42.12695312 51.625 C-43.20879883 51.00625 -43.20879883 51.00625 -44.3125 50.375 C-45.05306641 49.95476562 -45.79363281 49.53453125 -46.55664062 49.1015625 C-48.37269011 48.07051505 -50.18656533 47.03563954 -52 46 C-50.53823655 42.24001957 -48.71674575 40.9072419 -45.25 38.9375 C-44.36054687 38.42832031 -43.47109375 37.91914062 -42.5546875 37.39453125 C-39.73216042 35.85379399 -36.90592057 34.37648869 -34 33 C-34 32.34 -34 31.68 -34 31 C-40.93 27.04 -40.93 27.04 -48 23 C-48 22.01 -48 21.02 -48 20 C-45.04550087 18.3264663 -42.0857982 16.66236015 -39.125 15 C-38.28324219 14.52304687 -37.44148438 14.04609375 -36.57421875 13.5546875 C-35.76855469 13.10351562 -34.96289062 12.65234375 -34.1328125 12.1875 C-33.38918457 11.76855469 -32.64555664 11.34960938 -31.87939453 10.91796875 C-30 10 -30 10 -28 10 C-28 13.3 -28 16.6 -28 20 C-27.278125 20.268125 -26.55625 20.53625 -25.8125 20.8125 C-23 22 -23 22 -20.5625 23.6875 C-17.20891777 25.40518846 -15.56894224 25.06308918 -12 24 C-10.68 23.01 -9.36 22.02 -8 21 C-13.28 18.03 -18.56 15.06 -24 12 C-24 11.34 -24 10.68 -24 10 C-21.11878897 7.8320144 -17.92913972 6.11974185 -14.8125 4.3125 C-13.94818359 3.78849609 -13.08386719 3.26449219 -12.19335938 2.72460938 C-11.35224609 2.23412109 -10.51113281 1.74363281 -9.64453125 1.23828125 C-8.87471924 0.78493408 -8.10490723 0.33158691 -7.31176758 -0.13549805 C-4.35106156 -1.24267515 -2.99574105 -0.96750165 0 0 Z " fill="#0AB1A8" transform="translate(104,47)"/>
<path d="M0 0 C-0.33 0.33 -0.66 0.66 -1 1 C-1.15714654 2.63256758 -1.25085414 4.27135338 -1.31640625 5.91015625 C-1.37924805 7.39418945 -1.37924805 7.39418945 -1.44335938 8.90820312 C-1.48267578 9.94912109 -1.52199219 10.99003906 -1.5625 12.0625 C-1.62727539 13.62967773 -1.62727539 13.62967773 -1.69335938 15.22851562 C-1.79981225 17.81886884 -1.9018276 20.40932186 -2 23 C-2.66 23 -3.32 23 -4 23 C-4.33 30.59 -4.66 38.18 -5 46 C-11 44 -11 44 -13.5 42.3125 C-16.8072019 40.576219 -18.44365486 41.03682319 -22 42 C-23.68375165 42.62225605 -25.35767228 43.27544365 -27 44 C-27.04898438 43.28972656 -27.09796875 42.57945313 -27.1484375 41.84765625 C-27.22320312 40.92855469 -27.29796875 40.00945312 -27.375 39.0625 C-27.44460937 38.14597656 -27.51421875 37.22945312 -27.5859375 36.28515625 C-27.72257812 35.53105469 -27.85921875 34.77695313 -28 34 C-28.66 33.67 -29.32 33.34 -30 33 C-30 40.92 -30 48.84 -30 57 C-33.25885 55.69646 -36.00042816 54.5363417 -38.98828125 52.8359375 C-39.69404297 52.43632813 -40.39980469 52.03671875 -41.12695312 51.625 C-42.20879883 51.00625 -42.20879883 51.00625 -43.3125 50.375 C-44.05306641 49.95476562 -44.79363281 49.53453125 -45.55664062 49.1015625 C-47.37269011 48.07051505 -49.18656533 47.03563954 -51 46 C-49.53823655 42.24001957 -47.71674575 40.9072419 -44.25 38.9375 C-43.36054687 38.42832031 -42.47109375 37.91914062 -41.5546875 37.39453125 C-38.73216042 35.85379399 -35.90592057 34.37648869 -33 33 C-33 32.34 -33 31.68 -33 31 C-39.93 27.04 -39.93 27.04 -47 23 C-47 22.01 -47 21.02 -47 20 C-44.04550087 18.3264663 -41.0857982 16.66236015 -38.125 15 C-37.28324219 14.52304687 -36.44148438 14.04609375 -35.57421875 13.5546875 C-34.76855469 13.10351562 -33.96289062 12.65234375 -33.1328125 12.1875 C-32.38918457 11.76855469 -31.64555664 11.34960938 -30.87939453 10.91796875 C-29 10 -29 10 -27 10 C-27 13.3 -27 16.6 -27 20 C-26.278125 20.268125 -25.55625 20.53625 -24.8125 20.8125 C-22 22 -22 22 -19.5625 23.6875 C-16.20891777 25.40518846 -14.56894224 25.06308918 -11 24 C-9.68 23.01 -8.36 22.02 -7 21 C-12.28 18.03 -17.56 15.06 -23 12 C-23 11.34 -23 10.68 -23 10 C-20.09526305 7.83494984 -16.88557965 6.12148826 -13.75 4.3125 C-12.87730469 3.78849609 -12.00460938 3.26449219 -11.10546875 2.72460938 C-10.26113281 2.23412109 -9.41679688 1.74363281 -8.546875 1.23828125 C-7.38430176 0.5582605 -7.38430176 0.5582605 -6.19824219 -0.13549805 C-3.64854705 -1.13821578 -2.52631372 -0.94215542 0 0 Z " fill="#148975" transform="translate(103,47)"/>
<path d="M0 0 C0 8.25 0 16.5 0 25 C1.98 25.66 3.96 26.32 6 27 C8.0340906 28.28072371 10.04402816 29.60287726 12 31 C11.67 32.32 11.34 33.64 11 35 C11.721875 35.2475 12.44375 35.495 13.1875 35.75 C16.24713266 37.10983674 18.4673738 38.82917754 21 41 C18.62828823 42.42302706 16.25631307 43.84558192 13.8828125 45.265625 C11.97621194 46.4126855 10.07503525 47.56881489 8.1796875 48.734375 C7.29539063 49.27578125 6.41109375 49.8171875 5.5 50.375 C4.6853125 50.87773437 3.870625 51.38046875 3.03125 51.8984375 C1 53 1 53 -1 53 C-1.495 49.04 -1.495 49.04 -2 45 C-2.99 45.66 -3.98 46.32 -5 47 C-5 39.08 -5 31.16 -5 23 C-7.31 24.32 -9.62 25.64 -12 27 C-11.34 28.32 -10.68 29.64 -10 31 C-13.10154778 32.81700979 -16.20666987 34.62782136 -19.3125 36.4375 C-20.19357422 36.95376953 -21.07464844 37.47003906 -21.98242188 38.00195312 C-22.82998047 38.49501953 -23.67753906 38.98808594 -24.55078125 39.49609375 C-25.33106689 39.95169678 -26.11135254 40.4072998 -26.9152832 40.87670898 C-29 42 -29 42 -32 43 C-32.33 35.08 -32.66 27.16 -33 19 C-33.99 18.67 -34.98 18.34 -36 18 C-26.78102808 12.05289703 -26.78102808 12.05289703 -21.8125 10.6875 C-16.37888741 9.10432511 -11.80576277 6.03840703 -7.05200195 3.04760742 C-2.18374594 0 -2.18374594 0 0 0 Z " fill="#132229" transform="translate(101,96)"/>
<path d="M0 0 C4.51323633 1.35498873 8.34975125 3.17035832 12.4296875 5.51953125 C13.32072678 6.03020393 13.32072678 6.03020393 14.22976685 6.55119324 C15.47998568 7.26899578 16.72873636 7.98936095 17.97607422 8.7121582 C20.47477885 10.16004478 22.9809074 11.59487261 25.48651123 13.03077698 C27.27109859 14.06261042 29.04208876 15.11539444 30.81347656 16.16967773 C33.85894258 17.9918457 33.85894258 17.9918457 36.64746094 19.17602539 C38.95737122 20.26061884 40.39100461 21.01450088 42 23 C42.95781222 27.31324719 42.75576597 31.42267053 42.5 35.8125 C42.46390625 36.98232422 42.4278125 38.15214844 42.390625 39.35742188 C42.29644716 42.24161831 42.16507439 45.11913451 42 48 C36.69088997 45.4126448 31.48401634 42.8461357 26.5625 39.5625 C22.0577802 36.63125979 17.45912542 34.01957864 12.72265625 31.484375 C1.20504732 25.20504732 1.20504732 25.20504732 -1 23 C-1.0991657 21.37742456 -1.13079777 19.75060169 -1.1328125 18.125 C-1.13410156 17.14015625 -1.13539062 16.1553125 -1.13671875 15.140625 C-1.13285156 14.10421875 -1.12898438 13.0678125 -1.125 12 C-1.13080078 10.44539063 -1.13080078 10.44539063 -1.13671875 8.859375 C-1.13542969 7.87453125 -1.13414063 6.8896875 -1.1328125 5.875 C-1.13168457 4.96492188 -1.13055664 4.05484375 -1.12939453 3.1171875 C-1 1 -1 1 0 0 Z " fill="#08CEBB" transform="translate(102,47)"/>
<path d="M0 0 C0.99 0.33 1.98 0.66 3 1 C3 9.58 3 18.16 3 27 C0.463125 28.44375 -2.07375 29.8875 -4.6875 31.375 C-5.47729248 31.82665527 -6.26708496 32.27831055 -7.08081055 32.74365234 C-10.01028751 34.40081253 -12.81930579 35.92886807 -15.95703125 37.1640625 C-18.18039232 37.81207749 -18.18039232 37.81207749 -19 40 C-20.32 40 -21.64 40 -23 40 C-26.04970221 41.23113055 -28.84091303 42.92197323 -31.6875 44.5625 C-32.47189453 44.98080078 -33.25628906 45.39910156 -34.06445312 45.83007812 C-36.26099269 47.09256629 -38.15301611 48.26380157 -40 50 C-41.15878716 53.68677273 -41.15878716 53.68677273 -41 57 C-45.73474097 55.3003494 -49.96167111 52.86340973 -54.3125 50.375 C-55.05306641 49.95476562 -55.79363281 49.53453125 -56.55664062 49.1015625 C-58.37269011 48.07051505 -60.18656533 47.03563954 -62 46 C-60.65109787 42.74228214 -59.54424225 41.41254791 -56.375 39.88671875 C-55.66859375 39.52513672 -54.9621875 39.16355469 -54.234375 38.79101562 C-52.74941455 38.0576217 -51.25979939 37.33357541 -49.765625 36.61914062 C-45.72478245 34.61882421 -45.72478245 34.61882421 -43.0546875 31.14697266 C-42.40308533 29.01917942 -42.40308533 29.01917942 -42 26 C-35.90044077 28.24065441 -30.57436693 31.69213391 -25 35 C-25 27.08 -25 19.16 -25 11 C-24.01 11.33 -23.02 11.66 -22 12 C-22 15.3 -22 18.6 -22 22 C-20.453125 20.9790625 -20.453125 20.9790625 -18.875 19.9375 C-16.29814003 18.49445841 -15.14569213 18.00316722 -12.125 17.9375 C-7.8467984 19.39208855 -3.95007258 21.80551523 0 24 C0 16.08 0 8.16 0 0 Z " fill="#155652" transform="translate(98,69)"/>
<path d="M0 0 C1.16413503 8.18664997 2.40772725 16.96280854 0 25 C-4.64153363 30.73358645 -12.07368691 33.84592864 -19 36 C-19.66 36 -20.32 36 -21 36 C-23.06202208 15.24800497 -23.06202208 15.24800497 -19.82080078 10.14257812 C-16.42185108 7.03156282 -12.24271806 5.60430797 -8 4 C-1.91366906 0 -1.91366906 0 0 0 Z " fill="#0CC0C1" transform="translate(144,96)"/>
<path d="M0 0 C0.99 0.33 1.98 0.66 3 1 C3 9.58 3 18.16 3 27 C0.463125 28.44375 -2.07375 29.8875 -4.6875 31.375 C-5.47729248 31.82665527 -6.26708496 32.27831055 -7.08081055 32.74365234 C-10.01028751 34.40081253 -12.81930579 35.92886807 -15.95703125 37.1640625 C-18.18039232 37.81207749 -18.18039232 37.81207749 -19 40 C-19.66 39.67 -20.32 39.34 -21 39 C-21 38.34 -21 37.68 -21 37 C-22.32 36.67 -23.64 36.34 -25 36 C-25 27.75 -25 19.5 -25 11 C-24.01 11.33 -23.02 11.66 -22 12 C-22 15.3 -22 18.6 -22 22 C-20.453125 20.9790625 -20.453125 20.9790625 -18.875 19.9375 C-16.29814003 18.49445841 -15.14569213 18.00316722 -12.125 17.9375 C-7.8467984 19.39208855 -3.95007258 21.80551523 0 24 C0 16.08 0 8.16 0 0 Z " fill="#122027" transform="translate(98,69)"/>
<path d="M0 0 C-0.33 0.33 -0.66 0.66 -1 1 C-1.15714654 2.63256758 -1.25085414 4.27135338 -1.31640625 5.91015625 C-1.35830078 6.89951172 -1.40019531 7.88886719 -1.44335938 8.90820312 C-1.48267578 9.94912109 -1.52199219 10.99003906 -1.5625 12.0625 C-1.60568359 13.10728516 -1.64886719 14.15207031 -1.69335938 15.22851562 C-1.79981225 17.81886884 -1.9018276 20.40932186 -2 23 C-2.66 23 -3.32 23 -4 23 C-4.33 30.59 -4.66 38.18 -5 46 C-8.8127519 44.7290827 -11.90625009 43.66918099 -15.375 41.875 C-16.06335938 41.52179688 -16.75171875 41.16859375 -17.4609375 40.8046875 C-17.96882813 40.53914063 -18.47671875 40.27359375 -19 40 C-10.25 33 -10.25 33 -6 33 C-6 32.34 -6 31.68 -6 31 C-6.9075 30.731875 -7.815 30.46375 -8.75 30.1875 C-11.71471963 29.10423706 -13.6169754 28.01640543 -16 26 C-13.03 24.68 -10.06 23.36 -7 22 C-11.19826884 18.66787886 -15.84318622 16.21999809 -20.515625 13.62109375 C-21.33546875 13.08613281 -22.1553125 12.55117188 -23 12 C-23 11.34 -23 10.68 -23 10 C-20.09526305 7.83494984 -16.88557965 6.12148826 -13.75 4.3125 C-12.87730469 3.78849609 -12.00460938 3.26449219 -11.10546875 2.72460938 C-10.26113281 2.23412109 -9.41679688 1.74363281 -8.546875 1.23828125 C-7.77182617 0.78493408 -6.99677734 0.33158691 -6.19824219 -0.13549805 C-3.64854705 -1.13821578 -2.52631372 -0.94215542 0 0 Z " fill="#0EB098" transform="translate(103,47)"/>
<path d="M0 0 C0.33 0 0.66 0 1 0 C1 16.17 1 32.34 1 49 C4.96 46.69 8.92 44.38 13 42 C15.65255964 40.63881808 18.31298442 39.29183441 21 38 C21.06058594 39.30195312 21.12117188 40.60390625 21.18359375 41.9453125 C21.26804562 43.67188399 21.35269126 45.398446 21.4375 47.125 C21.47681641 47.9809375 21.51613281 48.836875 21.55664062 49.71875 C21.78156402 54.21721792 22.13540883 58.56806207 23 63 C17.86208102 61.54000128 13.74180653 59.23053884 9.25 56.4375 C4.70090796 53.58394267 4.70090796 53.58394267 0 51 C0 34.17 0 17.34 0 0 Z " fill="#109A97" transform="translate(101,70)"/>
<path d="M0 0 C3.12912467 1.25164987 5.71373125 2.30141437 8.55078125 3.9453125 C9.16630859 4.29980469 9.78183594 4.65429688 10.41601562 5.01953125 C11.35477539 5.56673828 11.35477539 5.56673828 12.3125 6.125 C12.95767578 6.49753906 13.60285156 6.87007813 14.26757812 7.25390625 C15.84675945 8.16632213 17.42361864 9.08275509 19 10 C19 11.32 19 12.64 19 14 C16.98828125 15.59765625 16.98828125 15.59765625 14.3125 17.0625 C13.00732422 17.79146484 13.00732422 17.79146484 11.67578125 18.53515625 C10.79277344 19.01855469 9.90976562 19.50195312 9 20 C7.72189453 20.80244141 7.72189453 20.80244141 6.41796875 21.62109375 C4 23 4 23 0 24 C0 16.08 0 8.16 0 0 Z " fill="#166559" transform="translate(45,70)"/>
<path d="M0 0 C0 7.92 0 15.84 0 24 C-3.25885 22.69646 -6.00042816 21.5363417 -8.98828125 19.8359375 C-10.04692383 19.23652344 -10.04692383 19.23652344 -11.12695312 18.625 C-11.84818359 18.2125 -12.56941406 17.8 -13.3125 17.375 C-14.05306641 16.95476562 -14.79363281 16.53453125 -15.55664062 16.1015625 C-17.37269011 15.07051505 -19.18656533 14.03563954 -21 13 C-21 12.34 -21 11.68 -21 11 C-19.28759766 9.76318359 -19.28759766 9.76318359 -16.9140625 8.3984375 C-16.06585938 7.90859375 -15.21765625 7.41875 -14.34375 6.9140625 C-12.99796875 6.15222656 -12.99796875 6.15222656 -11.625 5.375 C-10.73554687 4.859375 -9.84609375 4.34375 -8.9296875 3.8125 C-2.27294147 0 -2.27294147 0 0 0 Z " fill="#158780" transform="translate(101,96)"/>
<path d="M0 0 C0 7.59 0 15.18 0 23 C-5.28271771 21.2390941 -9.20517354 19.33266605 -13.875 16.5 C-14.56335938 16.09652344 -15.25171875 15.69304687 -15.9609375 15.27734375 C-17.67818898 14.24494852 -19.34458175 13.12888572 -21 12 C-21 11.34 -21 10.68 -21 10 C-20.3709375 9.69707031 -19.741875 9.39414063 -19.09375 9.08203125 C-14.07699336 6.62654042 -9.31568517 4.05552752 -4.69140625 0.91796875 C-3 0 -3 0 0 0 Z " fill="#08CBBE" transform="translate(123,84)"/>
<path d="M0 0 C4.32215839 1.72886336 8.19071554 3.72791012 12.1875 6.0625 C16.5440751 8.62227456 16.5440751 8.62227456 21 11 C21 11.66 21 12.32 21 13 C19.12890625 14.33203125 19.12890625 14.33203125 16.5625 15.8125 C15.65628906 16.33714844 14.75007813 16.86179687 13.81640625 17.40234375 C12.88699219 17.92957031 11.95757812 18.45679687 11 19 C10.14277344 19.49628906 9.28554687 19.99257812 8.40234375 20.50390625 C2.2767094 24 2.2767094 24 0 24 C0 16.08 0 8.16 0 0 Z " fill="#0BCDB2" transform="translate(76,67)"/>
<path d="M0 0 C6.75 2.25 6.75 2.25 9.8671875 4.1640625 C10.52460937 4.56367188 11.18203125 4.96328125 11.859375 5.375 C12.52453125 5.7875 13.1896875 6.2 13.875 6.625 C14.90753906 7.25535156 14.90753906 7.25535156 15.9609375 7.8984375 C17.64391658 8.92692472 19.32242532 9.962721 21 11 C17.50467492 14.99989956 13.40939028 17.24111944 8.8125 19.75 C8.07580078 20.16121094 7.33910156 20.57242188 6.58007812 20.99609375 C1.15608129 24 1.15608129 24 0 24 C0 16.08 0 8.16 0 0 Z " fill="#129A99" transform="translate(101,125)"/>
<path d="M0 0 C0 7.59 0 15.18 0 23 C-6.75 20.75 -6.75 20.75 -9.6484375 19.0546875 C-10.26074219 18.70019531 -10.87304688 18.34570312 -11.50390625 17.98046875 C-12.12136719 17.61566406 -12.73882812 17.25085938 -13.375 16.875 C-14.01566406 16.50246094 -14.65632813 16.12992188 -15.31640625 15.74609375 C-16.88048477 14.83565998 -18.44065534 13.91851809 -20 13 C-18.53823655 9.24001957 -16.71674575 7.9072419 -13.25 5.9375 C-12.35796875 5.42832031 -11.4659375 4.91914062 -10.546875 4.39453125 C-2.5210084 0 -2.5210084 0 0 0 Z " fill="#0CCCAA" transform="translate(72,80)"/>
<path d="M0 0 C0 7.26 0 14.52 0 22 C-6.75 19.75 -6.75 19.75 -9.6484375 18.0546875 C-10.26074219 17.70019531 -10.87304688 17.34570312 -11.50390625 16.98046875 C-12.12136719 16.61566406 -12.73882812 16.25085938 -13.375 15.875 C-14.01566406 15.50246094 -14.65632813 15.12992188 -15.31640625 14.74609375 C-16.88048477 13.83565998 -18.44065534 12.91851809 -20 12 C-18.52362249 7.51019443 -15.03549817 5.90037577 -11.125 3.75 C-10.49980469 3.38648437 -9.87460937 3.02296875 -9.23046875 2.6484375 C-5.80896725 0.72429501 -4.01157054 0 0 0 Z " fill="#148271" transform="translate(56,103)"/>
<path d="M0 0 C6.91379054 3.37832947 13.56073229 6.78970958 20 11 C18.81462878 14.55611365 18.17706488 14.75507707 15 16.48046875 C14.195625 16.92197266 13.39125 17.36347656 12.5625 17.81835938 C11.2940625 18.49608398 11.2940625 18.49608398 10 19.1875 C9.154375 19.65091797 8.30875 20.11433594 7.4375 20.59179688 C1.1732327 24 1.1732327 24 0 24 C0 16.08 0 8.16 0 0 Z " fill="#0CC4AF" transform="translate(71,114)"/>
<path d="M0 0 C4.78456576 1.59485525 7.640774 2.85903869 11.6875 5.5625 C14.51813309 7.4456736 16.76984475 8.92328158 20 10 C18.8442468 13.46725961 18.28847149 13.71790649 15.25390625 15.48046875 C14.49916016 15.92197266 13.74441406 16.36347656 12.96679688 16.81835938 C12.17337891 17.27017578 11.37996094 17.72199219 10.5625 18.1875 C9.77294922 18.65091797 8.98339844 19.11433594 8.16992188 19.59179688 C2.28211294 23 2.28211294 23 0 23 C0 15.41 0 7.82 0 0 Z " fill="#09D1D1" transform="translate(123,109)"/>
<path d="M0 0 C0.66 0 1.32 0 2 0 C2 7.92 2 15.84 2 24 C-9.55172414 18.22413793 -9.55172414 18.22413793 -13.625 15.8125 C-14.46289062 15.32394531 -15.30078125 14.83539063 -16.1640625 14.33203125 C-16.76992187 13.89246094 -17.37578125 13.45289062 -18 13 C-18 12.34 -18 11.68 -18 11 C-15.59004706 9.35779345 -13.19685209 7.84973401 -10.6875 6.375 C-9.99720703 5.95476562 -9.30691406 5.53453125 -8.59570312 5.1015625 C-3.38447392 2 -3.38447392 2 0 2 C0 1.34 0 0.68 0 0 Z " fill="#06D3CD" transform="translate(142,71)"/>
<path d="M0 0 C0.99 0.33 1.98 0.66 3 1 C3 4.3 3 7.6 3 11 C4.03125 10.319375 5.0625 9.63875 6.125 8.9375 C8.83975101 7.39713826 9.84169938 6.99676938 13.0625 7.0625 C16.2466037 8.07870331 19.07088822 9.3959626 22 11 C18.22563774 13.51624151 14.33929489 15.8130651 10.4375 18.125 C9.26670898 18.82689453 9.26670898 18.82689453 8.07226562 19.54296875 C7.32525391 19.98511719 6.57824219 20.42726563 5.80859375 20.8828125 C5.12595459 21.28902832 4.44331543 21.69524414 3.73999023 22.11376953 C2 23 2 23 0 23 C0 15.41 0 7.82 0 0 Z " fill="#154143" transform="translate(73,80)"/>
<path d="M0 0 C0 7.92 0 15.84 0 24 C-12.1875 18.10714286 -12.1875 18.10714286 -17 14 C-13.37 12.02 -9.74 10.04 -6 8 C-6 7.34 -6 6.68 -6 6 C-6.66 5.34 -7.32 4.68 -8 4 C-2.25 0 -2.25 0 0 0 Z " fill="#166766" transform="translate(96,119)"/>
<path d="M0 0 C0 8.25 0 16.5 0 25 C-3.8127519 23.7290827 -6.90625009 22.66918099 -10.375 20.875 C-11.06335938 20.52179688 -11.75171875 20.16859375 -12.4609375 19.8046875 C-12.96882813 19.53914063 -13.47671875 19.27359375 -14 19 C-5.25 12 -5.25 12 -1 12 C-1 11.34 -1 10.68 -1 10 C-1.9075 9.731875 -2.815 9.46375 -3.75 9.1875 C-6.74566479 8.09293017 -8.54123555 6.95097614 -11 5 C-9.35538655 4.16426177 -7.70927487 3.33147118 -6.0625 2.5 C-5.14597656 2.0359375 -4.22945312 1.571875 -3.28515625 1.09375 C-1 0 -1 0 0 0 Z " fill="#148C82" transform="translate(98,68)"/>
<path d="M0 0 C4.27019392 1.70807757 6.73522847 2.92178685 10 6 C10 6.99 10 7.98 10 9 C3.25 13 3.25 13 1 13 C1.33 16.63 1.66 20.26 2 24 C1.34 24 0.68 24 0 24 C0 16.08 0 8.16 0 0 Z " fill="#0AC5A7" transform="translate(76,67)"/>
<path d="M0 0 C0 8.25 0 16.5 0 25 C-0.66 24.67 -1.32 24.34 -2 24 C-1.67 19.38 -1.34 14.76 -1 10 C-2.98 9.34 -4.96 8.68 -7 8 C-9.375 6.375 -9.375 6.375 -11 5 C-9.35538655 4.16426177 -7.70927487 3.33147118 -6.0625 2.5 C-4.68771484 1.80390625 -4.68771484 1.80390625 -3.28515625 1.09375 C-1 0 -1 0 0 0 Z " fill="#19746D" transform="translate(98,68)"/>
<path d="M0 0 C4.50046315 0.25002573 7.41788227 2.41754304 11 5 C10.67 5.99 10.34 6.98 10 8 C6.1670768 6.53447054 2.70751245 4.85375622 -1 3 C-1 10.92 -1 18.84 -1 27 C-1.33 27 -1.66 27 -2 27 C-2.05784708 22.87505849 -2.09354407 18.75022056 -2.125 14.625 C-2.14175781 13.449375 -2.15851563 12.27375 -2.17578125 11.0625 C-2.18222656 9.94101563 -2.18867187 8.81953125 -2.1953125 7.6640625 C-2.20578613 6.62717285 -2.21625977 5.5902832 -2.22705078 4.52197266 C-2 2 -2 2 0 0 Z " fill="#0F2D33" transform="translate(102,122)"/>
<path d="M0 0 C3.3 1.65 6.6 3.3 10 5 C9.01 5.33 8.02 5.66 7 6 C6.34 5.67 5.68 5.34 5 5 C5 5.66 5 6.32 5 7 C4.01 7.66 3.02 8.32 2 9 C1.41407366 12.11610554 1.41407366 12.11610554 1.3125 15.625 C1.24675781 16.81351563 1.18101563 18.00203125 1.11328125 19.2265625 C1.07589844 20.14179688 1.03851563 21.05703125 1 22 C1.66 22.33 2.32 22.66 3 23 C2.01 23.33 1.02 23.66 0 24 C0 16.08 0 8.16 0 0 Z " fill="#17C1AA" transform="translate(71,114)"/>
<path d="M0 0 C0.515625 0.2475 1.03125 0.495 1.5625 0.75 C0.5725 2.235 0.5725 2.235 -0.4375 3.75 C-1.7575 3.75 -3.0775 3.75 -4.4375 3.75 C-4.4375 12 -4.4375 20.25 -4.4375 28.75 C-4.7675 28.75 -5.0975 28.75 -5.4375 28.75 C-5.7675 20.83 -6.0975 12.91 -6.4375 4.75 C-7.4275 4.42 -8.4175 4.09 -9.4375 3.75 C-3.0375 -0.31153846 -3.0375 -0.31153846 0 0 Z " fill="#0F1D25" transform="translate(74.4375,110.25)"/>
<path d="M0 0 C0 0.66 0 1.32 0 2 C-0.99 2 -1.98 2 -3 2 C-3.33 2.99 -3.66 3.98 -4 5 C-7.5625 6.1875 -7.5625 6.1875 -11 7 C-11 8.65 -11 10.3 -11 12 C-13.475 11.01 -13.475 11.01 -16 10 C-16 9.34 -16 8.68 -16 8 C-13.71125827 6.66141476 -11.41930344 5.32898986 -9.125 4 C-8.47402344 3.6184375 -7.82304688 3.236875 -7.15234375 2.84375 C-2.2265625 0 -2.2265625 0 0 0 Z " fill="#19A28D" transform="translate(96,49)"/>
<path d="M0 0 C0 0.66 0 1.32 0 2 C-0.804375 2.12375 -1.60875 2.2475 -2.4375 2.375 C-3.7059375 2.684375 -3.7059375 2.684375 -5 3 C-5.33 3.66 -5.66 4.32 -6 5 C-6.66 5 -7.32 5 -8 5 C-8 5.99 -8 6.98 -8 8 C-9.65 7.67 -11.3 7.34 -13 7 C-11.83621763 3.50865288 -11.10501256 2.84622368 -8 1 C-5.27614873 0.40075272 -2.7864265 0 0 0 Z " fill="#09CBB9" transform="translate(89,125)"/>
<path d="M0 0 C5 2 5 2 7 4 C5.35 4.33 3.7 4.66 2 5 C2 11.27 2 17.54 2 24 C1.34 24 0.68 24 0 24 C0 16.08 0 8.16 0 0 Z " fill="#1AB39B" transform="translate(76,67)"/>
<path d="M0 0 C0 0.66 0 1.32 0 2 C-0.99 2 -1.98 2 -3 2 C-3.103125 2.598125 -3.20625 3.19625 -3.3125 3.8125 C-4.11209475 6.35666511 -4.81974318 7.4657452 -7 9 C-9.1875 8.6875 -9.1875 8.6875 -11 8 C-9.94434467 4.71573897 -8.38339648 3.42848444 -5.5 1.75 C-2 0 -2 0 0 0 Z " fill="#197A6C" transform="translate(47,107)"/>
<path d="M0 0 C0.66 0 1.32 0 2 0 C1.61020794 6.55925943 0.57886807 11.94526627 -2 18 C-3.32138707 14.03583878 -2.14441646 11.97179829 -1 8 C-0.96227087 6.0003559 -0.95350094 3.99945939 -1 2 C-0.67 1.34 -0.34 0.68 0 0 Z " fill="#666D71" transform="translate(182,107)"/>
<path d="M0 0 C1.32 0.66 2.64 1.32 4 2 C3.01 2.33 2.02 2.66 1 3 C0.67 9.6 0.34 16.2 0 23 C-0.33 23 -0.66 23 -1 23 C-1.02887512 19.35418313 -1.04675585 15.70839537 -1.0625 12.0625 C-1.07087891 11.02158203 -1.07925781 9.98066406 -1.08789062 8.90820312 C-1.09272461 7.42416992 -1.09272461 7.42416992 -1.09765625 5.91015625 C-1.10289307 4.99371338 -1.10812988 4.07727051 -1.11352539 3.13305664 C-1 1 -1 1 0 0 Z " fill="#0FCDB1" transform="translate(102,47)"/>
<path d="M0 0 C0 0.66 0 1.32 0 2 C-3.26613695 3.91302307 -5.99445248 4.35674661 -9.75 4.625 C-10.73484375 4.69976563 -11.7196875 4.77453125 -12.734375 4.8515625 C-13.48203125 4.90054687 -14.2296875 4.94953125 -15 5 C-12.56158876 2.56158876 -10.81433885 2.23847249 -7.5 1.375 C-6.5203125 1.11460938 -5.540625 0.85421875 -4.53125 0.5859375 C-2 0 -2 0 0 0 Z " fill="#585E64" transform="translate(81,7)"/>
<path d="M0 0 C-0.66 0 -1.32 0 -2 0 C-2 0.66 -2 1.32 -2 2 C-5.83887763 3.48320272 -8.06204091 4.22419163 -12 3 C-10.5682384 2.30062798 -9.12932968 1.61587282 -7.6875 0.9375 C-6.48673828 0.36322266 -6.48673828 0.36322266 -5.26171875 -0.22265625 C-3 -1 -3 -1 0 0 Z " fill="#4C5358" transform="translate(66,13)"/>
<path d="M0 0 C0.99 0 1.98 0 3 0 C2.91291331 1.45945288 2.80473093 2.91765868 2.6875 4.375 C2.62949219 5.18710938 2.57148438 5.99921875 2.51171875 6.8359375 C2 9 2 9 -1 11 C-0.67 7.37 -0.34 3.74 0 0 Z " fill="#646B6F" transform="translate(11,60)"/>
<path d="M0 0 C1.37245106 2.74490212 0.93580311 4.12060581 0 7 C-2.0625 8.3125 -2.0625 8.3125 -4 9 C-2.25 2.25 -2.25 2.25 0 0 Z " fill="#6C7277" transform="translate(18,51)"/>
<path d="M0 0 C0.66 0 1.32 0 2 0 C2.33 1.98 2.66 3.96 3 6 C1.0625 5.6875 1.0625 5.6875 -1 5 C-1.33 4.01 -1.66 3.02 -2 2 C-1.34 1.34 -0.68 0.68 0 0 Z " fill="#0E9081" transform="translate(94,72)"/>
<path d="M0 0 C0.66 0.33 1.32 0.66 2 1 C1.01 1 0.02 1 -1 1 C-0.67 0.67 -0.34 0.34 0 0 Z " fill="#72797B" transform="translate(139,174)"/>
<path d="M0 0 C0.99 0.33 1.98 0.66 3 1 C2.01 1 1.02 1 0 1 C0 0.67 0 0.34 0 0 Z " fill="#72797B" transform="translate(50,174)"/>
<path d="M0 0 C0 3 0 3 0 3 Z " fill="#5A6263" transform="translate(173,141)"/>
<path d="M0 0 C0.99 0.495 0.99 0.495 2 1 C1.67 1.66 1.34 2.32 1 3 C0.67 2.01 0.34 1.02 0 0 Z " fill="#5A6263" transform="translate(17,141)"/>
<path d="M0 0 C0.99 0.495 0.99 0.495 2 1 C1.67 1.66 1.34 2.32 1 3 C0.67 2.01 0.34 1.02 0 0 Z " fill="#555E5F" transform="translate(172,47)"/>
<path d="M0 0 C0 3 0 3 0 3 Z " fill="#555E5F" transform="translate(18,47)"/>
<path d="M0 0 C0.66 0.33 1.32 0.66 2 1 C1.01 1 0.02 1 -1 1 C-0.67 0.67 -0.34 0.34 0 0 Z " fill="#737A7C" transform="translate(51,15)"/>
<path d="M0 0 C0.99 0.33 1.98 0.66 3 1 C2.01 1 1.02 1 0 1 C0 0.67 0 0.34 0 0 Z " fill="#737A7C" transform="translate(138,15)"/>
<path d="M0 0 C0.99 0.495 0.99 0.495 2 1 C1.01 1.495 1.01 1.495 0 2 C0 1.34 0 0.68 0 0 Z " fill="#B1B7BA" transform="translate(154,163)"/>
<path d="M0 0 C0.66 0 1.32 0 2 0 C1.67 0.66 1.34 1.32 1 2 C0.67 1.34 0.34 0.68 0 0 Z " fill="#B1B7BA" transform="translate(35,163)"/>
<path d="M0 0 C0.99 0.495 0.99 0.495 2 1 C1.01 1.495 1.01 1.495 0 2 C0 1.34 0 0.68 0 0 Z " fill="#959B9E" transform="translate(180,126)"/>
<path d="M0 0 C0.66 0 1.32 0 2 0 C1.67 0.66 1.34 1.32 1 2 C0.67 1.34 0.34 0.68 0 0 Z " fill="#959B9E" transform="translate(9,126)"/>
<path d="" fill="#697172" transform="translate(0,0)"/>
<path d="" fill="#697172" transform="translate(0,0)"/>
<path d="" fill="#697172" transform="translate(0,0)"/>
<path d="" fill="#697172" transform="translate(0,0)"/>
<path d="M0 0 C0.66 0.66 1.32 1.32 2 2 C1.34 2 0.68 2 0 2 C0 1.34 0 0.68 0 0 Z " fill="#9BA1A4" transform="translate(180,63)"/>
<path d="M0 0 C0.33 0.66 0.66 1.32 1 2 C0.34 1.67 -0.32 1.34 -1 1 C-0.67 0.67 -0.34 0.34 0 0 Z " fill="#9BA1A4" transform="translate(10,63)"/>
<path d="M0 0 C0.66 0.66 1.32 1.32 2 2 C1.34 2 0.68 2 0 2 C0 1.34 0 0.68 0 0 Z " fill="#B2B8BB" transform="translate(154,26)"/>
<path d="M0 0 C0.33 0.66 0.66 1.32 1 2 C0.34 1.67 -0.32 1.34 -1 1 C-0.67 0.67 -0.34 0.34 0 0 Z " fill="#B2B8BB" transform="translate(36,26)"/>
<path d="M0 0 C2 1 2 1 2 1 Z " fill="#505859" transform="translate(118,183)"/>
<path d="M0 0 C2 1 2 1 2 1 Z " fill="#505859" transform="translate(71,183)"/>
<path d="M0 0 C2 1 2 1 2 1 Z " fill="#444C4D" transform="translate(121,182)"/>
<path d="M0 0 C2 1 2 1 2 1 Z " fill="#444C4D" transform="translate(68,182)"/>
<path d="M0 0 C2 1 2 1 2 1 Z " fill="#555D5E" transform="translate(124,181)"/>
<path d="M0 0 C2 1 2 1 2 1 Z " fill="#555D5E" transform="translate(65,181)"/>
<path d="M0 0 C2 1 2 1 2 1 Z " fill="#586162" transform="translate(126,180)"/>
<path d="M0 0 C2 1 2 1 2 1 Z " fill="#586162" transform="translate(63,180)"/>
<path d="M0 0 C2 1 2 1 2 1 Z " fill="#6D7576" transform="translate(129,179)"/>
<path d="M0 0 C2 1 2 1 2 1 Z " fill="#6D7576" transform="translate(60,179)"/>
<path d="M0 0 C2 1 2 1 2 1 Z " fill="#959C9E" transform="translate(141,173)"/>
<path d="M0 0 C2 1 2 1 2 1 Z " fill="#959C9E" transform="translate(48,173)"/>
<path d="M0 0 C2 1 2 1 2 1 Z " fill="#6A7273" transform="translate(152,165)"/>
<path d="M0 0 C2 1 2 1 2 1 Z " fill="#6A7273" transform="translate(37,165)"/>
<path d="" fill="#585F60" transform="translate(0,0)"/>
<path d="" fill="#585F60" transform="translate(0,0)"/>
<path d="" fill="#3A4343" transform="translate(0,0)"/>
<path d="" fill="#3A4343" transform="translate(0,0)"/>
<path d="" fill="#9FA6A8" transform="translate(0,0)"/>
<path d="" fill="#9FA6A8" transform="translate(0,0)"/>
<path d="" fill="#353E3E" transform="translate(0,0)"/>
<path d="" fill="#353E3E" transform="translate(0,0)"/>
<path d="" fill="#2F3838" transform="translate(0,0)"/>
<path d="" fill="#2F3838" transform="translate(0,0)"/>
<path d="" fill="#9FA6A8" transform="translate(0,0)"/>
<path d="" fill="#9FA6A8" transform="translate(0,0)"/>
<path d="" fill="#3A4443" transform="translate(0,0)"/>
<path d="" fill="#3A4443" transform="translate(0,0)"/>
<path d="" fill="#5B6364" transform="translate(0,0)"/>
<path d="" fill="#5B6364" transform="translate(0,0)"/>
<path d="M0 0 C2 1 2 1 2 1 Z " fill="#656D6E" transform="translate(152,25)"/>
<path d="M0 0 C2 1 2 1 2 1 Z " fill="#656D6E" transform="translate(37,25)"/>
<path d="M0 0 C2 1 2 1 2 1 Z " fill="#A0A6A7" transform="translate(141,17)"/>
<path d="M0 0 C2 1 2 1 2 1 Z " fill="#A0A6A7" transform="translate(48,17)"/>
<path d="M0 0 C2 1 2 1 2 1 Z " fill="#676F70" transform="translate(129,11)"/>
<path d="M0 0 C2 1 2 1 2 1 Z " fill="#676F70" transform="translate(60,11)"/>
<path d="M0 0 C2 1 2 1 2 1 Z " fill="#565E5E" transform="translate(126,10)"/>
<path d="M0 0 C2 1 2 1 2 1 Z " fill="#565E5E" transform="translate(63,10)"/>
<path d="M0 0 C2 1 2 1 2 1 Z " fill="#525B5B" transform="translate(124,9)"/>
<path d="M0 0 C2 1 2 1 2 1 Z " fill="#525B5B" transform="translate(65,9)"/>
<path d="M0 0 C2 1 2 1 2 1 Z " fill="#434C4C" transform="translate(121,8)"/>
<path d="M0 0 C2 1 2 1 2 1 Z " fill="#434C4C" transform="translate(68,8)"/>
<path d="M0 0 C2 1 2 1 2 1 Z " fill="#4E5757" transform="translate(118,7)"/>
<path d="M0 0 C2 1 2 1 2 1 Z " fill="#4E5757" transform="translate(71,7)"/>
<path d="" fill="#656D6E" transform="translate(0,0)"/>
<path d="" fill="#656D6E" transform="translate(0,0)"/>
<path d="" fill="#303939" transform="translate(0,0)"/>
<path d="" fill="#303939" transform="translate(0,0)"/>
<path d="" fill="#5A6263" transform="translate(0,0)"/>
<path d="" fill="#5A6263" transform="translate(0,0)"/>
<path d="" fill="#878D8F" transform="translate(0,0)"/>
<path d="" fill="#878D8F" transform="translate(0,0)"/>
<path d="" fill="#606869" transform="translate(0,0)"/>
<path d="" fill="#606869" transform="translate(0,0)"/>
<path d="" fill="#899092" transform="translate(0,0)"/>
<path d="" fill="#899092" transform="translate(0,0)"/>
<path d="" fill="#777F80" transform="translate(0,0)"/>
<path d="" fill="#777F80" transform="translate(0,0)"/>
<path d="" fill="#273231" transform="translate(0,0)"/>
<path d="" fill="#273231" transform="translate(0,0)"/>
<path d="" fill="#C2C8CB" transform="translate(0,0)"/>
<path d="" fill="#C2C8CB" transform="translate(0,0)"/>
<path d="" fill="#757D7E" transform="translate(0,0)"/>
<path d="" fill="#757D7E" transform="translate(0,0)"/>
<path d="" fill="#313A3A" transform="translate(0,0)"/>
<path d="" fill="#313A3A" transform="translate(0,0)"/>
<path d="" fill="#3C4646" transform="translate(0,0)"/>
<path d="" fill="#3C4646" transform="translate(0,0)"/>
<path d="" fill="#4C5455" transform="translate(0,0)"/>
<path d="" fill="#4C5455" transform="translate(0,0)"/>
<path d="" fill="#9BA1A4" transform="translate(0,0)"/>
<path d="" fill="#9BA1A4" transform="translate(0,0)"/>
<path d="" fill="#3C4645" transform="translate(0,0)"/>
<path d="" fill="#3C4645" transform="translate(0,0)"/>
<path d="" fill="#2D3736" transform="translate(0,0)"/>
<path d="" fill="#2D3736" transform="translate(0,0)"/>
<path d="" fill="#212B2A" transform="translate(0,0)"/>
<path d="" fill="#212B2A" transform="translate(0,0)"/>
<path d="" fill="#AFB6B8" transform="translate(0,0)"/>
<path d="" fill="#AFB6B8" transform="translate(0,0)"/>
<path d="" fill="#3F4949" transform="translate(0,0)"/>
<path d="" fill="#3F4949" transform="translate(0,0)"/>
<path d="" fill="#757D7E" transform="translate(0,0)"/>
<path d="" fill="#757D7E" transform="translate(0,0)"/>
<path d="" fill="#A4ABAD" transform="translate(0,0)"/>
<path d="" fill="#A4ABAD" transform="translate(0,0)"/>
<path d="" fill="#BEC3C7" transform="translate(0,0)"/>
<path d="" fill="#BEC3C7" transform="translate(0,0)"/>
<path d="" fill="#576061" transform="translate(0,0)"/>
<path d="" fill="#576061" transform="translate(0,0)"/>
<path d="" fill="#202A29" transform="translate(0,0)"/>
<path d="" fill="#202A29" transform="translate(0,0)"/>
<path d="" fill="#AFB6B9" transform="translate(0,0)"/>
<path d="" fill="#AFB6B9" transform="translate(0,0)"/>
<path d="" fill="#8B9295" transform="translate(0,0)"/>
<path d="" fill="#8B9295" transform="translate(0,0)"/>
<path d="" fill="#6E7677" transform="translate(0,0)"/>
<path d="" fill="#6E7677" transform="translate(0,0)"/>
<path d="" fill="#3E4848" transform="translate(0,0)"/>
<path d="" fill="#3E4848" transform="translate(0,0)"/>
<path d="" fill="#A9AFB2" transform="translate(0,0)"/>
<path d="" fill="#A9AFB2" transform="translate(0,0)"/>
<path d="" fill="#353F3E" transform="translate(0,0)"/>
<path d="" fill="#353F3E" transform="translate(0,0)"/>
<path d="" fill="#1B2525" transform="translate(0,0)"/>
<path d="" fill="#1B2525" transform="translate(0,0)"/>
<path d="" fill="#333C3D" transform="translate(0,0)"/>
<path d="" fill="#333C3D" transform="translate(0,0)"/>
<path d="" fill="#A8AEB1" transform="translate(0,0)"/>
<path d="" fill="#A8AEB1" transform="translate(0,0)"/>
<path d="" fill="#4C5656" transform="translate(0,0)"/>
<path d="" fill="#4C5656" transform="translate(0,0)"/>
<path d="" fill="#3D4746" transform="translate(0,0)"/>
<path d="" fill="#3D4746" transform="translate(0,0)"/>
<path d="" fill="#3F4848" transform="translate(0,0)"/>
<path d="" fill="#3F4848" transform="translate(0,0)"/>
<path d="" fill="#7D8486" transform="translate(0,0)"/>
<path d="" fill="#7D8486" transform="translate(0,0)"/>
<path d="" fill="#C6CCD0" transform="translate(0,0)"/>
<path d="" fill="#C6CCD0" transform="translate(0,0)"/>
<path d="" fill="#2E3837" transform="translate(0,0)"/>
<path d="" fill="#2E3837" transform="translate(0,0)"/>
<path d="" fill="#757D7D" transform="translate(0,0)"/>
<path d="" fill="#757D7D" transform="translate(0,0)"/>
<path d="" fill="#878E90" transform="translate(0,0)"/>
<path d="" fill="#878E90" transform="translate(0,0)"/>
<path d="" fill="#5A6262" transform="translate(0,0)"/>
<path d="" fill="#5A6262" transform="translate(0,0)"/>
<path d="" fill="#899193" transform="translate(0,0)"/>
<path d="" fill="#899193" transform="translate(0,0)"/>
<path d="" fill="#586161" transform="translate(0,0)"/>
<path d="" fill="#586161" transform="translate(0,0)"/>
<path d="" fill="#313A3A" transform="translate(0,0)"/>
<path d="" fill="#313A3A" transform="translate(0,0)"/>
<path d="" fill="#636B6C" transform="translate(0,0)"/>
<path d="" fill="#636B6C" transform="translate(0,0)"/>
</svg>
