<?xml version="1.0" encoding="UTF-8"?>
<svg id="Layer_2" data-name="Layer 2" xmlns="http://www.w3.org/2000/svg" viewBox="0 0 340.08 340.07">
  <defs>
    <style>
      .cls-1 {
        fill: #fff;
        stroke-width: 0px;
      }
    </style>
  </defs>
  <g id="Layer_1-2" data-name="Layer 1">
    <g>
      <path class="cls-1" d="m80.04,170.07c0-29.23,0-58.47,0-87.7,0-.53,0-1.06.02-1.59.03-.59.17-.71.8-.74.48-.02.96-.01,1.43-.01,58.52,0,117.04,0,175.56,0,2.31,0,2.17-.24,2.17,2.13,0,58.62,0,117.25,0,175.87,0,.48,0,.96-.04,1.43-.03.36-.26.57-.63.59-.48.02-.96.03-1.43.03-5.16,0-10.31,0-15.47,0-53.26,0-106.51,0-159.77,0-3.03,0-2.62.37-2.62-2.62,0-29.13,0-58.25,0-87.38Zm59.83-32.37h0c-1.81,0-3.61.02-5.42-.01-.76-.02-1.14.29-1.39,1-.69,2.01-1.45,3.99-2.18,5.99-2.8,7.63-5.61,15.25-8.4,22.88-2.96,8.08-5.91,16.16-8.86,24.24-.95,2.59-1.88,5.19-2.81,7.79-.18.5-.04.69.46.74.16.01.32.02.48.02,2.02,0,4.04.01,6.06,0,1.09,0,1.1-.03,1.47-1.07,1.67-4.65,3.32-9.3,4.99-13.95.76-2.1.61-1.71,2.47-1.72,8.45-.02,16.9,0,25.35,0,.21,0,.43,0,.64,0,1.11.03,1.12.02,1.47,1.04.67,1.96,1.33,3.92,1.99,5.89,1,2.97,1.99,5.94,3,8.9.28.83.36.9,1.26.9,2.39.02,4.78.02,7.17,0,1.04,0,1.1-.09.73-1.12-1.52-4.25-3.04-8.5-4.57-12.75-2.83-7.84-5.67-15.68-8.5-23.52-2.47-6.84-4.92-13.69-7.38-20.54-.47-1.3-.97-2.59-1.42-3.89-.21-.6-.58-.81-1.19-.81-1.81.02-3.61,0-5.42,0Zm59.1,31.29c0,7.7,0,15.41,0,23.11,0,2.06.22,2.03-1.95,2.03-4.52,0-9.03,0-13.55,0-.43,0-.85,0-1.27.01-.78.04-.96.19-.98.93-.03,1.27-.02,2.55-.01,3.83.01,1.41.03,1.42,1.42,1.44.16,0,.32,0,.48,0,13.34,0,26.67,0,40.01,0,.42,0,.85,0,1.27-.03.36-.02.63-.19.64-.57.02-1.65.02-3.29,0-4.94,0-.36-.23-.6-.6-.63-.48-.04-.95-.04-1.43-.04-4.68,0-9.35,0-14.03,0-1.41,0-1.43-.04-1.45-1.42,0-.11,0-.21,0-.32,0-15.57,0-31.14,0-46.7,0-1.71.01-1.71,1.79-1.72,4.52,0,9.03,0,13.55,0,.48,0,.96,0,1.43-.02.51-.03.73-.2.73-.65.02-1.65.02-3.29,0-4.94,0-.36-.23-.59-.6-.62-.48-.03-.96-.03-1.43-.03-13.23,0-26.46,0-39.69,0-.37,0-.74,0-1.12,0-.79.03-.96.17-.98.92-.03,1.17-.01,2.34-.02,3.51,0,1.87-.04,1.83,1.84,1.83,4.68,0,9.35,0,14.03,0,2.05,0,1.9-.04,1.9,1.91,0,7.7,0,15.41,0,23.11Z"/>
      <path class="cls-1" d="m329.46,152.45c-2.92,0-5.85,0-8.77,0-.37,0-.75,0-1.12-.02-.5-.04-.63-.16-.7-.67-.19-1.42-.36-2.85-.56-4.27-.82-5.79-1.97-11.52-3.45-17.18-1.68-6.43-3.7-12.75-6.21-18.91-2.79-6.85-6.02-13.47-9.75-19.86-5.33-9.13-11.56-17.57-18.67-25.37-7.15-7.84-15.08-14.81-23.77-20.9-4.83-3.39-9.86-6.46-15.05-9.27-6.65-3.59-13.57-6.57-20.69-9.1-9.5-3.37-19.25-5.66-29.23-7.01-1.05-.14-2.1-.31-3.16-.45-.43-.06-.68-.28-.7-.72-.02-.37-.02-.74-.02-1.12,0-5.32,0-10.63,0-15.95,0-.27,0-.53,0-.8.04-.77.2-.92.99-.83,5.97.69,11.9,1.61,17.76,2.91,6.39,1.42,12.68,3.15,18.87,5.26,5.79,1.97,11.43,4.3,16.98,6.86,6.86,3.17,13.44,6.84,19.81,10.91,7.35,4.7,14.29,9.95,20.85,15.71,9.37,8.25,17.74,17.41,25.13,27.47,4.6,6.26,8.74,12.81,12.44,19.64,3.75,6.92,7,14.07,9.78,21.44,2.68,7.12,4.85,14.39,6.53,21.81,1.42,6.28,2.5,12.61,3.23,19,.03.26.08.53.09.79.02.37-.16.57-.57.59-.42.03-.85.02-1.27.02-2.92,0-5.85,0-8.77,0Z"/>
      <path class="cls-1" d="m10.55,187.63c2.82,0,5.63,0,8.45,0,.37,0,.74,0,1.12,0,.96.04,1.03.09,1.15,1.12.58,5.18,1.48,10.31,2.58,15.4,2.38,11,5.97,21.6,10.71,31.8,6.31,13.58,14.47,25.96,24.51,37.1,8.3,9.21,17.6,17.23,27.94,24.07,9.52,6.31,19.64,11.41,30.36,15.35,7.85,2.88,15.88,5.09,24.1,6.6,3.13.57,6.3.95,9.45,1.42.11.02.21.02.32.03,1.14.15,1.2.21,1.21,1.42,0,5.69,0,11.37,0,17.06,0,.21-.01.42-.04.63-.04.32-.26.45-.55.44-.26,0-.53-.05-.79-.08-10.86-1.22-21.49-3.49-31.92-6.71-8.09-2.5-15.92-5.63-23.53-9.32-7.37-3.57-14.45-7.67-21.23-12.28-7.44-5.06-14.44-10.65-21.02-16.79-8.74-8.15-16.51-17.13-23.39-26.89-4.94-7.01-9.29-14.36-13.11-22.03-3.48-7-6.51-14.19-8.96-21.62-2.3-6.97-4.23-14.03-5.65-21.24-.93-4.75-1.62-9.53-2.2-14.33-.02-.16-.04-.32-.04-.48-.02-.42.12-.62.51-.65.42-.03.85-.03,1.27-.03,2.92,0,5.85,0,8.77,0Z"/>
      <path class="cls-1" d="m187.61,330.33c0-2.71,0-5.42,0-8.13,0-1.51.03-1.54,1.45-1.7,7.77-.89,15.42-2.41,22.95-4.54,7.73-2.19,15.24-4.98,22.52-8.39,10-4.68,19.34-10.44,28.05-17.23,5.92-4.61,11.43-9.68,16.56-15.15,7.47-7.97,13.99-16.67,19.54-26.09,5.55-9.42,10.04-19.31,13.44-29.69,1.87-5.71,3.41-11.5,4.61-17.4.89-4.38,1.58-8.78,2.11-13.21.03-.21.05-.42.08-.63.04-.3.24-.47.53-.5.32-.03.64-.04.95-.04,6.11,0,12.22,0,18.33,0,1.44,0,1.43.02,1.27,1.42-.66,5.7-1.59,11.36-2.79,16.98-1.32,6.19-2.95,12.29-4.99,18.27-2.13,6.23-4.56,12.35-7.37,18.31-4.31,9.16-9.4,17.86-15.24,26.11-4.45,6.29-9.33,12.24-14.59,17.89-7.67,8.23-16.07,15.61-25.18,22.2-6.94,5.02-14.24,9.45-21.86,13.39-6.43,3.32-13.06,6.17-19.84,8.67-5.83,2.16-11.8,3.88-17.84,5.35-6.36,1.55-12.79,2.69-19.27,3.56-.84.11-1.69.2-2.54.28-.66.06-.82-.09-.86-.8-.02-.37-.01-.74-.01-1.12,0-2.6,0-5.21,0-7.81Z"/>
      <path class="cls-1" d="m10.5,152.45c-2.92,0-5.85,0-8.77,0-.42,0-.85-.01-1.27-.04-.3-.02-.49-.21-.46-.52.05-.53.14-1.05.2-1.58.39-3.81.98-7.58,1.67-11.35.89-4.81,1.98-9.57,3.3-14.28,1.29-4.6,2.72-9.16,4.37-13.65,1.67-4.54,3.58-8.97,5.61-13.36,3.03-6.57,6.55-12.88,10.41-18.99,3.55-5.62,7.43-11,11.62-16.16,4.49-5.54,9.29-10.79,14.43-15.72,6.64-6.37,13.75-12.19,21.32-17.43,6.08-4.2,12.41-8,18.98-11.38,9.71-4.99,19.77-9.07,30.27-12.09,6.49-1.87,13.05-3.44,19.71-4.53,3.2-.53,6.42-.89,9.63-1.32.16-.02.34-.07.47,0,.16.08.36.24.39.4.07.3.06.63.06.95,0,5.53,0,11.05,0,16.58,0,1.37-.02,1.38-1.38,1.56-5.64.74-11.24,1.69-16.78,2.99-8.56,2-16.84,4.8-24.91,8.26-6.6,2.84-12.93,6.19-19.03,9.98-9.83,6.12-18.8,13.31-26.92,21.57-6.69,6.8-12.65,14.18-17.93,22.12-3.98,5.98-7.49,12.23-10.56,18.72-3.48,7.35-6.34,14.96-8.59,22.78-2.07,7.16-3.56,14.43-4.63,21.8-.19,1.31-.31,2.64-.48,3.95-.07.57-.25.71-.83.75-.42.02-.85.01-1.28.01-2.87,0-5.74,0-8.61,0Z"/>
      <path class="cls-1" d="m139.39,177.01c-3.4,0-6.8,0-10.2,0-.42,0-.85,0-1.27-.04-.32-.03-.44-.26-.37-.57.05-.21.13-.4.2-.6,2.72-7.6,5.44-15.2,8.16-22.8.72-2,1.42-4,2.14-6,.14-.4.28-.8.43-1.2.15-.39.44-.59.84-.62.21-.02.43,0,.64-.01.54-.03.92.18,1.1.72.1.3.2.6.31.91,2.21,6.54,4.42,13.08,6.63,19.61.95,2.82,1.91,5.63,2.86,8.45.17.5.34,1.01.49,1.52.11.39-.05.59-.48.62-.42.03-.85.03-1.27.03-3.4,0-6.8,0-10.2,0Z"/>
    </g>
  </g>
</svg>