<?xml version="1.0" standalone="no"?>
<!DOCTYPE svg PUBLIC "-//W3C//DTD SVG 20010904//EN"
 "http://www.w3.org/TR/2001/REC-SVG-20010904/DTD/svg10.dtd">
<svg version="1.0" xmlns="http://www.w3.org/2000/svg"
 width="460.000000pt" height="460.000000pt" viewBox="0 0 460.000000 460.000000"
 preserveAspectRatio="xMidYMid meet">

<g transform="translate(0.000000,460.000000) scale(0.100000,-0.100000)"
fill="#000000" stroke="none">
<path d="M0 2300 l0 -2300 2288 0 c1766 0 2291 3 2300 12 9 9 12 529 12 2278
l0 2267 -23 21 -23 22 -2277 0 -2277 0 0 -2300z m2717 1714 c32 -6 94 -63 109
-101 27 -64 16 -108 -58 -238 -23 -38 -55 -92 -73 -120 -18 -27 -42 -71 -53
-97 -11 -26 -36 -71 -55 -100 -39 -59 -126 -206 -168 -285 -34 -64 -104 -182
-170 -288 -28 -44 -53 -87 -56 -95 -10 -24 -154 -263 -168 -280 -8 -8 -37 -60
-65 -114 -29 -55 -62 -114 -74 -130 -23 -31 -118 -183 -146 -234 -8 -15 -41
-74 -72 -131 -32 -57 -63 -124 -69 -148 -24 -94 16 -199 108 -283 96 -88 41
-83 953 -89 589 -5 812 -10 830 -18 59 -28 105 -91 116 -161 5 -34 1 -56 -21
-110 -57 -134 -134 -229 -225 -274 l-45 -23 -795 0 c-910 0 -829 -8 -1016 96
-194 108 -422 376 -487 573 -26 78 -30 106 -30 196 0 100 2 109 40 200 22 52
54 118 71 145 32 52 139 237 236 410 31 55 79 136 106 180 27 44 49 84 50 89
0 10 129 229 172 294 16 23 43 70 60 105 17 34 52 94 77 133 107 166 146 231
160 264 8 19 36 69 63 110 57 90 144 238 178 303 47 90 115 182 150 202 22 12
61 22 105 26 71 5 221 2 262 -7z"/>
</g>
</svg>
