<?xml version="1.0" encoding="UTF-8"?>
<svg version="1.1" xmlns="http://www.w3.org/2000/svg" width="400" height="400">
<path d="M0 0 C132 0 264 0 400 0 C400 132 400 264 400 400 C268 400 136 400 0 400 C0 268 0 136 0 0 Z " fill="#B65FFE" transform="translate(0,0)"/>
<path d="M0 0 C4.3903607 3.27536751 8.20672718 7.06313325 12 11 C12.59039062 11.55945313 13.18078125 12.11890625 13.7890625 12.6953125 C24.8945222 24.03832214 29.9617767 42.36312897 30.5625 57.8125 C29.94738821 78.68529341 21.60520193 95.80280291 6.70703125 110.21875 C-9.22945854 124.92091614 -27.22694819 127.86715584 -48.27636719 127.17919922 C-53.92837463 126.80732996 -58.8159871 125.29374817 -64 123 C-65.04414062 122.55269531 -66.08828125 122.10539063 -67.1640625 121.64453125 C-73.67360387 118.63205119 -78.91537945 115.05471102 -84 110 C-83.505 108.515 -83.505 108.515 -83 107 C-82.34 107 -81.68 107 -81 107 C-80.76680054 106.44115616 -80.53360107 105.88231232 -80.29333496 105.30653381 C-78.6697043 102.41095058 -76.66555769 100.43392102 -74.30664062 98.09545898 C-73.8316362 97.6217688 -73.35663177 97.14807861 -72.86723328 96.66003418 C-71.30145818 95.1007319 -69.72883135 93.54852886 -68.15625 91.99609375 C-67.06479935 90.91091644 -65.97386421 89.82522042 -64.88342285 88.73902893 C-62.01473944 85.88363443 -59.14054073 83.03386237 -56.26470947 80.18566895 C-51.66051743 75.62463175 -47.06304122 71.05684982 -42.46879578 66.48579597 C-40.86360714 64.8908245 -39.25504564 63.29931333 -37.64611816 61.70811462 C-36.66174981 60.73057479 -35.67749097 59.75292467 -34.69335938 58.77514648 C-33.83335327 57.9233934 -32.97334717 57.07164032 -32.08728027 56.19407654 C-29.86577803 53.98456994 -29.86577803 53.98456994 -28 51 C-27.34 51 -26.68 51 -26 51 C-25.67 50.01 -25.34 49.02 -25 48 C-24.34 48 -23.68 48 -23 48 C-21.4921875 49.75 -21.4921875 49.75 -19.875 52 C-19.33617187 52.7425 -18.79734375 53.485 -18.2421875 54.25 C-17.83226562 54.8275 -17.42234375 55.405 -17 56 C-17.79664063 56.78503906 -18.59328125 57.57007813 -19.4140625 58.37890625 C-24.84389947 63.75395691 -30.09371513 69.13639125 -35 75 C-36.65380826 76.67942663 -38.32256941 78.34416723 -40 80 C-42.0853743 82.06044817 -44.16814134 84.12350042 -46.25 86.1875 C-46.79140625 86.72052734 -47.3328125 87.25355469 -47.890625 87.80273438 C-50.80757101 90.62507537 -50.80757101 90.62507537 -53 94 C-39.72590228 96.46959958 -27.35250747 95.69106812 -16 88 C-8.43915065 82.06041494 -3.78433275 73.40829996 -2 64 C-1.04972241 52.0706224 -3.32386444 42.32225944 -11 33 C-19.12755246 24.48542123 -27.33601264 21.01044712 -39.0625 20.625 C-46.46112995 20.65048323 -52.32274491 23.03124956 -59 26 C-59.99 26.33 -60.98 26.66 -62 27 C-62 27.66 -62 28.32 -62 29 C-63.299375 29.928125 -63.299375 29.928125 -64.625 30.875 C-70.05537286 35.17028305 -73.84957885 43.211251 -75 50 C-75.7467361 59.47288077 -75.40877452 66.95455132 -71.09375 75.64453125 C-70 78 -70 78 -70 81 C-70.66 81 -71.32 81 -72 81 C-72.24927246 81.57524414 -72.49854492 82.15048828 -72.75537109 82.74316406 C-74.17873923 85.32410072 -75.81548786 87.04212237 -77.9140625 89.109375 C-79.05488281 90.24052734 -79.05488281 90.24052734 -80.21875 91.39453125 C-81.0128125 92.17183594 -81.806875 92.94914062 -82.625 93.75 C-83.42679688 94.54277344 -84.22859375 95.33554688 -85.0546875 96.15234375 C-87.03202846 98.10614493 -89.01388909 100.05512103 -91 102 C-101.37468761 92.42610303 -106.50779014 77.02663414 -107.37890625 63.16796875 C-108.10543379 43.10923904 -102.76166164 25.13187037 -89 10 C-86.46579483 7.4763982 -83.81361604 5.20595668 -81 3 C-80.23816406 2.401875 -79.47632812 1.80375 -78.69140625 1.1875 C-55.47540981 -16.04805576 -23.95695105 -15.31903766 0 0 Z " fill="#FDFCFD" transform="translate(166,142)"/>
<path d="M0 0 C16.7499027 12.88454054 25.08266475 29.35177401 28.27734375 50.1171875 C17.71734375 50.1171875 7.15734375 50.1171875 -3.72265625 50.1171875 C-4.71265625 46.8171875 -5.70265625 43.5171875 -6.72265625 40.1171875 C-11.72467409 30.18320809 -19.39454262 24.93724778 -29.5546875 21.02734375 C-39.0701288 18.29356098 -48.99611639 19.64345504 -57.72265625 24.1171875 C-66.69219688 29.58492117 -72.42011588 37.20956638 -75.72265625 47.1171875 C-75.97434098 50.17515692 -75.95393913 53.23741961 -75.97265625 56.3046875 C-75.99328125 57.13033203 -76.01390625 57.95597656 -76.03515625 58.80664062 C-76.09613239 68.47898075 -72.54249296 76.93876338 -65.9375 84.03515625 C-57.30049045 92.08835203 -47.89377528 94.58462097 -36.26953125 94.453125 C-27.08678076 93.58339313 -19.57050167 89.69995759 -12.72265625 83.66796875 C-9.76693621 79.89827113 -7.86494013 75.40175526 -5.72265625 71.1171875 C-22.55265625 71.1171875 -39.38265625 71.1171875 -56.72265625 71.1171875 C-56.72265625 67.4871875 -56.72265625 63.8571875 -56.72265625 60.1171875 C-28.67265625 60.1171875 -0.62265625 60.1171875 28.27734375 60.1171875 C27.11348002 75.24741594 27.11348002 75.24741594 24.65234375 81.2421875 C24.38728027 81.9132251 24.1222168 82.5842627 23.84912109 83.27563477 C16.96106293 100.06201325 4.56605914 113.37593195 -11.96484375 121.01953125 C-29.42002181 127.96698881 -48.5799724 128.74539842 -66.16796875 121.74609375 C-84.8771629 113.17275973 -97.21666189 98.68714189 -104.72265625 79.5703125 C-110.80110958 62.15320583 -109.02197344 42.54609856 -101.16015625 26.1171875 C-95.12551705 14.24057877 -87.02588333 5.28427075 -75.72265625 -1.8828125 C-75.00722656 -2.35203125 -74.29179687 -2.82125 -73.5546875 -3.3046875 C-50.70971793 -17.19168589 -21.75836515 -15.04667433 0 0 Z " fill="#FDFCFD" transform="translate(312.72265625,142.8828125)"/>
<path d="M0 0 C-0.01571045 0.72477539 -0.0314209 1.44955078 -0.04760742 2.19628906 C-0.11078143 5.54744349 -0.14924886 8.89847197 -0.1875 12.25 C-0.21263672 13.38953125 -0.23777344 14.5290625 -0.26367188 15.703125 C-0.42307772 34.40674464 6.51113044 51.89572665 19.40380859 65.47900391 C33.38841995 79.1078706 50.35954801 84.53512371 69.47705078 84.42211914 C85.48914755 83.95956094 101.26543374 78.09681809 113 67 C125.55355493 53.40031549 132.73812917 38.43255931 135 20 C135.66 20 136.32 20 137 20 C136.42411085 33.38445821 136.42411085 33.38445821 133 39 C132.30741771 40.99117408 131.64252365 42.9921136 131 45 C130.5351996 46.44220925 130.05543662 47.8796635 129.5625 49.3125 C129.33691406 49.98925781 129.11132812 50.66601562 128.87890625 51.36328125 C128 53 128 53 125 54 C125 54.99 125 55.98 125 57 C124.34 57 123.68 57 123 57 C122.62875 57.804375 122.62875 57.804375 122.25 58.625 C119.23647635 64.35069493 116.4305934 67.49274176 111 71 C109.66172696 72.66270287 108.32810215 74.32916181 107 76 C103.31935879 78.48850432 99.53560762 80.03694387 95.375 81.5625 C91.89929993 82.8390443 89.08737638 83.94174908 86 86 C79.58327166 88.16778019 73.37242303 88.18118643 66.6875 87.75 C65.77266846 87.6991626 64.85783691 87.6483252 63.9152832 87.59594727 C57.17781963 87.18040775 50.60907684 86.40938906 44 85 C44 84.34 44 83.68 44 83 C43.40832031 82.81824219 42.81664062 82.63648438 42.20703125 82.44921875 C37.7697151 81.03767446 33.91711959 79.57410716 30 77 C28.67391178 76.31903578 27.34313399 75.64669414 26 75 C26 74.34 26 73.68 26 73 C24.576875 72.62875 24.576875 72.62875 23.125 72.25 C20 71 20 71 18.8125 69 C18.544375 68.34 18.27625 67.68 18 67 C16.515 66.01 16.515 66.01 15 65 C15 64.01 15 63.02 15 62 C12.83125748 62.50603992 11.00032373 62.99983813 9 64 C9.268125 62.989375 9.53625 61.97875 9.8125 60.9375 C10.02277405 56.52174495 9.23534921 55.63949555 6.5390625 52.36328125 C3.9746223 48.42549871 2.60756393 44.01299275 1.05639648 39.59790039 C-0.06312551 36.42799669 -1.12366708 33.81449937 -3 31 C-3.22705078 27.90551758 -3.22705078 27.90551758 -3.1953125 24.14453125 C-3.1924826 23.48289474 -3.18965271 22.82125824 -3.18673706 22.13957214 C-3.17555918 20.03036263 -3.15045981 17.92158075 -3.125 15.8125 C-3.11496707 14.38086552 -3.10584176 12.94922436 -3.09765625 11.51757812 C-3.07562795 8.01158023 -3.04111485 4.50583187 -3 1 C-1 0 -1 0 0 0 Z " fill="#B172E2" transform="translate(206,184)"/>
<path d="M0 0 C0.66 0.33 1.32 0.66 2 1 C-11.33333333 14.33333333 -24.66666667 27.66666667 -38 41 C-38.33 40.34 -38.66 39.68 -39 39 C-38 36 -38 36 -35 34 C-35.99 33.01 -36.98 32.02 -38 31 C-38.99 31.33 -39.98 31.66 -41 32 C-41 32.66 -41 33.32 -41 34 C-43.8125 35.125 -43.8125 35.125 -47 36 C-47.99 35.34 -48.98 34.68 -50 34 C-50.1875 31.375 -50.1875 31.375 -50 29 C-47.525 30.98 -47.525 30.98 -45 33 C-39.06 27.06 -33.12 21.12 -27 15 C-23 17 -23 17 -22 19 C-19.12909413 18.60401298 -18.21084873 18.2676157 -16.375 15.9375 C-15.694375 14.9784375 -15.694375 14.9784375 -15 14 C-14.34 14 -13.68 14 -13 14 C-13 13.01 -13 12.02 -13 11 C-12.34 11 -11.68 11 -11 11 C-11 10.34 -11 9.68 -11 9 C-10.21625 8.54625 -9.4325 8.0925 -8.625 7.625 C-5.76321538 5.85341905 -5.40585857 4.90544105 -4 2 C-2 0.6875 -2 0.6875 0 0 Z " fill="#B165F0" transform="translate(120,210)"/>
<path d="M0 0 C28.05 0 56.1 0 85 0 C85 0.33 85 0.66 85 1 C57.00866281 2.28178575 29.01394155 2.10452521 1 2 C1 4.31 1 6.62 1 9 C1.5902446 8.99555878 2.1804892 8.99111755 2.78862 8.98654175 C8.93677345 8.94226443 15.08488153 8.91211524 21.2331543 8.89013672 C23.52711833 8.88008472 25.82106957 8.8664411 28.11499023 8.84912109 C31.41393188 8.82483791 34.71270397 8.81350877 38.01171875 8.8046875 C39.03585373 8.79436493 40.05998871 8.78404236 41.11515808 8.77340698 C42.07577652 8.77325592 43.03639496 8.77310486 44.02612305 8.77294922 C44.86773483 8.768508 45.70934662 8.76406677 46.57646179 8.75949097 C49.33648004 9.03339188 51.48143665 9.86584159 54 11 C53.34 12.65 52.68 14.3 52 16 C51.01 16 50.02 16 49 16 C49.66 14.35 50.32 12.7 51 11 C34.17 11 17.34 11 0 11 C0 7.37 0 3.74 0 0 Z " fill="#F0D6FE" transform="translate(256,203)"/>
<path d="M0 0 C0 0.99 0 1.98 0 3 C-0.99 3 -1.98 3 -3 3 C-3 4.65 -3 6.3 -3 8 C-3.66 8 -4.32 8 -5 8 C-5 7.01 -5 6.02 -5 5 C-8.53586014 8.17320782 -10.58578031 10.16743695 -11 15 C-12.65 15.33 -14.3 15.66 -16 16 C-16.33 17.65 -16.66 19.3 -17 21 C-17.66 21 -18.32 21 -19 21 C-18.67 22.65 -18.34 24.3 -18 26 C-18.66 26 -19.32 26 -20 26 C-20 31.61 -20 37.22 -20 43 C-19.34 43 -18.68 43 -18 43 C-16.094753 48.10334017 -14.57410977 52.46342706 -15 58 C-16.485 58.495 -16.485 58.495 -18 59 C-18 58.34 -18 57.68 -18 57 C-17.34 57 -16.68 57 -16 57 C-16.433125 56.1028125 -16.86625 55.205625 -17.3125 54.28125 C-22.50793192 42.9037166 -24.35056224 32.19621637 -20.375 20 C-17.71165529 13.73830658 -14.43290841 7.78666937 -8 5 C-8 4.34 -8 3.68 -8 3 C-5.09451118 0.95830515 -3.59857954 0 0 0 Z " fill="#B171E8" transform="translate(112,166)"/>
<path d="M0 0 C4.47915328 -0.02886338 8.95828291 -0.04675187 13.4375 -0.0625 C14.71689453 -0.07087891 15.99628906 -0.07925781 17.31445312 -0.08789062 C19.13686523 -0.09272461 19.13686523 -0.09272461 20.99609375 -0.09765625 C22.12200928 -0.10289307 23.2479248 -0.10812988 24.40795898 -0.11352539 C27 0 27 0 28 1 C29.11375 1.144375 30.2275 1.28875 31.375 1.4375 C35 2 35 2 38 4 C39.22359623 4.71791299 40.45290429 5.42617224 41.6875 6.125 C42.780625 6.74375 43.87375 7.3625 45 8 C43 9 43 9 40.6796875 8.29296875 C39.75414062 7.92816406 38.82859375 7.56335938 37.875 7.1875 C20.68100099 0.44141257 1.76638474 0.7357198 -15.18652344 8.12695312 C-18.52109041 9.73228585 -21.54571053 11.63656172 -24.46875 13.8984375 C-26 15 -26 15 -28 15 C-27.875 13.125 -27.875 13.125 -27 11 C-25.01017187 10.30356015 -23.00705243 9.645124 -21 9 C-19.60851177 8.00175844 -18.23486249 6.97841292 -16.875 5.9375 C-11.55725557 2.20144365 -6.35443692 2.02150402 0 2 C0 1.34 0 0.68 0 0 Z " fill="#B377DF" transform="translate(260,129)"/>
<path d="M0 0 C9.06340481 3.62536193 15.1563976 11.20795403 19 20 C22.6984773 29.54633146 21.77487752 39.81396482 18.2578125 49.24609375 C14.9023338 56.59271636 9.47644066 62.23588054 3 67 C1.515 67.495 1.515 67.495 0 68 C0 67.34 0 66.68 0 66 C0.66 66 1.32 66 2 66 C2 65.34 2 64.68 2 64 C2.9075 63.443125 3.815 62.88625 4.75 62.3125 C8.68097051 59.51546329 9.87138564 57.25722872 12 53 C12.99 53 13.98 53 15 53 C18.90075743 42.87660571 18.28171002 32.65281226 18 22 C17.34 22 16.68 22 16 22 C15.731875 20.906875 15.46375 19.81375 15.1875 18.6875 C14.03906639 15.12131141 13.67763374 14.28094726 11 12 C10.13465018 10.96760481 9.2814442 9.92496587 8.4375 8.875 C6.32087701 5.99667845 6.32087701 5.99667845 4 5 C4 4.34 4 3.68 4 3 C2.68 2.67 1.36 2.34 0 2 C0 1.34 0 0.68 0 0 Z " fill="#AF74DD" transform="translate(144,166)"/>
<path d="M0 0 C2.26954631 3.40431947 2.36549949 5.16524202 2.625 9.1875 C2.69976562 10.27417969 2.77453125 11.36085937 2.8515625 12.48046875 C2.90054688 13.31191406 2.94953125 14.14335937 3 15 C0.69 15.99 -1.62 16.98 -4 18 C-4 17.34 -4 16.68 -4 16 C-5.09671021 16.00785522 -5.09671021 16.00785522 -6.21557617 16.01586914 C-9.53954198 16.03670161 -12.86349403 16.04968014 -16.1875 16.0625 C-17.91323242 16.07506836 -17.91323242 16.07506836 -19.67382812 16.08789062 C-20.78564453 16.09111328 -21.89746094 16.09433594 -23.04296875 16.09765625 C-24.06414795 16.10289307 -25.08532715 16.10812988 -26.13745117 16.11352539 C-29 16 -29 16 -34 15 C-34 11.37 -34 7.74 -34 4 C-32 7 -32 7 -31 14 C-20.44 14 -9.88 14 1 14 C0.34 11.03 -0.32 8.06 -1 5 C-0.625 1.9375 -0.625 1.9375 0 0 Z " fill="#B06AE9" transform="translate(340,179)"/>
<path d="M0 0 C0.66 0.33 1.32 0.66 2 1 C-0.92368737 5.38553106 -4.37942735 5.93295505 -9.33203125 7.0390625 C-15.77682658 8.30076367 -22.13925965 8.33049956 -28.6875 8.3125 C-29.87150391 8.32861328 -31.05550781 8.34472656 -32.27539062 8.36132812 C-38.6086238 8.36487615 -43.45841479 8.18544269 -49 5 C-49.66 4.34 -50.32 3.68 -51 3 C-50.00794556 3.21112427 -50.00794556 3.21112427 -48.99584961 3.42651367 C-42.125296 4.79507536 -35.56110172 5.35138767 -28.5625 5.3125 C-27.05743896 5.30839111 -27.05743896 5.30839111 -25.52197266 5.30419922 C-17.22540744 5.18711874 -9.98875351 4.16712616 -2.3203125 0.8359375 C-1.17175781 0.42214844 -1.17175781 0.42214844 0 0 Z " fill="#B97DE6" transform="translate(155,263)"/>
<path d="M0 0 C1.15177734 -0.01224609 2.30355469 -0.02449219 3.49023438 -0.03710938 C10.42867408 -0.04891614 16.82741098 0.49099192 23.5625 2.1875 C23.5625 3.1775 23.5625 4.1675 23.5625 5.1875 C25.5425 5.1875 27.5225 5.1875 29.5625 5.1875 C29.5625 6.1775 29.5625 7.1675 29.5625 8.1875 C28.63630859 7.89746094 28.63630859 7.89746094 27.69140625 7.6015625 C26.84449219 7.34117187 25.99757812 7.08078125 25.125 6.8125 C24.30128906 6.55726563 23.47757813 6.30203125 22.62890625 6.0390625 C14.66739817 3.82809592 7.47360708 2.87156281 -0.8125 2.9375 C-1.77671875 2.92976562 -2.7409375 2.92203125 -3.734375 2.9140625 C-10.49200258 2.93217946 -16.83435722 3.77035031 -23.4375 5.1875 C-23.1075 4.1975 -22.7775 3.2075 -22.4375 2.1875 C-21.48037109 2.09662109 -21.48037109 2.09662109 -20.50390625 2.00390625 C-19.26447266 1.87822266 -19.26447266 1.87822266 -18 1.75 C-17.17628906 1.66878906 -16.35257812 1.58757812 -15.50390625 1.50390625 C-10.39711682 0.72195929 -5.66713035 0.00307829 0 0 Z " fill="#B376E6" transform="translate(127.4375,128.8125)"/>
<path d="M0 0 C16.83 0 33.66 0 51 0 C50.10465799 4.47671006 49.79286001 5.7447884 47.1875 9.0625 C46.65253906 9.74441406 46.11757813 10.42632812 45.56640625 11.12890625 C43.8212985 13.21346139 41.99802376 15.15567037 40 17 C39.34 16.67 38.68 16.34 38 16 C38.73839246 14.55650326 39.49126643 13.12040949 40.25 11.6875 C40.66765625 10.88699219 41.0853125 10.08648437 41.515625 9.26171875 C43.10397703 6.84157184 44.54764566 5.51555498 47 4 C47.66 4 48.32 4 49 4 C49 3.01 49 2.02 49 1 C32.83 1 16.66 1 0 1 C0 0.67 0 0.34 0 0 Z " fill="#A76BDF" transform="translate(256,214)"/>
<path d="M0 0 C4.34159496 0.50483662 7.49408652 1.31900734 11 4 C11 4.99 11 5.98 11 7 C11.515625 7.226875 12.03125 7.45375 12.5625 7.6875 C18.45127833 10.85838064 23.12056147 14.5231456 27 20 C27.6875 22.8125 27.6875 22.8125 28 25 C28.66 25.33 29.32 25.66 30 26 C31.10546875 27.92578125 31.10546875 27.92578125 32.1875 30.3125 C32.55230469 31.09238281 32.91710937 31.87226563 33.29296875 32.67578125 C34.07807525 35.2566562 33.89937661 36.49663962 33 39 C32.52691406 37.96101563 32.05382812 36.92203125 31.56640625 35.8515625 C27.43044259 27.02767896 23.152354 19.78782278 16 13 C15.31808594 12.34515625 14.63617188 11.6903125 13.93359375 11.015625 C10.05646789 7.46475435 6.01341486 4.58471402 1.46875 1.9453125 C0.74171875 1.47738281 0.74171875 1.47738281 0 1 C0 0.67 0 0.34 0 0 Z " fill="#B073E2" transform="translate(158,137)"/>
<path d="M0 0 C1.65 0.33 3.3 0.66 5 1 C5 1.99 5 2.98 5 4 C5.99 4.33 6.98 4.66 8 5 C8 5.66 8 6.32 8 7 C8.66 7 9.32 7 10 7 C10.33 7.99 10.66 8.98 11 10 C10.21625 10.721875 9.4325 11.44375 8.625 12.1875 C6.11423596 14.87760433 5.29682574 16.66530524 4 20 C3.01 20.33 2.02 20.66 1 21 C0.67 21.66 0.34 22.32 0 23 C-1.32 22.67 -2.64 22.34 -4 22 C-0.04 18.04 3.92 14.08 8 10 C6.35 8.02 4.7 6.04 3 4 C3 3.34 3 2.68 3 2 C-1.70478962 5.42166518 -5.27653164 9.57905197 -9 14 C-9.33 13.01 -9.66 12.02 -10 11 C-9.34 11 -8.68 11 -8 11 C-7.34 9.02 -6.68 7.04 -6 5 C-5.01 5 -4.02 5 -3 5 C-3 4.01 -3 3.02 -3 2 C-2.01 2 -1.02 2 0 2 C0 1.34 0 0.68 0 0 Z " fill="#B275E5" transform="translate(140,188)"/>
<path d="M0 0 C0.5775 0.185625 1.155 0.37125 1.75 0.5625 C4.20692525 1.04023546 5.64397534 0.75729364 8 0 C6.01069263 2.57873177 4.02413291 4.97651933 1.6875 7.25 C-1.89062221 10.91133435 -4.89808149 14.93516366 -8 19 C-9.32917292 20.66998649 -10.66014102 22.33857487 -12 24 C-12.64674224 20.64462442 -13.12874481 17.42246621 -13 14 C-10.8125 11.375 -10.8125 11.375 -8 10 C-6.68 10 -5.36 10 -4 10 C-3.67 9.01 -3.34 8.02 -3 7 C-1.70644173 5.62804426 -0.37701298 4.28817344 1 3 C0.67 2.01 0.34 1.02 0 0 Z " fill="#B569EF" transform="translate(224,144)"/>
<path d="M0 0 C0.33 0.99 0.66 1.98 1 3 C0.04504326 4.69287785 -0.9590934 6.35857037 -2 8 C-2.69579454 10.19130534 -2.69579454 10.19130534 -3 12 C-3.66 12 -4.32 12 -5 12 C-5.226875 12.556875 -5.45375 13.11375 -5.6875 13.6875 C-7.3592504 16.63296499 -9.58281215 18.64324185 -12 21 C-12.66 21.99 -13.32 22.98 -14 24 C-14.99 24 -15.98 24 -17 24 C-17 24.66 -17 25.32 -17 26 C-17.66 26 -18.32 26 -19 26 C-19.33 26.99 -19.66 27.98 -20 29 C-23.375 30.75 -23.375 30.75 -27 32 C-27.99 31.67 -28.98 31.34 -30 31 C-29.26136719 30.55011719 -28.52273437 30.10023438 -27.76171875 29.63671875 C-15.49631624 21.85979899 -6.63379047 12.97324894 0 0 Z " fill="#B173E3" transform="translate(188,231)"/>
<path d="M0 0 C2 1 2 1 2.609375 2.55859375 C4.86309395 16.64433716 3.02910078 29.57266279 -5.37890625 41.19921875 C-5.91386719 41.79347656 -6.44882813 42.38773438 -7 43 C-7.66 43 -8.32 43 -9 43 C-9 43.66 -9 44.32 -9 45 C-10.32 44.67 -11.64 44.34 -13 44 C-12.32904297 43.41605469 -12.32904297 43.41605469 -11.64453125 42.8203125 C-4.4313074 36.14538894 0.62266724 27.1593926 1.1484375 17.18359375 C1.22124211 11.36650537 0.88414703 5.74695568 0 0 Z " fill="#F9E4FE" transform="translate(163,186)"/>
<path d="M0 0 C2.83077371 2.83077371 3.22708446 6.15627788 4.125 9.9375 C4.30675781 10.66646484 4.48851562 11.39542969 4.67578125 12.14648438 C5.41168435 15.16479369 6 17.88224375 6 21 C-4.56 21 -15.12 21 -26 21 C-26.33 19.02 -26.66 17.04 -27 15 C-26.01 15.33 -25.02 15.66 -24 16 C-24 16.99 -24 17.98 -24 19 C-10.14 19.495 -10.14 19.495 4 20 C2.68888266 14.9131771 2.68888266 14.9131771 1.3671875 9.82910156 C0.49933385 6.41106685 0 3.5481131 0 0 Z " fill="#F6DAFD" transform="translate(335,172)"/>
<path d="M0 0 C4.3488459 0.50178991 6.89443878 3.09697538 10 6 C10.66666667 7.33333333 11.33333333 8.66666667 12 10 C13.2375 10.61875 13.2375 10.61875 14.5 11.25 C18.25142608 13.87599825 18.20312169 16.58094757 19 21 C19.66 21 20.32 21 21 21 C21.474375 22.11375 21.94875 23.2275 22.4375 24.375 C23.25306463 26.26710994 24.07856355 28.15712709 25 30 C25.039992 31.99960012 25.04346799 34.00047242 25 36 C22.81113471 33.81113471 22.33145586 32.4441625 21.3125 29.5625 C18.13489256 21.38134652 13.5726922 13.88082987 7 8 C4.32820474 5.39033952 2.07429779 3.11144669 0 0 Z " fill="#B172E1" transform="translate(314,144)"/>
<path d="M0 0 C0.9075 0.86625 1.815 1.7325 2.75 2.625 C11.58070038 10.2121936 20.88620497 13.19524516 32.3125 13.0625 C33.05306641 13.05798828 33.79363281 13.05347656 34.55664062 13.04882812 C36.37112899 13.03712175 38.18557534 13.01918898 40 13 C39.67 13.66 39.34 14.32 39 15 C32.07 15 25.14 15 18 15 C18 14.34 18 13.68 18 13 C16.700625 13.12375 16.700625 13.12375 15.375 13.25 C11.12108512 12.93489519 9.35745839 11.58804084 6 9 C5.43539062 8.59136719 4.87078125 8.18273437 4.2890625 7.76171875 C2.625 6.5 2.625 6.5 0 4 C0 2.68 0 1.36 0 0 Z " fill="#FAE8FE" transform="translate(243,224)"/>
<path d="M0 0 C0.66 0.33 1.32 0.66 2 1 C-2.54411996 10.97972939 -7.05494774 19.24586396 -15 27 C-15.60457031 27.639375 -16.20914063 28.27875 -16.83203125 28.9375 C-18.16929942 30.34309574 -19.57707235 31.68118901 -21 33 C-21.66 33 -22.32 33 -23 33 C-23 32.34 -23 31.68 -23 31 C-22.34 31 -21.68 31 -21 31 C-21 30.34 -21 29.68 -21 29 C-19.609375 27.703125 -19.609375 27.703125 -17.75 26.25 C-14.35571094 23.4591401 -12.32312485 20.69979143 -10 17 C-9.34 16.67 -8.68 16.34 -8 16 C-8 15.01 -8 14.02 -8 13 C-7.01 12.34 -6.02 11.68 -5 11 C-3.54943019 8.36569555 -3.54943019 8.36569555 -2.3125 5.375 C-1.87550781 4.37210938 -1.43851563 3.36921875 -0.98828125 2.3359375 C-0.66214844 1.56507813 -0.33601563 0.79421875 0 0 Z " fill="#FAE5FD" transform="translate(190,223)"/>
<path d="M0 0 C0 3.69840628 -0.82866944 4.31415433 -3.25 7 C-4.15492187 8.0209375 -4.15492187 8.0209375 -5.078125 9.0625 C-6.93766612 10.93715934 -8.84794211 12.47641919 -11 14 C-8.03 14.495 -8.03 14.495 -5 15 C-5 15.66 -5 16.32 -5 17 C-2.79154015 16.68839539 -0.58323749 16.37567654 1.625 16.0625 C3.46964844 15.80146484 3.46964844 15.80146484 5.3515625 15.53515625 C8.57556184 15.06225699 11.78812176 14.54848998 15 14 C12.40203378 17.31962351 10.07408763 17.48650025 6 18 C-0.96480054 18.367468 -7.41700313 18.44948721 -14 16 C-12.34136495 11.67495164 -9.128959 8.90581175 -5.875 5.75 C-5.31167969 5.19570312 -4.74835938 4.64140625 -4.16796875 4.0703125 C-2.78313972 2.70895515 -1.39216796 1.35385141 0 0 Z " fill="#AD71DD" transform="translate(127,220)"/>
<path d="M0 0 C4.47915328 -0.02886338 8.95828291 -0.04675187 13.4375 -0.0625 C14.71689453 -0.07087891 15.99628906 -0.07925781 17.31445312 -0.08789062 C19.13686523 -0.09272461 19.13686523 -0.09272461 20.99609375 -0.09765625 C22.12200928 -0.10289307 23.2479248 -0.10812988 24.40795898 -0.11352539 C27 0 27 0 28 1 C29.11375 1.144375 30.2275 1.28875 31.375 1.4375 C35 2 35 2 38 4 C39.22359623 4.71791299 40.45290429 5.42617224 41.6875 6.125 C42.780625 6.74375 43.87375 7.3625 45 8 C43 9 43 9 40.92578125 8.328125 C40.06339844 7.97234375 39.20101562 7.6165625 38.3125 7.25 C25.818066 2.55443247 13.20325616 1.46865903 0 1 C0 0.67 0 0.34 0 0 Z " fill="#AE6EE7" transform="translate(260,129)"/>
<path d="M0 0 C-0.66 1.65 -1.32 3.3 -2 5 C-2.99 5 -3.98 5 -5 5 C-4.34 3.35 -3.68 1.7 -3 0 C-19.83 0 -36.66 0 -54 0 C-54 -0.33 -54 -0.66 -54 -1 C-47.27427654 -1.19409211 -40.54825904 -1.37138027 -33.82177734 -1.53710938 C-31.5345665 -1.59543179 -29.2474496 -1.65757045 -26.96044922 -1.72363281 C-23.66911934 -1.81803862 -20.37769338 -1.89861975 -17.0859375 -1.9765625 C-16.06696381 -2.00875885 -15.04799011 -2.0409552 -13.99813843 -2.0741272 C-8.89693768 -2.18125461 -4.77549998 -2.07292073 0 0 Z " fill="#FBDBFE" transform="translate(310,214)"/>
<path d="M0 0 C0.495 0.99 0.495 0.99 1 2 C-1.1839576 1.47564654 -3.33086876 0.89943674 -5.48046875 0.24609375 C-11.3110685 -1.49551397 -16.89551027 -2.96975601 -23 -2 C-24.67739862 -1.01810813 -26.34467377 -0.01866229 -28 1 C-30.72126502 1.26087315 -33.25720877 1.13946396 -36 1 C-26.52095157 -7.34156262 -10.4477531 -5.55861039 0 0 Z " fill="#B274DF" transform="translate(291,166)"/>
<path d="M0 0 C0.99 0.33 1.98 0.66 3 1 C3 1.66 3 2.32 3 3 C3.66 3 4.32 3 5 3 C5.185625 3.70125 5.37125 4.4025 5.5625 5.125 C8.77331583 11.54663166 13.7795765 14.15045177 20.4375 16.375 C22.28676189 16.93318212 24.13946243 17.48063812 26 18 C26 18.66 26 19.32 26 20 C16.87274647 19.60316289 9.48236951 14.23549155 3.33984375 7.74609375 C1.4942207 5.34086487 0.64576188 2.94180411 0 0 Z " fill="#AF74DD" transform="translate(240,217)"/>
<path d="M0 0 C0.66 0.33 1.32 0.66 2 1 C1.57847656 1.81984375 1.15695313 2.6396875 0.72265625 3.484375 C0.17480469 4.56203125 -0.37304688 5.6396875 -0.9375 6.75 C-1.48277344 7.81734375 -2.02804688 8.8846875 -2.58984375 9.984375 C-4.41989182 13.8979404 -5.12841061 17.02251408 -5.09765625 21.328125 C-5.09443359 22.12734375 -5.09121094 22.9265625 -5.08789062 23.75 C-5.07951172 24.575 -5.07113281 25.4 -5.0625 26.25 C-5.05798828 27.09046875 -5.05347656 27.9309375 -5.04882812 28.796875 C-5.03707961 30.86461401 -5.01914522 32.93231624 -5 35 C-5.66 34.67 -6.32 34.34 -7 34 C-7.08834684 30.68767302 -7.14083584 27.37565565 -7.1875 24.0625 C-7.21263672 23.13630859 -7.23777344 22.21011719 -7.26367188 21.25585938 C-7.33799452 14.19520841 -6.16548765 8.3309753 -3 2 C-2.01 1.34 -1.02 0.68 0 0 Z " fill="#FAE6FC" transform="translate(96,175)"/>
<path d="M0 0 C-0.94101563 0.44730469 -1.88203125 0.89460937 -2.8515625 1.35546875 C-4.10958875 1.96570537 -5.36738929 2.57640747 -6.625 3.1875 C-7.24246094 3.47947266 -7.85992187 3.77144531 -8.49609375 4.07226562 C-11.77384419 5.67663821 -14.56435793 7.35000524 -17.3359375 9.73828125 C-20 12 -20 12 -22 12 C-21.67 11.01 -21.34 10.02 -21 9 C-20.34 9 -19.68 9 -19 9 C-19.66 7.35 -20.32 5.7 -21 4 C-19.68 3.67 -18.36 3.34 -17 3 C-17 3.66 -17 4.32 -17 5 C-16.2575 4.690625 -15.515 4.38125 -14.75 4.0625 C-12.49307824 3.1905075 -10.3549847 2.52332993 -8 2 C-8 1.34 -8 0.68 -8 0 C-4.90645403 -0.99435406 -3.09720845 -0.87840996 0 0 Z " fill="#AF71E6" transform="translate(104,135)"/>
<path d="M0 0 C0 2 0 2 -1.8125 3.9375 C-2.534375 4.618125 -3.25625 5.29875 -4 6 C-4.7734375 6.86625 -4.7734375 6.86625 -5.5625 7.75 C-7 9 -7 9 -10 9 C-10.33 11.31 -10.66 13.62 -11 16 C-12.32 16 -13.64 16 -15 16 C-13.72969466 9.64847329 -9.68797776 6.12170718 -5 2 C-2 0 -2 0 0 0 Z " fill="#B172E3" transform="translate(255,167)"/>
<path d="M0 0 C1.2065625 0.0309375 1.2065625 0.0309375 2.4375 0.0625 C1.756875 0.578125 1.07625 1.09375 0.375 1.625 C-5.86743376 6.80489184 -10.12398096 11.36486772 -13.51953125 18.828125 C-14.5625 21.0625 -14.5625 21.0625 -16.5625 24.0625 C-17.09412107 18.03999271 -15.91017794 15.32825715 -12.1875 10.625 C-11.775 10.08423828 -11.3625 9.54347656 -10.9375 8.98632812 C-9.87322271 7.62851629 -8.72341695 6.33867043 -7.5625 5.0625 C-6.9025 5.0625 -6.2425 5.0625 -5.5625 5.0625 C-5.253125 4.423125 -4.94375 3.78375 -4.625 3.125 C-3.05351796 0.07447605 -3.05351796 0.07447605 0 0 Z " fill="#FBE9FD" transform="translate(252.5625,165.9375)"/>
<path d="M0 0 C0.71285156 0.13277344 1.42570312 0.26554687 2.16015625 0.40234375 C3.11792969 0.57894531 4.07570313 0.75554687 5.0625 0.9375 C6.47208984 1.19853516 6.47208984 1.19853516 7.91015625 1.46484375 C14.42924257 2.59393961 20.83811923 3.23811464 27.4375 3.5625 C28.67790039 3.62727539 28.67790039 3.62727539 29.94335938 3.69335938 C31.96209549 3.79838033 33.98102951 3.89958559 36 4 C36 4.33 36 4.66 36 5 C31.64596135 5.08755672 27.29215123 5.14057969 22.9375 5.1875 C21.09381836 5.22520508 21.09381836 5.22520508 19.21289062 5.26367188 C12.7175052 5.31619521 7.67102427 5.3221745 2 2 C1.34 1.34 0.68 0.68 0 0 Z " fill="#AC6DE6" transform="translate(104,266)"/>
<path d="M0 0 C0 3.46924732 -0.37491821 3.75856556 -2.625 6.1875 C-4.95458184 8.81175448 -7.25051309 11.44224243 -9.4375 14.1875 C-9.95183594 14.82042969 -10.46617188 15.45335937 -10.99609375 16.10546875 C-12.23031283 17.98010853 -12.23031283 17.98010853 -11.66015625 20.23828125 C-11.44230469 20.81964844 -11.22445312 21.40101563 -11 22 C-12.65 20.68 -14.3 19.36 -16 18 C-15.505 16.515 -15.505 16.515 -15 15 C-14.34 15 -13.68 15 -13 15 C-12.78601563 14.45859375 -12.57203125 13.9171875 -12.3515625 13.359375 C-10.51922057 10.1607203 -8.00203394 7.79035516 -5.375 5.25 C-4.859375 4.74339844 -4.34375 4.23679688 -3.8125 3.71484375 C-2.54616661 2.47196098 -1.2736856 1.23534724 0 0 Z " fill="#F4DEFC" transform="translate(98,234)"/>
<path d="M0 0 C0.66 0.66 1.32 1.32 2 2 C1.06027344 2.09087891 1.06027344 2.09087891 0.1015625 2.18359375 C-0.71570313 2.26738281 -1.53296875 2.35117188 -2.375 2.4375 C-3.18710938 2.51871094 -3.99921875 2.59992188 -4.8359375 2.68359375 C-7.04272805 2.89090114 -7.04272805 2.89090114 -9 4 C-9.66 3.34 -10.32 2.68 -11 2 C-10.34 2 -9.68 2 -9 2 C-9.33 1.34 -9.66 0.68 -10 0 C-15.45769811 -0.11138159 -20.61509359 0.08342019 -26 1 C-25 -1 -25 -1 -23.328125 -1.61328125 C-15.5584904 -2.90387492 -7.45142561 -2.53067285 0 0 Z " fill="#B16EE3" transform="translate(141,164)"/>
<path d="M0 0 C0.66 0.33 1.32 0.66 2 1 C-4.6 7.6 -11.2 14.2 -18 21 C-18 17.47967572 -17.29648649 16.5614657 -15 14 C-14.34 14 -13.68 14 -13 14 C-13 13.01 -13 12.02 -13 11 C-12.34 11 -11.68 11 -11 11 C-11 10.34 -11 9.68 -11 9 C-9.824375 8.319375 -9.824375 8.319375 -8.625 7.625 C-5.76321538 5.85341905 -5.40585857 4.90544105 -4 2 C-2 0.6875 -2 0.6875 0 0 Z " fill="#B072DB" transform="translate(120,210)"/>
<path d="M0 0 C2 3 2 3 3 10 C12.9 10 22.8 10 33 10 C33 10.33 33 10.66 33 11 C22.11 11 11.22 11 0 11 C0 7.37 0 3.74 0 0 Z " fill="#AB74D7" transform="translate(306,183)"/>
<path d="M0 0 C0.66 0.66 1.32 1.32 2 2 C1.360625 2.5775 0.72125 3.155 0.0625 3.75 C-1.98223868 5.98062401 -2.58205199 7.07436391 -3 10 C-3.66 10 -4.32 10 -5 10 C-5.33 10.66 -5.66 11.32 -6 12 C-7.32 12 -8.64 12 -10 12 C-10 12.66 -10 13.32 -10 14 C-11.65 14.66 -13.3 15.32 -15 16 C-10.30233025 10.33870569 -5.25276628 5.14771096 0 0 Z " fill="#AE68E4" transform="translate(93,225)"/>
<path d="M0 0 C0.66 0.33 1.32 0.66 2 1 C-1.28157862 6.17609824 -4.45924219 10.85989729 -9 15 C-9.66 14.67 -10.32 14.34 -11 14 C-10.26160754 12.55650326 -9.50873357 11.12040949 -8.75 9.6875 C-8.12351562 8.48673828 -8.12351562 8.48673828 -7.484375 7.26171875 C-5.89602297 4.84157184 -4.45235434 3.51555498 -2 2 C-1.34 2 -0.68 2 0 2 C0 1.34 0 0.68 0 0 Z " fill="#B377E4" transform="translate(305,216)"/>
<path d="M0 0 C0.33 1.32 0.66 2.64 1 4 C0.34 4 -0.32 4 -1 4 C-1.2475 4.53625 -1.495 5.0725 -1.75 5.625 C-2.1625 6.40875 -2.575 7.1925 -3 8 C-3.474375 8.9075 -3.94875 9.815 -4.4375 10.75 C-7.71067223 15.67871494 -13.1883849 18.73142008 -18 22 C-18.66 21.67 -19.32 21.34 -20 21 C-19.45472656 20.62230469 -18.90945313 20.24460937 -18.34765625 19.85546875 C-10.84507706 14.37922719 -5.14210628 7.71315941 0 0 Z " fill="#B67EDF" transform="translate(330,237)"/>
<path d="M0 0 C0 3.86695678 -1.41909971 6.5088452 -3 10 C-3.66 10 -4.32 10 -5 10 C-5.61488281 11.28197266 -5.61488281 11.28197266 -6.2421875 12.58984375 C-7.05042969 14.24693359 -7.05042969 14.24693359 -7.875 15.9375 C-8.40867188 17.03964844 -8.94234375 18.14179688 -9.4921875 19.27734375 C-11 22 -11 22 -13 23 C-10.61027765 14.42511393 -6.65126635 6.12403182 0 0 Z " fill="#F9E3FD" transform="translate(222,154)"/>
<path d="M0 0 C5.09593044 2.47075415 8.74336862 6.43896519 12 11 C12.703125 13.25390625 12.703125 13.25390625 13 15 C8.125 12.375 8.125 12.375 7 9 C6.01 9.495 6.01 9.495 5 10 C1.125 3.375 1.125 3.375 0 0 Z " fill="#B278E1" transform="translate(293,168)"/>
<path d="M0 0 C5 7.5 5 7.5 5 12 C4.34 12 3.68 12 3 12 C2.71125 12.639375 2.4225 13.27875 2.125 13.9375 C1 16 1 16 -1 17 C-0.89171875 15.91332031 -0.89171875 15.91332031 -0.78125 14.8046875 C-0.30592078 9.85334145 0.13461998 4.98093926 0 0 Z " fill="#F6E0FC" transform="translate(91,211)"/>
<path d="M0 0 C-10.94803398 4.01201245 -21.58339169 2.91608816 -33 2 C-33 1.67 -33 1.34 -33 1 C-32.16190796 0.96241577 -32.16190796 0.96241577 -31.30688477 0.92407227 C-28.72527572 0.80656895 -26.14389764 0.6845562 -23.5625 0.5625 C-22.68400391 0.52318359 -21.80550781 0.48386719 -20.90039062 0.44335938 C-15.88720606 0.20287451 -10.95782541 -0.18689758 -5.98803711 -0.89868164 C-3.79801168 -1.01029414 -2.09032705 -0.6292923 0 0 Z " fill="#AD65EE" transform="translate(295,269)"/>
<path d="M0 0 C0.66 0 1.32 0 2 0 C2 0.66 2 1.32 2 2 C2.58523438 2.27070313 3.17046875 2.54140625 3.7734375 2.8203125 C5.98379242 3.99141283 7.72285264 5.25775577 9.625 6.875 C10.51058594 7.61363281 10.51058594 7.61363281 11.4140625 8.3671875 C13.11805842 10.12154783 14.02510387 11.77028708 15 14 C14.01 14 13.02 14 12 14 C10.421875 12.390625 10.421875 12.390625 8.75 10.25 C5.49842628 6.33979194 2.54541022 4.22632337 -2 2 C-1.34 1.34 -0.68 0.68 0 0 Z " fill="#FBE9FD" transform="translate(291,164)"/>
<path d="M0 0 C0.99 0.33 1.98 0.66 3 1 C3 1.99 3 2.98 3 4 C15.87 4.495 15.87 4.495 29 5 C29 5.33 29 5.66 29 6 C19.76 6 10.52 6 1 6 C0.67 4.02 0.34 2.04 0 0 Z " fill="#FBE5FE" transform="translate(308,187)"/>
<path d="M0 0 C1.02444688 3.17578534 1.12311432 3.73698304 -0.375 6.9375 C-0.91125 7.948125 -1.4475 8.95875 -2 10 C-2.144375 10.9075 -2.28875 11.815 -2.4375 12.75 C-3 15 -3 15 -5.0625 16.3125 C-6.0215625 16.6528125 -6.0215625 16.6528125 -7 17 C-6.46105575 12.40191871 -5.23428472 9.13215631 -2.9375 5.125 C-2.38964844 4.15820312 -1.84179688 3.19140625 -1.27734375 2.1953125 C-0.85582031 1.47085938 -0.43429688 0.74640625 0 0 Z " fill="#F5E1FD" transform="translate(70,161)"/>
<path d="M0 0 C0.9075 0.53625 1.815 1.0725 2.75 1.625 C8.04107459 4.65782214 13.53122114 7.30602027 19 10 C15.75784173 11.08557659 13.97678191 10.94015194 10.8125 9.6875 C9.77029297 9.29111328 9.77029297 9.29111328 8.70703125 8.88671875 C7 8 7 8 6 6 C4.7625 5.566875 4.7625 5.566875 3.5 5.125 C1 4 1 4 0.1875 1.875 C0.125625 1.25625 0.06375 0.6375 0 0 Z " fill="#AF71E5" transform="translate(85,255)"/>
<path d="M0 0 C0.66 1.32 1.32 2.64 2 4 C1.02727325 5.35335895 0.0260734 6.68662604 -1 8 C-1.33 8 -1.66 8 -2 8 C-2.33 8.66 -2.66 9.32 -3 10 C-4.32 9.67 -5.64 9.34 -7 9 C-6.82374165 6.62051228 -6.30280227 5.29774151 -4.59765625 3.62109375 C-3.09350908 2.37884514 -1.54870149 1.18623944 0 0 Z " fill="#B06BF3" transform="translate(135,212)"/>
<path d="M0 0 C0.99 0.33 1.98 0.66 3 1 C2.50628906 1.48210937 2.01257813 1.96421875 1.50390625 2.4609375 C0.86324219 3.09257812 0.22257812 3.72421875 -0.4375 4.375 C-1.07558594 5.00148437 -1.71367188 5.62796875 -2.37109375 6.2734375 C-4.07882176 7.91723061 -4.07882176 7.91723061 -5 10 C-2.69 10.33 -0.38 10.66 2 11 C2 11.66 2 12.32 2 13 C-3.75 12.125 -3.75 12.125 -6 11 C-6.36625971 6.48279689 -6.36625971 6.48279689 -4.625 4.1875 C-3 3 -3 3 -1 3 C-0.67 2.01 -0.34 1.02 0 0 Z " fill="#F6E1FE" transform="translate(118,226)"/>
<path d="M0 0 C0.5775 0.185625 1.155 0.37125 1.75 0.5625 C4.20692525 1.04023546 5.64397534 0.75729364 8 0 C4.4477529 4.60476476 0.86197295 8.7586847 -4 12 C-3.5206753 7.68607774 -2.2542015 5.83430453 1 3 C0.67 2.01 0.34 1.02 0 0 Z " fill="#B16EE6" transform="translate(224,144)"/>
<path d="M0 0 C2 2 2 2 2 5 C0.4375 6.75 0.4375 6.75 -2 8 C-5.75 7.6875 -5.75 7.6875 -9 7 C-7.8125 5.5 -7.8125 5.5 -6 4 C-3.3125 3.8125 -3.3125 3.8125 -1 4 C-0.67 2.68 -0.34 1.36 0 0 Z " fill="#B861F1" transform="translate(308,262)"/>
<path d="M0 0 C2.2477975 2.05233685 3.0022242 3.00667261 4 6 C4.66 6.33 5.32 6.66 6 7 C6.66 6.34 7.32 5.68 8 5 C8.66 5.66 9.32 6.32 10 7 C8.35 8.32 6.7 9.64 5 11 C3.96680187 9.7391988 2.94875621 8.46596742 1.9375 7.1875 C1.08478516 6.12595703 1.08478516 6.12595703 0.21484375 5.04296875 C-0.18605469 4.36878906 -0.58695312 3.69460937 -1 3 C-0.67 2.01 -0.34 1.02 0 0 Z " fill="#F8E1FD" transform="translate(69,233)"/>
<path d="M0 0 C0.33 0 0.66 0 1 0 C1.39458375 3.24793427 1.76221514 6.49837271 2.125 9.75 C2.23714844 10.67039063 2.34929688 11.59078125 2.46484375 12.5390625 C2.56152344 13.42851562 2.65820312 14.31796875 2.7578125 15.234375 C2.8520752 16.05131836 2.94633789 16.86826172 3.04345703 17.70996094 C2.99400057 20.31614982 2.32265551 21.782214 1 24 C0.13036913 21.00293305 -0.11763099 18.35043474 -0.09765625 15.234375 C-0.09443359 14.34492188 -0.09121094 13.45546875 -0.08789062 12.5390625 C-0.07532227 11.15847656 -0.07532227 11.15847656 -0.0625 9.75 C-0.05798828 8.81414062 -0.05347656 7.87828125 -0.04882812 6.9140625 C-0.03706918 4.60930959 -0.02063426 2.30468773 0 0 Z " fill="#F6D8FE" transform="translate(59,190)"/>
<path d="M0 0 C0.33 0.66 0.66 1.32 1 2 C0.29296875 3.69921875 0.29296875 3.69921875 -0.8125 5.6875 C-2.78090086 9.41315838 -3.97972401 12.91889605 -5 17 C-5.33 17 -5.66 17 -6 17 C-6.19294408 12.17639811 -5.75747614 8.50353262 -4 4 C-3.34 4 -2.68 4 -2 4 C-2 3.01 -2 2.02 -2 1 C-1.34 0.67 -0.68 0.34 0 0 Z " fill="#B06EE6" transform="translate(67,164)"/>
<path d="M0 0 C1.11761719 0.0009668 1.11761719 0.0009668 2.2578125 0.00195312 C3.41023438 0.02612305 3.41023438 0.02612305 4.5859375 0.05078125 C5.36195313 0.04755859 6.13796875 0.04433594 6.9375 0.04101562 C12.69363497 0.09597872 12.69363497 0.09597872 14.9609375 2.36328125 C13.9609375 3.36328125 13.9609375 3.36328125 11.82788086 3.47680664 C10.91143799 3.47156982 9.99499512 3.46633301 9.05078125 3.4609375 C8.06142578 3.45771484 7.07207031 3.45449219 6.05273438 3.45117188 C5.01181641 3.44279297 3.97089844 3.43441406 2.8984375 3.42578125 C1.85365234 3.42126953 0.80886719 3.41675781 -0.26757812 3.41210938 C-2.8581291 3.40028038 -5.44856809 3.38379814 -8.0390625 3.36328125 C-5.29283821 1.04176641 -3.61361326 -0.01587553 0 0 Z " fill="#F8E2FE" transform="translate(124.0390625,159.63671875)"/>
<path d="M0 0 C-3.75 4.875 -3.75 4.875 -6 6 C-6 5.01 -6 4.02 -6 3 C-7.98 3.33 -9.96 3.66 -12 4 C-8.15336308 0.86570325 -4.95471579 -1.65157193 0 0 Z " fill="#F8E8FB" transform="translate(107,135)"/>
<path d="M0 0 C2.6875 -0.3125 2.6875 -0.3125 5 0 C4.06725891 1.12894876 3.12859878 2.25300876 2.1875 3.375 C1.66542969 4.00148437 1.14335938 4.62796875 0.60546875 5.2734375 C-1 7 -1 7 -4 9 C-3.35177251 5.49957156 -2.19256847 2.8190166 0 0 Z " fill="#F8E5FE" transform="translate(85,228)"/>
<path d="M0 0 C-1.1427919 1.16964602 -2.28931715 2.33564556 -3.4375 3.5 C-4.07558594 4.1496875 -4.71367188 4.799375 -5.37109375 5.46875 C-7 7 -7 7 -8 7 C-8.25 4.6875 -8.25 4.6875 -8 2 C-5.17904206 -1.02245494 -3.81217262 -1.16927984 0 0 Z " fill="#B475E2" transform="translate(130,203)"/>
<path d="M0 0 C3.2531655 3.74114033 5.44374911 8.31315138 7 13 C6.67 13.66 6.34 14.32 6 15 C5.34 14.34 4.68 13.68 4 13 C4 12.01 4 11.02 4 10 C3.34 10 2.68 10 2 10 C0.68373308 6.38026598 0 3.90432869 0 0 Z " fill="#F9E5FD" transform="translate(185,163)"/>
<path d="M0 0 C0.66 0.33 1.32 0.66 2 1 C-1.87203321 4.40269585 -6.60896963 8 -12 8 C-12 7.34 -12 6.68 -12 6 C-11.21753906 5.65066406 -10.43507813 5.30132812 -9.62890625 4.94140625 C-8.61699219 4.48636719 -7.60507812 4.03132813 -6.5625 3.5625 C-5.55316406 3.11003906 -4.54382813 2.65757812 -3.50390625 2.19140625 C-1.1139529 1.22551798 -1.1139529 1.22551798 0 0 Z " fill="#AD6CEA" transform="translate(314,256)"/>
<path d="M0 0 C4.43476564 0.70022615 5.85246408 1.85246408 9 5 C8.67 5.66 8.34 6.32 8 7 C4.66272214 5.82744291 2.22562513 4.81131596 0 2 C0 1.34 0 0.68 0 0 Z " fill="#F8FAF2" transform="translate(295,165)"/>
<path d="M0 0 C3.32643967 2.98232523 5.29152862 5.86370087 7 10 C6.67 10.66 6.34 11.32 6 12 C3.37591634 9.62582907 1.61386598 7.15088121 0 4 C0 2.68 0 1.36 0 0 Z " fill="#F8E2FE" transform="translate(328,160)"/>
<path d="M0 0 C5.52628901 1.19194469 8.17819158 2.5991297 12 7 C8.38862487 7 7.25267809 6.07469918 4.3125 4.0625 C3.50425781 3.51722656 2.69601563 2.97195313 1.86328125 2.41015625 C1.24839844 1.94480469 0.63351563 1.47945312 0 1 C0 0.67 0 0.34 0 0 Z " fill="#F4E0FC" transform="translate(231,254)"/>
<path d="M0 0 C0.66 0.99 1.32 1.98 2 3 C1.34 3 0.68 3 0 3 C-0.2475 3.61875 -0.495 4.2375 -0.75 4.875 C-2.22246063 7.37818306 -3.41028837 7.83045281 -6 9 C-6.33 9.66 -6.66 10.32 -7 11 C-7 7.22089522 -6.00296038 6.53893899 -3.5 3.8125 C-2.8503125 3.09707031 -2.200625 2.38164062 -1.53125 1.64453125 C-1.0259375 1.10183594 -0.520625 0.55914062 0 0 Z " fill="#F9E5FA" transform="translate(138,193)"/>
<path d="M0 0 C1.65 1.32 3.3 2.64 5 4 C5.99 3.34 6.98 2.68 8 2 C7.67 3.32 7.34 4.64 7 6 C5.1875 6.625 5.1875 6.625 3 7 C2.01 6.34 1.02 5.68 0 5 C-0.1875 2.375 -0.1875 2.375 0 0 Z " fill="#AE6DE0" transform="translate(70,239)"/>
<path d="M0 0 C0.66 0.33 1.32 0.66 2 1 C0.68 2.32 -0.64 3.64 -2 5 C-2.66 4.67 -3.32 4.34 -4 4 C-2.68 2.68 -1.36 1.36 0 0 Z M-6 5 C-5.34 5 -4.68 5 -4 5 C-4 5.99 -4 6.98 -4 8 C-5.65 8.66 -7.3 9.32 -9 10 C-7.125 6.125 -7.125 6.125 -6 5 Z " fill="#F6DEFD" transform="translate(232,144)"/>
<path d="M0 0 C0.66 0.33 1.32 0.66 2 1 C1.25 2.9375 1.25 2.9375 0 5 C-1.8125 5.6875 -1.8125 5.6875 -4 6 C-4.9075 6.185625 -5.815 6.37125 -6.75 6.5625 C-7.4925 6.706875 -8.235 6.85125 -9 7 C-6.3765992 4.08511023 -3.28183606 2.11496102 0 0 Z " fill="#F9E7FD" transform="translate(243,137)"/>
<path d="M0 0 C1.32 0.66 2.64 1.32 4 2 C4.33 1.34 4.66 0.68 5 0 C5 0.99 5 1.98 5 3 C2.69 4.32 0.38 5.64 -2 7 C-1.34 4.69 -0.68 2.38 0 0 Z " fill="#F7E7F9" transform="translate(314,249)"/>
<path d="M0 0 C0.33 0.99 0.66 1.98 1 3 C-5.625 5 -5.625 5 -9 5 C-4.32258065 0 -4.32258065 0 0 0 Z " fill="#F4E9F9" transform="translate(108,228)"/>
<path d="M0 0 C3.33523252 1.38009621 5.18607951 2.84950652 7 6 C6.67 6.99 6.34 7.98 6 9 C3.69 6.69 1.38 4.38 -1 2 C-0.67 1.34 -0.34 0.68 0 0 Z " fill="#F6DFFD" transform="translate(150,167)"/>
<path d="M0 0 C0.99 0 1.98 0 3 0 C2.75 3.375 2.75 3.375 2 7 C-0.0625 8.4375 -0.0625 8.4375 -2 9 C-1.67 8.01 -1.34 7.02 -1 6 C-0.34 6 0.32 6 1 6 C0.34 4.35 -0.32 2.7 -1 1 C-0.67 0.67 -0.34 0.34 0 0 Z " fill="#B568EA" transform="translate(84,138)"/>
<path d="M0 0 C0.66 0.66 1.32 1.32 2 2 C0.71937515 3.7074998 -0.61767557 5.37373596 -2 7 C-2.66 7 -3.32 7 -4 7 C-4 7.66 -4 8.32 -4 9 C-4.99 8.67 -5.98 8.34 -7 8 C-4.69 5.36 -2.38 2.72 0 0 Z " fill="#FCEAFE" transform="translate(304,221)"/>
<path d="M0 0 C1.69433918 3.0469629 2.49467112 5.82821466 3.125 9.25 C3.29257812 10.14203125 3.46015625 11.0340625 3.6328125 11.953125 C3.75398438 12.62859375 3.87515625 13.3040625 4 14 C1.41652978 12.70826489 1.05063908 11.65913963 0 9 C-0.1953125 6.640625 -0.1953125 6.640625 -0.125 4.25 C-0.10695312 3.45078125 -0.08890625 2.6515625 -0.0703125 1.828125 C-0.04710937 1.22484375 -0.02390625 0.6215625 0 0 Z " fill="#B27AE6" transform="translate(59,210)"/>
<path d="M0 0 C0.66 0.33 1.32 0.66 2 1 C-0.31 3.97 -2.62 6.94 -5 10 C-5.33 9.34 -5.66 8.68 -6 8 C-4.40382422 4.16917814 -3.50015029 2.33343353 0 0 Z " fill="#B277DD" transform="translate(74,154)"/>
<path d="M0 0 C3.98175544 2.10148204 6.35039045 4.36905358 9 8 C6.03824877 7.38722388 4.61941217 6.74627478 2 5 C2 4.34 2 3.68 2 3 C1.34 3 0.68 3 0 3 C0 2.01 0 1.02 0 0 Z " fill="#F5DEFC" transform="translate(315,146)"/>
<path d="M0 0 C1.21236328 0.02707031 1.21236328 0.02707031 2.44921875 0.0546875 C3.37154297 0.08949219 3.37154297 0.08949219 4.3125 0.125 C3.673125 0.434375 3.03375 0.74375 2.375 1.0625 C0.37639179 1.9595163 0.37639179 1.9595163 -0.6875 3.125 C-3.02694736 2.83769945 -5.3614143 2.50563221 -7.6875 2.125 C-4.48369983 -0.01086678 -3.66810033 -0.10632175 0 0 Z " fill="#F7E1FD" transform="translate(265.6875,130.875)"/>
<path d="M0 0 C0.66 0.33 1.32 0.66 2 1 C2.625 3.5625 2.625 3.5625 3 6 C1.33333333 6 -0.33333333 6 -2 6 C-1.125 1.125 -1.125 1.125 0 0 Z " fill="#B961FC" transform="translate(88,234)"/>
<path d="M0 0 C0.66 0 1.32 0 2 0 C3.5078125 1.75 3.5078125 1.75 5.125 4 C5.66382813 4.7425 6.20265625 5.485 6.7578125 6.25 C7.16773438 6.8275 7.57765625 7.405 8 8 C7.01 8.66 6.02 9.32 5 10 C4.62875 8.88625 4.62875 8.88625 4.25 7.75 C2.90852699 4.79875938 1.39094474 3.15185026 -1 1 C-0.67 0.67 -0.34 0.34 0 0 Z " fill="#F8DAFE" transform="translate(141,190)"/>
<path d="M0 0 C4.34464536 0.60825035 8.67551867 1.26167392 13 2 C13 2.99 13 3.98 13 5 C11.39402675 4.54803755 9.79027492 4.08817673 8.1875 3.625 C6.84751953 3.24214844 6.84751953 3.24214844 5.48046875 2.8515625 C3 2 3 2 0 0 Z " fill="#B576E0" transform="translate(144,132)"/>
<path d="M0 0 C-2.64 1.65 -5.28 3.3 -8 5 C-8 3.68 -8 2.36 -8 1 C-3.375 -1.125 -3.375 -1.125 0 0 Z " fill="#F8E4FD" transform="translate(312,257)"/>
<path d="M0 0 C2.4375 1.1875 2.4375 1.1875 5 3 C5.8125 5.6875 5.8125 5.6875 6 8 C5.67 7.01 5.34 6.02 5 5 C3.35 4.67 1.7 4.34 0 4 C0 2.68 0 1.36 0 0 Z " fill="#B364F2" transform="translate(300,179)"/>
<path d="M0 0 C3.29148243 1.13499394 3.9959869 1.99283376 5.75 5.125 C6.1625 6.07375 6.575 7.0225 7 8 C6.34 8.66 5.68 9.32 5 10 C1.125 3.375 1.125 3.375 0 0 Z " fill="#B170EB" transform="translate(293,168)"/>
<path d="M0 0 C2.97 0.33 5.94 0.66 9 1 C9.33 1.99 9.66 2.98 10 4 C6.7 3.01 3.4 2.02 0 1 C0 0.67 0 0.34 0 0 Z " fill="#F6DEFD" transform="translate(99,263)"/>
<path d="M0 0 C0.99 0.33 1.98 0.66 3 1 C1.35 2.98 -0.3 4.96 -2 7 C-2.66 6.67 -3.32 6.34 -4 6 C-2.68 4.02 -1.36 2.04 0 0 Z " fill="#AA6BE6" transform="translate(180,244)"/>
<path d="M0 0 C3.16115776 1.36983503 3.9927092 1.9890638 6 5 C5.67 5.99 5.34 6.98 5 8 C4.16382818 6.8562364 3.33113541 5.70992861 2.5 4.5625 C2.0359375 3.92441406 1.571875 3.28632813 1.09375 2.62890625 C0 1 0 1 0 0 Z " fill="#FAE4FE" transform="translate(218,240)"/>
<path d="M0 0 C0.99 0.33 1.98 0.66 3 1 C2.34 2.65 1.68 4.3 1 6 C0.01 6 -0.98 6 -2 6 C-1.34 4.02 -0.68 2.04 0 0 Z " fill="#F8E8FB" transform="translate(307,213)"/>
<path d="M0 0 C0.66 0.33 1.32 0.66 2 1 C1.1875 2.9375 1.1875 2.9375 0 5 C-0.99 5.33 -1.98 5.66 -3 6 C-3.66 5.34 -4.32 4.68 -5 4 C-3.35 2.68 -1.7 1.36 0 0 Z " fill="#F5DEFB" transform="translate(86,144)"/>
</svg>
