<svg width="128" height="128" viewBox="0 0 128 128" fill="none" xmlns="http://www.w3.org/2000/svg">
<rect width="128" height="128" rx="64" fill="#4C67EF"/>
<path d="M95.9991 34.6153L95.9966 21.7598L87.3332 31.2543C87.231 31.3665 83.1386 35.8495 77.9296 41.5616C77.6006 40.1006 77.1271 38.6594 76.509 37.2582C74.0042 31.5734 69.4357 27.2052 63.646 24.9587C57.8563 22.7122 51.5383 22.8543 45.8557 25.3626C40.1732 27.8684 35.8066 32.4386 33.561 38.2306C32.2251 41.6738 32.0332 45.0224 32.0233 47.8448C31.9934 55.392 32.0008 93.3228 32.0008 93.7043L32.0033 106.56L40.6667 97.0652C40.7689 96.953 44.8613 92.4701 50.0703 86.7579C50.3993 88.219 50.8728 89.6601 51.4909 91.0614C53.9957 96.7461 58.5667 101.114 64.3564 103.361C67.0855 104.421 69.9292 104.949 72.773 104.947C75.9607 104.947 79.1434 104.281 82.1467 102.957C87.8292 100.451 92.1958 95.8809 94.4414 90.089C95.7772 86.6457 95.9667 83.2947 95.9791 80.4723C96.0065 72.9275 95.9991 34.9968 95.9991 34.6153ZM41.9926 47.8822C42.0001 45.8776 42.1098 43.7582 42.855 41.8359C44.1385 38.5273 46.6309 35.9168 49.8759 34.4856C51.5931 33.7277 53.41 33.3487 55.2294 33.3487C56.8519 33.3487 58.4769 33.6504 60.0371 34.2562C63.3445 35.5403 65.9539 38.0336 67.3845 41.2824C68.8151 44.5287 68.8974 48.139 67.6138 51.4476C66.8611 53.3874 65.4555 55.0854 64.1794 56.4891C61.1412 59.8326 49.9955 72.0474 41.9677 80.8488C41.9702 68.998 41.9752 52.5646 41.9926 47.8822ZM86.0073 80.4374C85.9998 82.442 85.8901 84.5613 85.1449 86.4836C83.8614 89.7923 81.369 92.4028 78.124 93.8339C74.879 95.2651 71.2701 95.3474 67.9628 94.0633C64.6554 92.7792 62.046 90.2859 60.6154 87.0372C59.1848 83.7909 59.1025 80.1805 60.3861 76.8719C61.1387 74.9321 62.5444 73.2342 63.8205 71.8304C66.8587 68.4869 78.0044 56.2722 86.0322 47.4708C86.0297 59.3215 86.0272 75.7549 86.0073 80.4374Z" fill="white"/>
</svg>
