<svg xmlns="http://www.w3.org/2000/svg" viewBox="0 0 400 400">
  <circle cx="200" cy="200" r="200" fill="#000"/>
  <path d="m231.59,251.51v24.05c-12.65-.84-22.71-6.47-31.59-15.27-8.72,8.66-18.65,14.26-31.16,15.25v-24.1c1.39-.49,2.79-.96,4.16-1.48,8.82-3.36,14.77-11.69,14.81-21.16.08-19.17.08-38.33,0-57.5-.04-9.46-5.98-17.84-14.78-21.19-1.37-.52-2.77-.98-4.31-1.52v-24.03c12.44.78,22.41,6.48,31.28,15.21,8.83-8.82,18.94-14.35,31.57-15.33v23.98c-1.15.44-2.49.99-3.86,1.47-9.38,3.28-15.5,11.64-15.53,21.63-.07,18.5.2,37-.12,55.49-.16,9.74,5.56,20.43,17.01,23.67.78.22,1.55.51,2.51.83Z" fill="#fff"/>
</svg>