<?xml version="1.0" encoding="UTF-8"?>
<svg id="Layer_2" data-name="Layer 2" xmlns="http://www.w3.org/2000/svg" xmlns:xlink="http://www.w3.org/1999/xlink" viewBox="0 0 400 400">
  <defs>
    <style>
      .cls-1, .cls-2, .cls-3 {
        stroke-width: 0px;
      }

      .cls-2 {
        fill: none;
      }

      .cls-3 {
        fill: #fff;
      }

      .cls-4 {
        clip-path: url(#clippath);
      }
    </style>
    <clipPath id="clippath">
      <circle class="cls-2" cx="200" cy="200" r="200"/>
    </clipPath>
  </defs>
  <g id="OBJECTS">
    <g class="cls-4">
      <g>
        <path class="cls-1" d="m0,400.03V.03h400v400H0Zm231.59-148.52c-.96-.32-1.73-.61-2.51-.83-11.45-3.24-17.18-13.93-17.01-23.67.31-18.49.05-37,.12-55.49.04-9.98,6.15-18.35,15.53-21.63,1.37-.48,2.71-1.03,3.86-1.47v-23.98c-12.62.98-22.74,6.51-31.57,15.33-8.87-8.73-18.84-14.43-31.28-15.21v24.03c1.53.54,2.93,1,4.31,1.52,8.79,3.35,14.74,11.73,14.78,21.19.07,19.17.08,38.33,0,57.5-.04,9.47-5.99,17.81-14.81,21.16-1.37.52-2.77.99-4.16,1.48v24.1c12.52-.99,22.44-6.59,31.16-15.25,8.88,8.8,18.94,14.43,31.59,15.27v-24.05Z"/>
        <path class="cls-3" d="m231.59,251.51v24.05c-12.65-.84-22.71-6.47-31.59-15.27-8.72,8.66-18.65,14.26-31.16,15.25v-24.1c1.39-.49,2.79-.96,4.16-1.48,8.82-3.36,14.77-11.69,14.81-21.16.08-19.17.08-38.33,0-57.5-.04-9.46-5.98-17.84-14.78-21.19-1.37-.52-2.77-.98-4.31-1.52v-24.03c12.44.78,22.41,6.48,31.28,15.21,8.83-8.82,18.94-14.35,31.57-15.33v23.98c-1.15.44-2.49.99-3.86,1.47-9.38,3.28-15.5,11.64-15.53,21.63-.07,18.5.2,37-.12,55.49-.16,9.74,5.56,20.43,17.01,23.67.78.22,1.55.51,2.51.83Z"/>
      </g>
    </g>
  </g>
</svg>