<?xml version="1.0" standalone="no"?>
<!DOCTYPE svg PUBLIC "-//W3C//DTD SVG 20010904//EN"
 "http://www.w3.org/TR/2001/REC-SVG-20010904/DTD/svg10.dtd">
<svg version="1.0" xmlns="http://www.w3.org/2000/svg"
 width="409.000000pt" height="409.000000pt" viewBox="0 0 409.000000 409.000000"
 preserveAspectRatio="xMidYMid meet">

<g transform="translate(0.000000,409.000000) scale(0.100000,-0.100000)"
fill="#000000" stroke="none">
<path d="M560 3380 l0 -160 55 0 55 0 0 -110 0 -110 55 0 55 0 0 -110 0 -110
55 0 55 0 0 -165 0 -165 55 0 55 0 0 -110 0 -110 55 0 55 0 0 -55 0 -55 115 0
115 0 0 55 0 55 55 0 55 0 0 55 0 55 55 0 55 0 0 55 0 55 55 0 55 0 0 55 0 55
55 0 55 0 0 55 0 55 55 0 55 0 0 55 0 55 55 0 55 0 0 55 0 55 55 0 55 0 0 55
0 55 60 0 60 0 0 55 0 55 55 0 55 0 0 55 0 55 55 0 55 0 0 50 0 50 55 0 55 0
0 55 0 55 55 0 55 0 0 55 0 55 -1055 0 -1055 0 0 -160z"/>
<path d="M3000 3485 l0 -55 -55 0 -55 0 0 -55 0 -55 -55 0 -55 0 0 -50 0 -50
-55 0 -55 0 0 -55 0 -55 -55 0 -55 0 0 -55 0 -55 -55 0 -55 0 0 -55 0 -55 -55
0 -55 0 0 -55 0 -55 -55 0 -55 0 0 -55 0 -55 -60 0 -60 0 0 -55 0 -55 -55 0
-55 0 0 -55 0 -55 -55 0 -55 0 0 -55 0 -55 -55 0 -55 0 0 -110 0 -110 280 0
280 0 0 55 0 55 55 0 55 0 0 55 0 55 55 0 55 0 0 55 0 55 55 0 55 0 0 55 0 55
55 0 55 0 0 55 0 55 55 0 55 0 0 55 0 55 55 0 55 0 0 55 0 55 60 0 60 0 0 55
0 55 55 0 55 0 0 55 0 55 55 0 55 0 0 55 0 55 55 0 55 0 0 50 0 50 55 0 55 0
0 55 0 55 55 0 55 0 0 55 0 55 -335 0 -335 0 0 -55z"/>
<path d="M560 1190 l0 -710 55 0 55 0 0 55 0 55 55 0 55 0 0 55 0 55 55 0 55
0 0 55 0 55 55 0 55 0 0 55 0 55 55 0 55 0 0 55 0 55 55 0 55 0 0 55 0 55 60
0 60 0 0 55 0 55 55 0 55 0 0 55 0 55 55 0 55 0 0 55 0 55 55 0 55 0 0 50 0
50 55 0 55 0 0 55 0 55 55 0 55 0 0 55 0 55 55 0 55 0 0 55 0 55 -720 0 -720
0 0 -710z"/>
</g>
</svg>
