<?xml version="1.0" encoding="UTF-8"?>
<svg id="_Слой_2" data-name="Слой 2" xmlns="http://www.w3.org/2000/svg" viewBox="0 0 1254.6 283.82">
  <defs>
    <style>
      .cls-1 {
        fill: #fcfcfc;
      }

      .cls-2 {
        fill: #00f28a;
      }
    </style>
  </defs>
  <g id="_Слой_1-2" data-name="Слой 1">
    <g>
      <path class="cls-2" d="M0,283.79V15.63c1.09-2.25,1.29-4.65,2.82-6.8,1.99-2.8,6.71-6.58,9.96-7.67.71-.24,4.21-1.16,4.45-1.16h265.35l1.2,1.2v237.29c0,.15-.59.44-.67.93-.98,6-2.61,10.34-6.53,15.12-4.74,5.78-17.07,18.18-22.85,22.85-1.94,1.56-5.3,3.49-7.62,4.41-.87.35-5.71,1.99-6.03,1.99H0ZM184.38,36.88H43.69c-.35,0-4.61,3-5.12,3.7-1.54,2.13-2.15,5.21-1.57,7.8,12.98,26.85,24.92,54.35,38.73,80.72,4.83,3.85,10.99,4.65,16.08.79l92.57-93.01ZM246.11,36.88h-32.47c-1.52,0-8.11,3.56-9.64,4.79l-90.17,90.61h33.27c.75,0,7.01-3.22,8.03-3.99,12.58-12.54,25.05-25.2,37.64-37.73.99-.99,1.8-1.81,2.79-2.79,16.93-16.87,34.02-33.62,50.54-50.89ZM133.88,149.11H42.89c-1.1,0-6.01,4.94-6.01,6.01v90.99l97-97Z"/>
      <path class="cls-1" d="M1030.94,0l-.35,2.45c-5.04,9.3-8.69,19.5-13.7,28.79-.44.81-1.71,2.67-2.35,3.26-.42.38-3.8,2.38-4.04,2.38h-137.08l-1.2,1.2v84.98l1.2,1.2h136.68v35.67l-1.2,1.2h-135.48l-1.2,1.2v84.58h158.33l1.2,1.2v35.67h-179.17c-.19,0-2.99-.93-3.64-1.17-6.61-2.38-10.55-8.04-12.8-14.46l-.03-250.96c.54-5.76,6.8-13.11,12.04-15.22.87-.35,5.71-1.99,6.03-1.99h176.77Z"/>
      <path class="cls-1" d="M617.28,0v246.51l1.2,1.2h140.29c.32,0,1.38-1.32,1.23-1.98l-.83-244.93,36.88-.8v268.16c0,.39-2.79,6.32-3.31,7.11-2.93,4.38-9.46,8.09-14.69,8.56l-179.6-.04c-4.78-.53-11.25-4.52-13.93-8.52-.53-.79-3.31-6.72-3.31-7.11V0h36.07Z"/>
      <path class="cls-1" d="M551.54,0c.14.93-.05,1.59-.35,2.45-3.51,9.84-11.07,20.75-14.97,30.72-.5.7-4.77,3.7-5.12,3.7h-137.08l-1.2,1.2v84.98l1.2,1.2h135.48l1.2,1.2v34.47l-1.2,1.2h-136.68v122.65h-36.88V20.44c0-.21.64-3.28.81-4,1.54-6.82,6.92-13.04,13.58-15.28.71-.24,4.21-1.16,4.45-1.16h176.77Z"/>
      <path class="cls-1" d="M1107.9,247.71h146.7v36.07h-167.15c-.19,0-3.04-.94-3.64-1.17-4.15-1.57-8.08-5.14-10.27-8.97-.46-.8-2.53-5.16-2.53-5.49V0h35.67l1.2,1.2v246.51Z"/>
    </g>
  </g>
</svg>