<?xml version="1.0" encoding="UTF-8"?>
<svg id="Layer_2" data-name="Layer 2" xmlns="http://www.w3.org/2000/svg" viewBox="0 0 299.31 299.44">
  <defs>
    <style>
      .cls-1 {
        fill: #01f38c;
      }

      .cls-1, .cls-2 {
        stroke-width: 0px;
      }

      .cls-2 {
        fill: #010502;
      }
    </style>
  </defs>
  <g id="Layer_1-2" data-name="Layer 1">
    <g>
      <path class="cls-1" d="m165.41.77c3.92.38,9.48.88,16.7,2.44,11.44,2.47,22.47,6.39,33.01,11.5,7.76,3.77,15.27,8.08,22.18,13.27,5.3,3.98,10.53,8.07,15.27,12.77,6.5,6.44,12.87,12.99,18.11,20.5,3.32,4.76,6.5,9.65,9.4,14.67,2.47,4.28,4.55,8.8,6.62,13.3,1.56,3.39,2.97,6.87,4.21,10.4,1,2.85,4.68,13.27,6.81,27.74,1.12,7.66,2.95,24.2,0,44.63-.84,5.86-1.86,10.33-2.25,12.14-2.38,11.06-6.41,21.52-11.26,31.68-3.66,7.68-8,15-13.09,21.81-3.59,4.81-7.45,9.47-11.57,13.83-4.34,4.59-9.01,8.9-13.78,13.05-3.86,3.35-8.01,6.37-12.17,9.35-3.94,2.83-8.26,5.08-12.44,7.55-6.95,4.09-14.38,6.9-21.86,9.68-5.54,2.05-15.14,4.92-27.41,6.75-7.05,1.05-23.79,3.03-44.63,0-5.76-.84-10.19-1.84-12.13-2.27-11.04-2.39-21.5-6.4-31.65-11.25-7.66-3.66-14.97-7.97-21.77-13.04-4.71-3.51-9.29-7.26-13.55-11.3-4.68-4.43-9.08-9.18-13.32-14.04-3.37-3.86-6.42-8.01-9.4-12.18-2.89-4.05-5.14-8.52-7.71-12.78-4.06-6.74-6.86-13.99-9.44-21.3-2.43-6.87-4.35-13.96-5.89-21.08-1.15-5.32-1.41-9.41-1.7-12.37-.26-2.66-1.39-15.02,0-32.78.31-3.92.24-5.93.87-8.8,2.13-9.63,4.39-19.2,7.97-28.48,4.12-10.67,9.2-20.76,15.62-30.16,3.58-5.25,7.25-10.53,11.56-15.17,5.91-6.37,12.24-12.41,18.82-18.08,4.4-3.8,9.54-6.75,14.38-10.04,9.16-6.23,19.18-10.78,29.6-14.35,6.9-2.36,13.97-4.32,21.1-5.88,5.29-1.16,9.36-1.41,12.37-1.7,7.98-.78,19.16-1.29,32.44-.02Zm25.2,75.18c-2.08,0-3.41,0-4.74,0-33.6,0-67.2.01-100.8.02-.75,0-1.51-.05-2.25.04-4.87.55-8.29,5.76-6.06,10.18.56,1.11.98,2.3,1.51,3.42,8.53,18.04,17.06,36.1,25.63,54.12,3.44,7.24,10.79,8.5,16.5,2.8,22.44-22.41,44.85-44.85,67.27-67.29.85-.85,1.6-1.79,2.93-3.3Zm-38.9,87.05c-2.04-.09-3.24-.19-4.45-.19-20.86,0-41.72,0-62.58,0-1,0-2.01-.05-2.99.1-2.99.46-5.21,2.65-5.73,5.65-.15.85-.15,1.74-.15,2.61,0,21.48,0,42.97,0,64.45,0,.68.17,1.35.37,2.87,25.42-25.3,50.23-50.11,75.52-75.49Zm86.26-86.43c-1.03-.27-1.5-.49-1.96-.49-7-.02-14-.11-20.99.04-4.56.1-8.43,2.08-11.66,5.28-2.39,2.38-4.73,4.8-7.11,7.18-19.26,19.24-38.53,38.47-57.78,57.74-1,1-2.28,1.88-2.64,3.74,6.93,0,13.67-.13,20.4.04,5.76.15,10.43-1.91,14.39-5.98,4.61-4.74,9.3-9.41,13.98-14.09,16.87-16.86,33.76-33.7,50.63-50.56.84-.84,1.63-1.73,2.73-2.91Z"/>
      <path class="cls-2" d="m190.61,75.95c-1.33,1.5-2.08,2.45-2.93,3.3-22.41,22.44-44.82,44.88-67.27,67.29-5.71,5.7-13.06,4.44-16.5-2.8-8.57-18.03-17.09-36.08-25.63-54.12-.53-1.13-.95-2.31-1.51-3.42-2.23-4.42,1.19-9.63,6.06-10.18.74-.08,1.5-.04,2.25-.04,33.6,0,67.2-.01,100.8-.02,1.33,0,2.66,0,4.74,0Z"/>
      <path class="cls-2" d="m151.7,163c-25.29,25.38-50.1,50.19-75.52,75.49-.2-1.52-.37-2.19-.37-2.87-.01-21.48-.01-42.97,0-64.45,0-.87,0-1.76.15-2.61.52-3,2.74-5.19,5.73-5.65.98-.15,1.99-.1,2.99-.1,20.86,0,41.72,0,62.58,0,1.21,0,2.41.1,4.45.19Z"/>
      <path class="cls-2" d="m237.96,76.57c-1.1,1.17-1.88,2.06-2.73,2.91-16.87,16.86-33.76,33.7-50.63,50.56-4.68,4.68-9.37,9.35-13.98,14.09-3.96,4.07-8.63,6.13-14.39,5.98-6.73-.17-13.48-.04-20.4-.04.36-1.86,1.64-2.74,2.64-3.74,19.24-19.26,38.51-38.49,57.78-57.74,2.38-2.38,4.72-4.8,7.11-7.18,3.22-3.21,7.09-5.19,11.66-5.28,6.99-.15,13.99-.06,20.99-.04.46,0,.92.22,1.96.49Z"/>
    </g>
  </g>
</svg>