<?xml version="1.0" encoding="UTF-8"?>
<svg version="1.1" xmlns="http://www.w3.org/2000/svg" width="200" height="200">
<path d="M0 0 C66 0 132 0 200 0 C200 66 200 132 200 200 C134 200 68 200 0 200 C0 134 0 68 0 0 Z " fill="#000000" transform="translate(0,0)"/>
<path d="M0 0 C0.74709229 -0.0033284 1.49418457 -0.0066568 2.26391602 -0.01008606 C3.84423201 -0.01515091 5.42455871 -0.01749452 7.00488281 -0.01733398 C9.42791243 -0.01952259 11.85048836 -0.03768826 14.2734375 -0.05664062 C15.8072901 -0.05957417 17.34114488 -0.06155923 18.875 -0.0625 C19.60211182 -0.06968552 20.32922363 -0.07687103 21.07836914 -0.08427429 C26.20867197 -0.06085928 26.20867197 -0.06085928 28.4375 2.16796875 C28.4375 4.98046875 28.4375 4.98046875 27.4375 8.16796875 C24.6875 10.66796875 24.6875 10.66796875 23.0625 11.8671875 C21.32444715 13.25846538 20.06186381 14.73388141 18.6875 16.48046875 C17.945 17.36734375 17.2025 18.25421875 16.4375 19.16796875 C15.7775 19.16796875 15.1175 19.16796875 14.4375 19.16796875 C14.94539063 20.17214844 15.45328125 21.17632812 15.9765625 22.2109375 C33.72166055 57.40249657 33.72166055 57.40249657 33.4375 74.16796875 C31.69921875 74.83984375 31.69921875 74.83984375 29.4375 75.16796875 C27.39453125 74.05859375 27.39453125 74.05859375 25.25 72.41796875 C12.67117982 63.50107484 -4.16952279 63.85906697 -18.9375 65.79296875 C-25.87063621 67.12924361 -33.51121692 70.11668567 -38.5625 75.16796875 C-40.6875 74.79296875 -40.6875 74.79296875 -42.5625 74.16796875 C-44.82126017 49.32160683 -25.55055159 21.0484516 -10.8671875 2.56640625 C-7.85095157 -0.66656519 -4.10719485 0.00628594 0 0 Z " fill="#FCFCFC" transform="translate(104.5625,30.83203125)"/>
<path d="M0 0 C-0.06510417 2.01822917 -0.13020833 4.03645833 -0.1953125 6.0546875 C-0.18331689 8.23863645 -0.18331689 8.23863645 2 10 C6.80816362 9.73626107 9.65531983 8.12742237 13.5625 5.4375 C20.15499632 1.51126606 25.44782193 0.42154246 33 2 C36.83364824 3.44896174 40.34535234 5.34971262 43.90625 7.37109375 C47.33940213 9.17870036 50.13873231 10 54 10 C54 6.7 54 3.4 54 0 C58.31013828 0.48303274 60.0235163 1.6017799 62.75 4.9375 C63.63945312 6.00291016 63.63945312 6.00291016 64.546875 7.08984375 C68.60410306 12.42313547 67.58709586 19.61450795 67 26 C65.83401711 29.21250058 64.30883257 31.50304033 62 34 C61.32195312 34.74894531 60.64390625 35.49789062 59.9453125 36.26953125 C56.0864435 40.0802273 51.51791508 43.00244434 47.0625 46.0625 C46.18142578 46.67416016 45.30035156 47.28582031 44.39257812 47.91601562 C42.68667097 49.09801122 40.9754188 50.27233889 39.25830078 51.43798828 C37.41954783 52.70980897 35.6358813 54.06098121 33.87109375 55.43359375 C30.10194117 57.48996135 27.1242671 58.03037741 23 57 C19.41843653 55.16081876 16.27547587 52.85273776 13.0625 50.4375 C12.22009766 49.82841797 11.37769531 49.21933594 10.50976562 48.59179688 C7.98487962 46.75498604 5.48817981 44.88618105 3 43 C2.16509033 42.36739258 1.33018066 41.73478516 0.4699707 41.08300781 C-5.54073341 36.47275584 -10.53872272 32.43733787 -13 25 C-13.88373328 17.73478218 -13.85618621 11.57616501 -9.36328125 5.58984375 C-8.91339844 5.06519531 -8.46351562 4.54054688 -8 4 C-7.319375 3.175 -6.63875 2.35 -5.9375 1.5 C-4 0 -4 0 0 0 Z " fill="#7E7E7E" transform="translate(73,112)"/>
</svg>
