<?xml version="1.0" encoding="UTF-8"?>
<svg version="1.1" xmlns="http://www.w3.org/2000/svg" width="200" height="200">
<path d="M0 0 C0.63647461 0.20898926 1.27294922 0.41797852 1.92871094 0.63330078 C26.94152032 9.04440923 46.6387059 27.28731179 59.21484375 50.21875 C70.73335702 73.51770266 73.26861487 102.32295002 65 127 C64.68651611 127.95471191 64.68651611 127.95471191 64.36669922 128.92871094 C55.95559077 153.94152032 37.71268821 173.6387059 14.78125 186.21484375 C-8.51770266 197.73335702 -37.32295002 200.26861487 -62 192 C-62.95471191 191.68651611 -62.95471191 191.68651611 -63.92871094 191.36669922 C-88.94152032 182.95559077 -108.6387059 164.71268821 -121.21484375 141.78125 C-132.73335702 118.48229734 -135.26861487 89.67704998 -127 65 C-126.79101074 64.36352539 -126.58202148 63.72705078 -126.36669922 63.07128906 C-117.95559077 38.05847968 -99.71268821 18.3612941 -76.78125 5.78515625 C-53.48229734 -5.73335702 -24.67704998 -8.26861487 0 0 Z " fill="#000000" transform="translate(131,4)"/>
<path d="M0 0 C1.15181007 -0.00074776 1.15181007 -0.00074776 2.32688904 -0.00151062 C3.94833975 0.00082792 5.56979423 0.01054356 7.19116211 0.02709961 C9.67790018 0.05072715 12.16356858 0.04765502 14.65039062 0.04101562 C16.22526683 0.04659131 17.80013851 0.0537005 19.375 0.0625 C20.49377281 0.06113289 20.49377281 0.06113289 21.63514709 0.05973816 C26.89005084 0.13223834 26.89005084 0.13223834 29.12109375 2.36328125 C29.12693364 6.43952641 28.12274917 8.68487751 25.3984375 11.57421875 C24.29770446 12.64199571 23.18396763 13.69650657 22.05859375 14.73828125 C21.49076172 15.28355469 20.92292969 15.82882813 20.33789062 16.390625 C18.94339353 17.72652978 17.53370657 19.04654713 16.12109375 20.36328125 C16.71277344 21.46285156 17.30445313 22.56242187 17.9140625 23.6953125 C35.20474809 55.97125894 35.20474809 55.97125894 34.12109375 74.36328125 C31.13780064 75.26986502 29.69120059 75.63957876 26.83203125 74.25390625 C25.29010237 73.17094617 23.74843033 72.08762028 22.20703125 71.00390625 C13.52445643 66.38785381 4.41908385 65.81148843 -5.25390625 65.86328125 C-7.03692139 65.86859863 -7.03692139 65.86859863 -8.85595703 65.87402344 C-18.43908974 66.05570668 -26.95097863 66.97266661 -34.38671875 73.59765625 C-36.87890625 75.36328125 -36.87890625 75.36328125 -39.69140625 75.11328125 C-40.77421875 74.74203125 -40.77421875 74.74203125 -41.87890625 74.36328125 C-43.05552867 47.34454425 -27.57548102 23.55477979 -10.87890625 3.36328125 C-10.29967407 2.53098999 -10.29967407 2.53098999 -9.70874023 1.68188477 C-6.75640589 -0.44560794 -3.50272144 -0.04336935 0 0 Z " fill="#F9F9F9" transform="translate(103.87890625,30.63671875)"/>
<path d="M0 0 C1.2065625 0.0309375 1.2065625 0.0309375 2.4375 0.0625 C2.7675 2.7025 3.0975 5.3425 3.4375 8.0625 C6.64206306 9.07446728 8.05185006 9.2277004 11.19140625 7.8828125 C12.11824219 7.32335937 13.04507813 6.76390625 14 6.1875 C21.37284356 1.79038109 27.85559957 1.04462498 36.4375 2.0625 C39.96463938 3.3433048 43.19966072 4.87950745 46.53515625 6.59375 C49.81945317 8.2557899 52.86913121 9.23264679 56.4375 10.0625 C56.4375 6.7625 56.4375 3.4625 56.4375 0.0625 C61.3003852 0.47931873 63.30236307 2.43234145 66.4375 6.0625 C71.05370263 12.3217578 70.27837874 19.68470301 69.4375 27.0625 C66.73715143 35.45947432 58.2462638 40.68766713 51.38134766 45.65429688 C50.07588537 46.6000274 48.77870994 47.55729444 47.48974609 48.52539062 C33.68891904 58.86822264 33.68891904 58.86822264 27.14453125 58.09765625 C20.15222928 55.42383226 14.27279859 50.65263843 8.4375 46.0625 C7.44387451 45.28543701 7.44387451 45.28543701 6.43017578 44.49267578 C-9.71276368 31.6999298 -9.71276368 31.6999298 -11.0859375 22.58984375 C-11.56520952 14.33479641 -10.44074891 9.24678049 -5.19140625 2.8203125 C-2.63752911 0.06432998 -2.63752911 0.06432998 0 0 Z " fill="#7C7C7C" transform="translate(70.5625,111.9375)"/>
</svg>
