<?xml version="1.0" encoding="UTF-8"?>
<svg version="1.1" xmlns="http://www.w3.org/2000/svg" width="225" height="225">
<path d="M0 0 C1.19625 0.32871094 2.3925 0.65742187 3.625 0.99609375 C33.31438433 9.93383549 56.44785307 30.4537695 71.25 57.375 C75.09249158 64.6536378 77.78449651 72.06111248 80 80 C80.3196875 81.07507813 80.639375 82.15015625 80.96875 83.2578125 C85.32120162 100.62731849 85.09730715 121.83012327 80 139 C79.67128906 140.19625 79.34257812 141.3925 79.00390625 142.625 C70.06616451 172.31438433 49.5462305 195.44785307 22.625 210.25 C15.3463622 214.09249158 7.93888752 216.78449651 0 219 C-1.07507813 219.3196875 -2.15015625 219.639375 -3.2578125 219.96875 C-20.62731849 224.32120162 -41.83012327 224.09730715 -59 219 C-60.794375 218.50693359 -60.794375 218.50693359 -62.625 218.00390625 C-92.31438433 209.06616451 -115.44785307 188.5462305 -130.25 161.625 C-134.09249158 154.3463622 -136.78449651 146.93888752 -139 139 C-139.47953125 137.38738281 -139.47953125 137.38738281 -139.96875 135.7421875 C-144.32120162 118.37268151 -144.09730715 97.16987673 -139 80 C-138.67128906 78.80375 -138.34257812 77.6075 -138.00390625 76.375 C-129.06616451 46.68561567 -108.5462305 23.55214693 -81.625 8.75 C-74.3463622 4.90750842 -66.93888752 2.21550349 -59 0 C-57.92492187 -0.3196875 -56.84984375 -0.639375 -55.7421875 -0.96875 C-38.37268151 -5.32120162 -17.16987673 -5.09730715 0 0 Z " fill="#D448EA" transform="translate(142,3)"/>
<path d="M0 0 C1.8170343 -0.01429802 1.8170343 -0.01429802 3.67077637 -0.02888489 C5.63488464 -0.02751778 5.63488464 -0.02751778 7.63867188 -0.02612305 C8.99483369 -0.0300101 10.3509943 -0.03434479 11.70715332 -0.03910828 C14.54846139 -0.04656804 17.38964519 -0.04628072 20.23095703 -0.04101562 C23.872911 -0.0352165 27.51435714 -0.05216318 31.15622711 -0.0753603 C33.95634944 -0.09008692 36.7563491 -0.09097092 39.5565033 -0.08785057 C41.55238074 -0.08861395 43.54823916 -0.10249365 45.54406738 -0.11653137 C47.36110168 -0.10718819 47.36110168 -0.10718819 49.21484375 -0.09765625 C50.81676575 -0.09860039 50.81676575 -0.09860039 52.4510498 -0.0995636 C55.10742188 0.2746582 55.10742188 0.2746582 56.95045471 1.48899841 C58.47842 3.84725565 58.4943419 5.41354555 58.51147461 8.2175293 C58.52415878 9.2222226 58.53684296 10.22691589 58.5499115 11.26205444 C58.54697586 12.34644806 58.54404022 13.43084167 58.54101562 14.5480957 C58.54625748 15.66399078 58.55149933 16.77988586 58.55690002 17.92959595 C58.56332753 20.29167854 58.56197387 22.65379312 58.5534668 25.01586914 C58.54497103 28.6287554 58.57368737 32.24005381 58.60546875 35.8527832 C58.60708117 38.14705356 58.60650244 40.44132672 58.60351562 42.7355957 C58.6147496 43.81594086 58.62598358 44.89628601 58.63755798 46.0093689 C58.59592711 50.495984 58.5459974 53.46732981 56.37915039 57.45605469 C53.76241921 59.55084572 52.58024399 59.89951373 49.26367188 59.91137695 C47.88888672 59.94134766 47.88888672 59.94134766 46.48632812 59.97192383 C45.53628906 59.96870117 44.58625 59.96547852 43.60742188 59.9621582 C41.72191623 59.97878749 39.83645951 60.00323195 37.95117188 60.03637695 C37.11779297 60.03597412 36.28441406 60.03557129 35.42578125 60.03515625 C32.90788815 60.29527137 31.28217544 61.01241272 29.10742188 62.2746582 C29.08760254 62.99121582 29.0677832 63.70777344 29.04736328 64.44604492 C28.95232669 67.6809645 28.84256168 70.91521915 28.73242188 74.1496582 C28.70148438 75.27758789 28.67054688 76.40551758 28.63867188 77.56762695 C28.6 78.64399414 28.56132812 79.72036133 28.52148438 80.8293457 C28.47435303 82.32183838 28.47435303 82.32183838 28.42626953 83.84448242 C28.10742188 86.2746582 28.10742188 86.2746582 26.10742188 88.2746582 C23.37353516 88.56176758 23.37353516 88.56176758 19.92773438 88.6184082 C18.68894531 88.64805664 17.45015625 88.67770508 16.17382812 88.70825195 C14.87316406 88.73016602 13.5725 88.75208008 12.23242188 88.7746582 C9.67236395 88.81804902 7.11243003 88.86977321 4.55273438 88.9309082 C3.41336426 88.94959961 2.27399414 88.96829102 1.10009766 88.98754883 C-1.79858189 89.26564045 -3.48621371 89.67466304 -5.89257812 91.2746582 C-7.82990466 95.14931128 -7.18325637 100.30790214 -7.234375 104.62231445 C-7.26208984 105.41250977 -7.28980469 106.20270508 -7.31835938 107.0168457 C-7.33294189 107.73727051 -7.34752441 108.45769531 -7.36254883 109.19995117 C-8.13081213 112.20718358 -9.44685325 113.40611613 -11.89257812 115.2746582 C-14.50219727 115.77636719 -14.50219727 115.77636719 -17.42773438 115.77075195 C-18.48412109 115.77139648 -19.54050781 115.77204102 -20.62890625 115.77270508 C-21.72654297 115.75272461 -22.82417969 115.73274414 -23.95507812 115.7121582 C-25.05658203 115.71924805 -26.15808594 115.72633789 -27.29296875 115.73364258 C-35.39291391 115.66931803 -35.39291391 115.66931803 -37.66772461 113.87255859 C-40.34935178 110.37420303 -40.03111251 107.58138145 -40.05371094 103.22631836 C-40.05867584 102.50093369 -40.06364075 101.77554901 -40.0687561 101.02818298 C-40.08338671 98.62335265 -40.09018118 96.21858827 -40.09570312 93.8137207 C-40.10145382 92.14464312 -40.10721157 90.47556557 -40.11297607 88.80648804 C-40.12348861 85.3043385 -40.12932962 81.80221193 -40.1328125 78.30004883 C-40.1382979 73.81187192 -40.16232569 69.32399829 -40.19078445 64.83591652 C-40.20940571 61.38724886 -40.21461615 57.93865433 -40.21614838 54.48994064 C-40.21917658 52.83532427 -40.2272108 51.18070923 -40.24033356 49.52614212 C-40.25738381 47.21112225 -40.25551666 44.89684425 -40.24902344 42.58178711 C-40.25266907 41.26433502 -40.2563147 39.94688293 -40.2600708 38.58950806 C-39.8739615 35.10673288 -39.3697156 33.70065025 -36.89257812 31.2746582 C-34.68774414 30.65283203 -34.68774414 30.65283203 -32.14648438 30.48168945 C-31.22673828 30.40885742 -30.30699219 30.33602539 -29.359375 30.26098633 C-28.40095703 30.20362305 -27.44253906 30.14625977 -26.45507812 30.0871582 C-24.56036952 29.95026838 -22.66582855 29.81103328 -20.77148438 29.66918945 C-19.93174072 29.61609619 -19.09199707 29.56300293 -18.22680664 29.50830078 C-16.00018879 29.2854294 -14.01461054 28.9859017 -11.89257812 28.2746582 C-8.52326623 23.05383946 -9.49833866 15.66277592 -9.4140625 9.67114258 C-9.38763672 8.75268555 -9.36121094 7.83422852 -9.33398438 6.88793945 C-9.32052979 6.05045166 -9.3070752 5.21296387 -9.29321289 4.35009766 C-9.16100342 3.66520264 -9.02879395 2.98030762 -8.89257812 2.2746582 C-5.42834438 -0.03483096 -4.08651531 0.01763024 0 0 Z " fill="#FCFAFC" transform="translate(102.892578125,54.725341796875)"/>
<path d="M0 0 C1.8170343 -0.01429802 1.8170343 -0.01429802 3.67077637 -0.02888489 C5.63488464 -0.02751778 5.63488464 -0.02751778 7.63867188 -0.02612305 C8.99483369 -0.0300101 10.3509943 -0.03434479 11.70715332 -0.03910828 C14.54846139 -0.04656804 17.38964519 -0.04628072 20.23095703 -0.04101562 C23.872911 -0.0352165 27.51435714 -0.05216318 31.15622711 -0.0753603 C33.95634944 -0.09008692 36.7563491 -0.09097092 39.5565033 -0.08785057 C41.55238074 -0.08861395 43.54823916 -0.10249365 45.54406738 -0.11653137 C47.36110168 -0.10718819 47.36110168 -0.10718819 49.21484375 -0.09765625 C50.81676575 -0.09860039 50.81676575 -0.09860039 52.4510498 -0.0995636 C55.10742188 0.2746582 55.10742188 0.2746582 56.95045471 1.48899841 C58.47842 3.84725565 58.4943419 5.41354555 58.51147461 8.2175293 C58.52415878 9.2222226 58.53684296 10.22691589 58.5499115 11.26205444 C58.54697586 12.34644806 58.54404022 13.43084167 58.54101562 14.5480957 C58.54625748 15.66399078 58.55149933 16.77988586 58.55690002 17.92959595 C58.56332753 20.29167854 58.56197387 22.65379312 58.5534668 25.01586914 C58.54497103 28.6287554 58.57368737 32.24005381 58.60546875 35.8527832 C58.60708117 38.14705356 58.60650244 40.44132672 58.60351562 42.7355957 C58.6147496 43.81594086 58.62598358 44.89628601 58.63755798 46.0093689 C58.59635215 50.45017694 58.51853505 53.48021224 56.45629883 57.46533203 C53.44498672 59.78492813 51.80627233 59.85551238 48.02929688 59.76293945 C46.2890625 59.73876953 46.2890625 59.73876953 44.51367188 59.71411133 C43.30710938 59.6722168 42.10054687 59.63032227 40.85742188 59.5871582 C39.63539063 59.56459961 38.41335937 59.54204102 37.15429688 59.51879883 C34.13743686 59.45987578 31.12304673 59.37765086 28.10742188 59.2746582 C27.61242187 60.2646582 27.61242187 60.2646582 27.10742188 61.2746582 C26.43251129 56.77525433 25.97475796 53.66476433 27.10742188 49.2746582 C27.19916897 47.46400229 27.23745092 45.65013009 27.23242188 43.8371582 C27.235 42.91032227 27.23757812 41.98348633 27.24023438 41.02856445 C27.11086239 38.34599839 26.70525021 35.88897102 26.10742188 33.2746582 C19.33899904 30.3200945 12.03056326 30.950218 4.78515625 30.97192383 C0.14820941 30.88280706 -3.02319153 30.76481055 -7.10742188 28.4621582 C-9.83761097 23.58724726 -9.54139403 19.0764357 -9.39257812 13.5871582 C-9.39515625 12.52948242 -9.39773437 11.47180664 -9.40039062 10.38208008 C-9.32662169 4.60966119 -9.32662169 4.60966119 -8.89257812 2.2746582 C-5.42834438 -0.03483096 -4.08651531 0.01763024 0 0 Z " fill="#FDFDFD" transform="translate(102.892578125,54.725341796875)"/>
<path d="M0 0 C3.70818297 -0.08756305 7.41609763 -0.14058015 11.125 -0.1875 C12.17171875 -0.21263672 13.2184375 -0.23777344 14.296875 -0.26367188 C24.55264118 -0.36103674 24.55264118 -0.36103674 29 3 C31.01077036 6.46684545 31.27226351 9.53709524 31.25 13.5 C31.25773437 14.87671875 31.25773437 14.87671875 31.265625 16.28125 C30.96198344 19.38911068 30.59704065 21.29731583 29 24 C23.29426629 28.41102897 18.41897904 28.56244482 11.375 28.375 C9.9828125 28.37306641 9.9828125 28.37306641 8.5625 28.37109375 C-0.07349911 28.25974133 -0.07349911 28.25974133 -4 26 C-5.82671197 22.34657606 -5.18470722 18.02160841 -5.1875 14 C-5.19974609 13.071875 -5.21199219 12.14375 -5.22460938 11.1875 C-5.22654297 10.300625 -5.22847656 9.41375 -5.23046875 8.5 C-5.23457764 7.6853125 -5.23868652 6.870625 -5.24291992 6.03125 C-5 4 -5 4 -3 2 C-2.01 2 -1.02 2 0 2 C0 1.34 0 0.68 0 0 Z " fill="#D54BEB" transform="translate(100,85)"/>
<path d="M0 0 C2.96404505 2.80804268 5.44499019 5.18315774 7 9 C5.02 9.99 5.02 9.99 3 11 C2.67 16.94 2.34 22.88 2 29 C-0.01003681 24.97992638 -0.62082163 21.62230092 -1.125 17.25 C-1.25455078 16.20392578 -1.25455078 16.20392578 -1.38671875 15.13671875 C-1.59771846 13.42527668 -1.79975501 11.71273371 -2 10 C-2.99 10.33 -3.98 10.66 -5 11 C-5.33 9.35 -5.66 7.7 -6 6 C-5.38125 5.938125 -4.7625 5.87625 -4.125 5.8125 C-1.72238859 5.171081 -1.72238859 5.171081 -0.75 2.4375 C-0.5025 1.633125 -0.255 0.82875 0 0 Z " fill="#F5E4F8" transform="translate(93,78)"/>
<path d="M0 0 C0.309375 0.639375 0.61875 1.27875 0.9375 1.9375 C1.8345163 3.93610821 1.8345163 3.93610821 3 5 C4.33563058 4.67599406 5.66854645 4.34076432 7 4 C8.51395696 3.92181364 10.03093507 3.89210091 11.546875 3.90234375 C12.39121094 3.90556641 13.23554688 3.90878906 14.10546875 3.91210938 C14.97816406 3.92048828 15.85085937 3.92886719 16.75 3.9375 C17.63816406 3.94201172 18.52632812 3.94652344 19.44140625 3.95117188 C21.62767329 3.962926 23.81380179 3.97935751 26 4 C26 4.33 26 4.66 26 5 C24.74703125 5.04898438 23.4940625 5.09796875 22.203125 5.1484375 C20.55206179 5.22348583 18.90102119 5.29903277 17.25 5.375 C16.0125 5.42140625 16.0125 5.42140625 14.75 5.46875 C13.95078125 5.50742188 13.1515625 5.54609375 12.328125 5.5859375 C11.22839355 5.63306885 11.22839355 5.63306885 10.10644531 5.68115234 C7.58062616 5.95275842 7.58062616 5.95275842 4 8 C3.67 15.92 3.34 23.84 3 32 C2.34 32 1.68 32 1 32 C0.98018066 31.39526855 0.96036133 30.79053711 0.93994141 30.16748047 C0.84413701 27.40291491 0.73468445 24.63904826 0.625 21.875 C0.5940625 20.92367187 0.563125 19.97234375 0.53125 18.9921875 C0.32448037 14.02971638 0.08850802 9.59471763 -2 5 C-4.00136244 3.57944932 -4.00136244 3.57944932 -6 3 C-4.02 2.01 -2.04 1.02 0 0 Z " fill="#EDB9F3" transform="translate(128,109)"/>
<path d="M0 0 C5.61 0 11.22 0 17 0 C16.01 1.32 15.02 2.64 14 4 C13.34 4 12.68 4 12 4 C12 4.66 12 5.32 12 6 C5.4 6 -1.2 6 -8 6 C-7.67 5.01 -7.34 4.02 -7 3 C-4.69 3 -2.38 3 0 3 C0 2.01 0 1.02 0 0 Z " fill="#C44ED8" transform="translate(98,0)"/>
<path d="M0 0 C0.33 0.66 0.66 1.32 1 2 C1.99 2 2.98 2 4 2 C3.67 9.26 3.34 16.52 3 24 C2.34 24 1.68 24 1 24 C0.67 16.08 0.34 8.16 0 0 Z " fill="#F5D4F7" transform="translate(128,117)"/>
<path d="M0 0 C0.66 0.33 1.32 0.66 2 1 C1.67 1.66 1.34 2.32 1 3 C0.34 3 -0.32 3 -1 3 C-1 3.66 -1 4.32 -1 5 C-7.6 5 -14.2 5 -21 5 C-20.67 4.01 -20.34 3.02 -20 2 C-19.01 2.33 -18.02 2.66 -17 3 C-14.85586777 3.09504628 -12.7087323 3.12987226 -10.5625 3.125 C-9.42941406 3.12757812 -8.29632813 3.13015625 -7.12890625 3.1328125 C-4.54778817 3.02325193 -2.45055595 2.75864877 0 2 C0 1.34 0 0.68 0 0 Z " fill="#CB4CE0" transform="translate(111,1)"/>
<path d="M0 0 C7.42857143 -0.14285714 7.42857143 -0.14285714 11 1 C11.33 2.32 11.66 3.64 12 5 C11.34 5 10.68 5 10 5 C10 4.34 10 3.68 10 3 C7.36 3 4.72 3 2 3 C2 2.34 2 1.68 2 1 C1.34 0.67 0.68 0.34 0 0 Z " fill="#BC57CF" transform="translate(120,0)"/>
<path d="M0 0 C3.63 0 7.26 0 11 0 C9.68 0.33 8.36 0.66 7 1 C7 1.66 7 2.32 7 3 C5.35 3 3.7 3 2 3 C2 2.34 2 1.68 2 1 C1.34 0.67 0.68 0.34 0 0 Z " fill="#B65DC6" transform="translate(104,0)"/>
<path d="M0 0 C2.475 0.495 2.475 0.495 5 1 C5.33 1.99 5.66 2.98 6 4 C4.35 4 2.7 4 1 4 C0.67 2.68 0.34 1.36 0 0 Z " fill="#D54AEC" transform="translate(101,0)"/>
</svg>
