<?xml version="1.0" standalone="no"?>
<!DOCTYPE svg PUBLIC "-//W3C//DTD SVG 20010904//EN"
 "http://www.w3.org/TR/2001/REC-SVG-20010904/DTD/svg10.dtd">
<svg version="1.0" xmlns="http://www.w3.org/2000/svg"
 width="225.000000pt" height="225.000000pt" viewBox="0 0 225.000000 225.000000"
 preserveAspectRatio="xMidYMid meet">

<g transform="translate(0.000000,225.000000) scale(0.100000,-0.100000)"
fill="#000000" stroke="none">
<path d="M1020 2240 c-442 -45 -804 -329 -953 -747 -81 -224 -81 -512 0 -736
134 -378 458 -658 843 -731 107 -21 323 -21 430 0 441 83 801 443 884 884 21
107 21 323 0 430 -73 385 -353 709 -731 843 -135 49 -329 72 -473 57z m574
-556 c14 -13 16 -52 16 -275 0 -316 8 -298 -132 -300 -107 -2 -154 -10 -150
-27 1 -7 -1 -12 -5 -12 -5 0 -9 -48 -11 -108 -2 -59 -5 -114 -8 -123 -7 -24
-34 -29 -181 -29 -130 0 -132 0 -152 -26 -17 -22 -21 -41 -21 -108 0 -125 -2
-126 -160 -126 -122 0 -130 1 -144 22 -14 19 -16 74 -16 399 0 351 1 378 18
399 17 20 32 24 131 31 61 5 119 13 129 18 9 6 13 11 8 11 -5 0 -2 7 5 16 9
11 15 53 17 123 2 58 9 112 14 119 8 9 84 12 319 12 266 0 310 -2 323 -16z"/>
<path d="M1090 1393 c-132 -7 -140 -14 -140 -129 0 -99 8 -119 52 -133 52 -16
213 -7 254 15 41 22 47 40 45 119 -3 112 -44 137 -211 128z"/>
</g>
</svg>
