<?xml version="1.0" encoding="UTF-8"?>
<svg version="1.1" xmlns="http://www.w3.org/2000/svg" width="225" height="225">
<path d="M0 0 C74.25 0 148.5 0 225 0 C225 74.25 225 148.5 225 225 C150.75 225 76.5 225 0 225 C0 150.75 0 76.5 0 0 Z " fill="#D548EB" transform="translate(0,0)"/>
<path d="M0 0 C1.8171476 -0.01429802 1.8171476 -0.01429802 3.67100525 -0.02888489 C4.98557205 -0.02797348 6.30013885 -0.02706207 7.65454102 -0.02612305 C9.01213208 -0.03000885 10.36972192 -0.03434328 11.72731018 -0.03910828 C14.57459451 -0.04657575 17.42175485 -0.04627559 20.26904297 -0.04101562 C23.91887261 -0.03522192 27.56819463 -0.05214635 31.21794033 -0.0753603 C34.02235382 -0.09008905 36.82664485 -0.09097052 39.63109016 -0.08785057 C41.63139706 -0.08861421 43.63168495 -0.10249612 45.63194275 -0.11653137 C46.84652664 -0.11030258 48.06111053 -0.10407379 49.3125 -0.09765625 C50.9189463 -0.09860039 50.9189463 -0.09860039 52.55784607 -0.0995636 C55.22094727 0.2746582 55.22094727 0.2746582 57.06497192 1.48800659 C58.59374441 3.85084577 58.60789928 5.42510263 58.625 8.23339844 C58.63768417 9.24131943 58.65036835 10.24924042 58.66343689 11.28770447 C58.66050125 12.37523514 58.65756561 13.46276581 58.65454102 14.58325195 C58.65978287 15.70151871 58.66502472 16.81978546 58.67042542 17.97193909 C58.67685241 20.33821787 58.67549992 22.70452857 58.66699219 25.07080078 C58.6584883 28.69467004 58.68722662 32.31696063 58.71899414 35.94067383 C58.72060633 38.2381994 58.72002829 40.53572776 58.71704102 42.83325195 C58.72827499 43.91875839 58.73950897 45.00426483 58.75108337 46.12266541 C58.73701195 47.63927513 58.73701195 47.63927513 58.72265625 49.18652344 C58.72249008 50.0746019 58.72232391 50.96268036 58.72215271 51.87767029 C58.05839695 55.0520463 56.70673173 56.26096694 54.22094727 58.2746582 C51.90258789 58.75708008 51.90258789 58.75708008 49.37719727 58.7434082 C48.00241211 58.76467773 48.00241211 58.76467773 46.59985352 58.78637695 C43.72094727 58.7746582 43.72094727 58.7746582 40.84204102 58.76293945 C35.52522703 58.83284981 35.52522703 58.83284981 30.59985352 60.61450195 C28.33364171 64.98642898 28.66156598 69.48755584 28.65844727 74.3371582 C28.64951907 76.32814665 28.62794515 78.31912974 28.59204102 80.30981445 C28.59131592 81.19032471 28.59059082 82.07083496 28.58984375 82.97802734 C28.22094727 85.2746582 28.22094727 85.2746582 27.09008789 87.06176758 C24.35972775 88.83350598 22.17797041 88.64367997 18.94360352 88.64575195 C17.70803711 88.6631543 16.4724707 88.68055664 15.19946289 88.69848633 C12.59270274 88.70758724 9.9859261 88.71280729 7.37915039 88.71411133 C6.14229492 88.73280273 4.90543945 88.75149414 3.63110352 88.77075195 C2.49809814 88.77260498 1.36509277 88.77445801 0.19775391 88.77636719 C-3.43785824 89.3849364 -4.61352783 90.33142458 -6.77905273 93.2746582 C-7.35961452 95.21600675 -7.35961452 95.21600675 -7.28295898 97.2434082 C-7.30165039 97.97946289 -7.3203418 98.71551758 -7.33959961 99.47387695 C-7.34024414 100.23313477 -7.34088867 100.99239258 -7.34155273 101.7746582 C-7.3876581 109.53353274 -7.3876581 109.53353274 -8.94873047 112.48950195 C-11.45290951 114.93188653 -12.97531061 114.79049131 -16.43530273 114.8059082 C-17.5400293 114.81106445 -18.64475586 114.8162207 -19.78295898 114.8215332 C-20.93666992 114.80606445 -22.09038086 114.7905957 -23.27905273 114.7746582 C-24.43276367 114.79012695 -25.58647461 114.8055957 -26.77514648 114.8215332 C-27.87987305 114.81637695 -28.98459961 114.8112207 -30.12280273 114.8059082 C-31.64164063 114.79914063 -31.64164063 114.79914063 -33.19116211 114.79223633 C-35.77905273 114.2746582 -35.77905273 114.2746582 -37.4155426 112.70275879 C-39.24101185 109.45201438 -39.20679131 106.5379224 -39.18310547 102.9074707 C-39.19340034 101.80432526 -39.19340034 101.80432526 -39.2039032 100.67889404 C-39.22217786 98.25228473 -39.21833337 95.82632144 -39.21264648 93.3996582 C-39.21720762 91.71101674 -39.22251299 90.02237714 -39.22853088 88.33374023 C-39.23746299 84.79639133 -39.23503737 81.25926819 -39.22509766 77.72192383 C-39.21360105 73.18880362 -39.23382904 68.65646158 -39.26301479 64.1234436 C-39.28135908 60.63699393 -39.28108803 57.15073142 -39.27537727 53.66424561 C-39.27522388 51.99288846 -39.28128344 50.32151878 -39.29366875 48.65020752 C-39.30854613 46.31358971 -39.29792781 43.97841821 -39.28076172 41.6418457 C-39.29042969 40.95185486 -39.30009766 40.26186401 -39.31005859 39.55096436 C-39.25846969 36.19781784 -38.97371388 34.52540781 -36.89160156 31.84336853 C-34.3611734 29.96435454 -33.09289833 29.79999974 -29.97045898 29.84106445 C-29.05844727 29.83139648 -28.14643555 29.82172852 -27.20678711 29.81176758 C-25.30049812 29.82866039 -23.39423976 29.84947781 -21.48803711 29.87426758 C-17.13687765 29.82206595 -14.46585727 29.67916714 -10.66186523 27.4387207 C-7.87138095 22.74931765 -8.07424232 18.44992563 -8.09155273 13.0871582 C-8.07501383 11.09358372 -8.05066784 9.10005385 -8.01733398 7.10668945 C-8.01773682 6.22730713 -8.01813965 5.3479248 -8.01855469 4.44189453 C-7.47543328 -0.47277292 -4.09898527 0.01764734 0 0 Z " fill="#FDFBFD" transform="translate(102.779052734375,55.725341796875)"/>
<path d="M0 0 C1.8171476 -0.01429802 1.8171476 -0.01429802 3.67100525 -0.02888489 C4.98557205 -0.02797348 6.30013885 -0.02706207 7.65454102 -0.02612305 C9.01213208 -0.03000885 10.36972192 -0.03434328 11.72731018 -0.03910828 C14.57459451 -0.04657575 17.42175485 -0.04627559 20.26904297 -0.04101562 C23.91887261 -0.03522192 27.56819463 -0.05214635 31.21794033 -0.0753603 C34.02235382 -0.09008905 36.82664485 -0.09097052 39.63109016 -0.08785057 C41.63139706 -0.08861421 43.63168495 -0.10249612 45.63194275 -0.11653137 C46.84652664 -0.11030258 48.06111053 -0.10407379 49.3125 -0.09765625 C50.9189463 -0.09860039 50.9189463 -0.09860039 52.55784607 -0.0995636 C55.22094727 0.2746582 55.22094727 0.2746582 57.06695557 1.48701477 C58.59838889 3.85935135 58.59525351 5.4319476 58.59326172 8.24926758 C58.6026049 9.7659906 58.6026049 9.7659906 58.61213684 11.31335449 C58.60292709 12.40402222 58.59371735 13.49468994 58.58422852 14.6184082 C58.58497627 16.29936584 58.58497627 16.29936584 58.58573914 18.01428223 C58.58339752 20.38478365 58.57366391 22.75528751 58.55712891 25.12573242 C58.53354087 28.76023523 58.53656701 32.39400459 58.54321289 36.02856445 C58.53763614 38.32935009 58.53052628 40.63013263 58.52172852 42.9309082 C58.52263992 44.02157593 58.52355133 45.11224365 58.52449036 46.23596191 C58.51495834 47.2471106 58.50542633 48.25825928 58.49560547 49.30004883 C58.48869438 50.63549744 58.48869438 50.63549744 58.48164368 51.9979248 C58.22094727 54.2746582 58.22094727 54.2746582 56.22094727 57.2746582 C53.51538086 57.70703125 53.51538086 57.70703125 50.11938477 57.78637695 C48.30180664 57.83955078 48.30180664 57.83955078 46.44750977 57.89379883 C45.17649414 57.91635742 43.90547852 57.93891602 42.59594727 57.9621582 C41.31719727 57.99631836 40.03844727 58.03047852 38.72094727 58.06567383 C35.55436794 58.14838299 32.38807363 58.21745905 29.22094727 58.2746582 C28.89094727 59.2646582 28.56094727 60.2546582 28.22094727 61.2746582 C25.82107965 57.60427244 26.49625248 55.47493003 27.22094727 51.2746582 C27.35935574 48.73539512 27.44037193 46.19250681 27.47094727 43.6496582 C27.50961914 41.71219727 27.50961914 41.71219727 27.54907227 39.7355957 C27.20661893 36.12352842 26.80814683 34.75305031 24.22094727 32.2746582 C21.10691321 31.23664685 18.86654247 31.13523453 15.59985352 31.09887695 C14.49963867 31.0750293 13.39942383 31.05118164 12.26586914 31.02661133 C9.94834704 30.98371832 7.63058056 30.95242663 5.31274414 30.93286133 C4.21124023 30.90514648 3.10973633 30.87743164 1.97485352 30.84887695 C0.96753174 30.83429443 -0.03979004 30.81971191 -1.07763672 30.8046875 C-4.54416621 30.12453969 -5.72177316 29.1245185 -7.77905273 26.2746582 C-8.26489258 23.64916992 -8.26489258 23.64916992 -8.23999023 20.7043457 C-8.23612305 19.64344727 -8.23225586 18.58254883 -8.22827148 17.48950195 C-8.2037793 16.38735352 -8.17928711 15.28520508 -8.15405273 14.1496582 C-8.15276367 13.03977539 -8.15147461 11.92989258 -8.15014648 10.78637695 C-8.03228271 0.03458135 -8.03228271 0.03458135 0 0 Z " fill="#FEFEFE" transform="translate(102.779052734375,55.725341796875)"/>
<path d="M0 0 C1.04607422 -0.020625 2.09214844 -0.04125 3.16992188 -0.0625 C4.18248047 -0.06765625 5.19503906 -0.0728125 6.23828125 -0.078125 C7.62527222 -0.09214355 7.62527222 -0.09214355 9.0402832 -0.10644531 C12.24845632 0.32553225 14.08434143 1.35042036 16.6875 3.25 C19.18258858 6.99263288 19.01862659 9.15868692 19.0625 13.625 C19.09085938 14.93210937 19.11921875 16.23921875 19.1484375 17.5859375 C18.62517625 21.74542101 17.6269989 23.33235611 14.6875 26.25 C10.47237588 28.35756206 5.00632995 27.56804681 0.375 27.625 C-1.33719727 27.68107422 -1.33719727 27.68107422 -3.08398438 27.73828125 C-11.36962524 27.82544755 -11.36962524 27.82544755 -15.5703125 25.26171875 C-17.88831349 21.25459148 -18.01953309 18.23833922 -17.875 13.6875 C-17.88595703 12.93275391 -17.89691406 12.17800781 -17.90820312 11.40039062 C-17.86046508 7.78821179 -17.64215904 5.67538825 -15.40234375 2.78515625 C-10.61608969 -0.73072758 -5.76144471 0.02808748 0 0 Z " fill="#D549EB" transform="translate(112.3125,85.75)"/>
<path d="M0 0 C17.82 0 35.64 0 54 0 C54 0.33 54 0.66 54 1 C52.51113281 1.20302734 52.51113281 1.20302734 50.9921875 1.41015625 C37.68635798 3.43438304 25.36631715 7.76993027 16 18 C15.67 18.66 15.34 19.32 15 20 C14.34 20 13.68 20 13 20 C12.7525 20.515625 12.505 21.03125 12.25 21.5625 C11.27123595 23.47108989 10.2125191 25.33871752 9.125 27.1875 C5.11795651 34.1998261 2.43044218 41.03846 1 49 C0.67 49 0.34 49 0 49 C0 32.83 0 16.66 0 0 Z " fill="#FDFCFD" transform="translate(0,0)"/>
<path d="M0 0 C16.5 0 33 0 50 0 C50 15.51 50 31.02 50 47 C49.67 47 49.34 47 49 47 C48.67128906 45.76636719 48.67128906 45.76636719 48.3359375 44.5078125 C43.65985432 28.04647903 34.97992619 16.42516623 20.2109375 7.69140625 C15.1194591 5.00939877 10.24531809 2.8245087 4.5625 1.8125 C3.26505859 1.57466797 3.26505859 1.57466797 1.94140625 1.33203125 C1.30074219 1.22246094 0.66007813 1.11289062 0 1 C0 0.67 0 0.34 0 0 Z " fill="#FCFCFC" transform="translate(175,0)"/>
<path d="M0 0 C0.33 0 0.66 0 1 0 C1 15.51 1 31.02 1 47 C-14.18 47 -29.36 47 -45 47 C-45 46.67 -45 46.34 -45 46 C-44.38253906 45.81824219 -43.76507813 45.63648438 -43.12890625 45.44921875 C-37.37957263 43.74279553 -31.67694634 41.93345274 -26 40 C-26 39.34 -26 38.68 -26 38 C-24.3203125 36.81640625 -24.3203125 36.81640625 -22.125 35.5625 C-19.08869645 33.82669206 -18.00897332 33.01345998 -16 30 C-15.34 30 -14.68 30 -14 30 C-14 29.34 -14 28.68 -14 28 C-13.34 28 -12.68 28 -12 28 C-11.7525 27.49984375 -11.505 26.9996875 -11.25 26.484375 C-10.22357133 24.44434801 -9.17847447 22.41669696 -8.125 20.390625 C-7.41644556 19.01053016 -6.70811875 17.63031844 -6 16.25 C-5.64421875 15.57195312 -5.2884375 14.89390625 -4.921875 14.1953125 C-2.54216505 9.52468775 -1.10363459 5.12730236 0 0 Z " fill="#FEFDFE" transform="translate(224,178)"/>
<path d="M0 0 C1.9838461 2.97576915 2.74854199 5.2253136 3.75 8.625 C5.41692908 13.82783926 7.58835287 17.87930858 10.828125 22.2578125 C12 24 12 24 12 26 C12.66 26 13.32 26 14 26 C14.763125 26.99 15.52625 27.98 16.3125 29 C22.90230377 36.98567353 34.70991538 43.44089627 45 45 C45 45.33 45 45.66 45 46 C30.15 46 15.3 46 0 46 C0 30.82 0 15.64 0 0 Z " fill="#FCFCFC" transform="translate(0,179)"/>
<path d="M0 0 C0.93423645 3.01031744 1.04449911 3.86650268 0 7 C0.66 7.33 1.32 7.66 2 8 C1.01 8.99 0.02 9.98 -1 11 C-1.33 10.67 -1.66 10.34 -2 10 C-2.33 11.98 -2.66 13.96 -3 16 C-2.34 15.34 -1.68 14.68 -1 14 C-1 13.34 -1 12.68 -1 12 C-0.34 12 0.32 12 1 12 C0.33333333 15.33333333 -0.33333333 18.66666667 -1 22 C-0.34 22.33 0.32 22.66 1 23 C0.67 23.66 0.34 24.32 0 25 C-0.66 25 -1.32 25 -2 25 C-2 25.74685059 -2 26.49370117 -2 27.26318359 C-2 35.50878906 -2 43.75439453 -2 52 C-1.67 51.34 -1.34 50.68 -1 50 C-0.01 50.33 0.98 50.66 2 51 C1.34 51 0.68 51 0 51 C-0.20496094 51.63808594 -0.40992188 52.27617188 -0.62109375 52.93359375 C-0.89050781 53.75988281 -1.15992188 54.58617187 -1.4375 55.4375 C-1.70433594 56.26121094 -1.97117187 57.08492187 -2.24609375 57.93359375 C-3 60 -3 60 -4 61 C-4.12495027 63.463493 -4.18602203 65.90036767 -4.20532227 68.36547852 C-4.21522186 69.13615662 -4.22512146 69.90683472 -4.23532104 70.7008667 C-4.26702701 73.26018147 -4.2917292 75.81951483 -4.31640625 78.37890625 C-4.33696794 80.14868159 -4.35796419 81.91845194 -4.37937927 83.68821716 C-4.43468109 88.3554582 -4.48405446 93.02274414 -4.53222656 97.69006348 C-4.58238253 102.44901546 -4.63809934 107.20790191 -4.69335938 111.96679688 C-4.80104008 121.31114198 -4.90246288 130.6555439 -5 140 C-5.33 140 -5.66 140 -6 140 C-6.04680246 124.24862292 -6.08202916 108.49726474 -6.10362434 92.7458353 C-6.11391963 85.43152601 -6.12794641 78.11726001 -6.15087891 70.80297852 C-6.17086645 64.42492436 -6.18372913 58.04690159 -6.18817699 51.66881698 C-6.19077532 48.29432949 -6.19684576 44.91993173 -6.21146011 41.5454731 C-6.22601438 37.77057741 -6.22797626 33.99586658 -6.22705078 30.22094727 C-6.23424133 29.11251465 -6.24143188 28.00408203 -6.24884033 26.86206055 C-6.22736675 18.74775924 -5.39710471 11.33391989 -1.875 3.9375 C-1.34519531 2.80634766 -1.34519531 2.80634766 -0.8046875 1.65234375 C-0.53914062 1.10707031 -0.27359375 0.56179687 0 0 Z " fill="#C843DD" transform="translate(6,31)"/>
<path d="M0 0 C14.52 0 29.04 0 44 0 C44 0.33 44 0.66 44 1 C41.69 1 39.38 1 37 1 C37 1.66 37 2.32 37 3 C37.66 3.33 38.32 3.66 39 4 C38.67 4.66 38.34 5.32 38 6 C24.14 6 10.28 6 -4 6 C-3.34 5.01 -2.68 4.02 -2 3 C-2 3.66 -2 4.32 -2 5 C1.465 4.505 1.465 4.505 5 4 C5.33 3.01 5.66 2.02 6 1 C4.02 1 2.04 1 0 1 C0 0.67 0 0.34 0 0 Z " fill="#DA48F2" transform="translate(94,0)"/>
<path d="M0 0 C2.31 1.98 4.62 3.96 7 6 C5.02 6.99 5.02 6.99 3 8 C1.76240177 11.71279469 1.64391103 15.31306346 1.4375 19.1875 C1.39431641 19.93708984 1.35113281 20.68667969 1.30664062 21.45898438 C1.20077315 23.30578375 1.0999024 25.15286834 1 27 C0.67 27 0.34 27 0 27 C0 23.37 0 19.74 0 16 C-0.66 16 -1.32 16 -2 16 C-1.67 13.36 -1.34 10.72 -1 8 C-1.66 8 -2.32 8 -3 8 C-3 8.66 -3 9.32 -3 10 C-3.66 10 -4.32 10 -5 10 C-5.3125 7.8125 -5.3125 7.8125 -5 5 C-2.5 2.1875 -2.5 2.1875 0 0 Z " fill="#F8EEF9" transform="translate(94,80)"/>
<path d="M0 0 C0.99 0.33 1.98 0.66 3 1 C2.01 1.495 2.01 1.495 1 2 C1.66 2.66 2.32 3.32 3 4 C3.33 4 3.66 4 4 4 C4.21298379 7.85431958 3.62285875 10.42252815 2.0625 13.9375 C0.49772227 17.63656819 -0.57615853 20.97350607 -1 25 C-1.33 25 -1.66 25 -2 25 C-2.05786668 21.20839703 -2.09355054 17.41690689 -2.125 13.625 C-2.14175781 12.54476562 -2.15851563 11.46453125 -2.17578125 10.3515625 C-2.18222656 9.3203125 -2.18867187 8.2890625 -2.1953125 7.2265625 C-2.20578613 6.27346191 -2.21625977 5.32036133 -2.22705078 4.33837891 C-2 2 -2 2 0 0 Z " fill="#F8F8F7" transform="translate(2,24)"/>
<path d="M0 0 C0.33 0.66 0.66 1.32 1 2 C0.566875 2.37125 0.13375 2.7425 -0.3125 3.125 C-2.5599052 5.4549879 -2.5599052 5.4549879 -5 11 C-10.94 11 -16.88 11 -23 11 C-23 10.67 -23 10.34 -23 10 C-22.38253906 9.81824219 -21.76507813 9.63648438 -21.12890625 9.44921875 C-15.37957263 7.74279553 -9.67694634 5.93345274 -4 4 C-4 3.34 -4 2.68 -4 2 C-2.68 1.34 -1.36 0.68 0 0 Z " fill="#F6F3F5" transform="translate(202,214)"/>
<path d="M0 0 C2 3 2 3 3 6 C3.38518799 5.51104248 3.77037598 5.02208496 4.16723633 4.51831055 C6.64165266 2.46843774 8.14156892 2.65428015 11.32421875 2.70703125 C12.35224609 2.71669922 13.38027344 2.72636719 14.43945312 2.73632812 C16.04723633 2.7740332 16.04723633 2.7740332 17.6875 2.8125 C18.77095703 2.82603516 19.85441406 2.83957031 20.97070312 2.85351562 C23.64763405 2.88889357 26.32356838 2.93825811 29 3 C29 3.33 29 3.66 29 4 C28.38479492 4.0093457 27.76958984 4.01869141 27.13574219 4.02832031 C24.33968914 4.08211085 21.5452938 4.16573819 18.75 4.25 C17.78191406 4.26417969 16.81382812 4.27835937 15.81640625 4.29296875 C11.92143168 4.42727822 8.87045522 4.55440983 5.375 6.34375 C3.08697185 10.76380438 3.31845684 15.34600072 3.25 20.25 C3.22035156 21.28125 3.19070312 22.3125 3.16015625 23.375 C3.08955222 25.91674495 3.03680991 28.45757783 3 31 C2.34 31.33 1.68 31.66 1 32 C1.00523682 31.35973877 1.01047363 30.71947754 1.01586914 30.05981445 C1.03672429 27.14405305 1.04968729 24.22830738 1.0625 21.3125 C1.07087891 20.30509766 1.07925781 19.29769531 1.08789062 18.25976562 C1.09111328 17.28330078 1.09433594 16.30683594 1.09765625 15.30078125 C1.10551147 13.95753784 1.10551147 13.95753784 1.11352539 12.5871582 C0.9971321 9.93464263 0.71002064 7.55971545 0 5 C-0.66 4.67 -1.32 4.34 -2 4 C-2.33 3.34 -2.66 2.68 -3 2 C-2.01 1.34 -1.02 0.68 0 0 Z " fill="#F6D5F7" transform="translate(128,110)"/>
<path d="M0 0 C0.33 1.32 0.66 2.64 1 4 C-3.62 4 -8.24 4 -13 4 C-13.33 4.66 -13.66 5.32 -14 6 C-14.66 4.35 -15.32 2.7 -16 1 C-18.86724686 1.57344937 -19.8614515 1.8614515 -22 4 C-22.66 3.67 -23.32 3.34 -24 3 C-24 2.34 -24 1.68 -24 1 C-24.66 0.67 -25.32 0.34 -26 0 C-21 0 -16 0 -11 0 C-10.443125 -0.185625 -9.88625 -0.37125 -9.3125 -0.5625 C-6.07189098 -1.17558819 -3.22422523 -0.55803898 0 0 Z " fill="#DC49F4" transform="translate(100,1)"/>
<path d="M0 0 C8.91 0 17.82 0 27 0 C27 0.33 27 0.66 27 1 C25.92621094 1.19335938 24.85242188 1.38671875 23.74609375 1.5859375 C22.30986267 1.84877718 20.8736666 2.11180824 19.4375 2.375 C18.38079102 2.56449219 18.38079102 2.56449219 17.30273438 2.7578125 C12.77285303 3.59281367 8.40969867 4.66723956 4 6 C4 3 4 3 5 1 C3.35 1.33 1.7 1.66 0 2 C0 1.34 0 0.68 0 0 Z " fill="#F1F0F2" transform="translate(27,0)"/>
<path d="M0 0 C-1.32 0.33 -2.64 0.66 -4 1 C-3.01 1.66 -2.02 2.32 -1 3 C-2.98 3.99 -2.98 3.99 -5 5 C-5 3.68 -5 2.36 -5 1 C-5.515625 1.495 -6.03125 1.99 -6.5625 2.5 C-9.82929507 4.51033543 -12.23420736 4.28421077 -16 4 C-16.33 3.67 -16.66 3.34 -17 3 C-17.90363281 3.30035156 -18.80726562 3.60070312 -19.73828125 3.91015625 C-20.91777344 4.29042969 -22.09726562 4.67070313 -23.3125 5.0625 C-24.48425781 5.44535156 -25.65601563 5.82820312 -26.86328125 6.22265625 C-30 7 -30 7 -33 6 C-22.39222178 1.0672634 -11.64121569 -0.47300651 0 0 Z " fill="#BA4ECB" transform="translate(64,0)"/>
<path d="M0 0 C1.25361328 0.00644531 2.50722656 0.01289063 3.79882812 0.01953125 C5.76432617 0.04466797 5.76432617 0.04466797 7.76953125 0.0703125 C9.10481112 0.08034611 10.44009814 0.0894713 11.77539062 0.09765625 C15.0444514 0.12125958 18.31315153 0.15418656 21.58203125 0.1953125 C21.58203125 0.5253125 21.58203125 0.8553125 21.58203125 1.1953125 C8.21703125 1.6903125 8.21703125 1.6903125 -5.41796875 2.1953125 C-5.08796875 2.5253125 -4.75796875 2.8553125 -4.41796875 3.1953125 C-3.73528737 4.52051753 -3.06726465 5.85343432 -2.41796875 7.1953125 C-4.89296875 6.2053125 -4.89296875 6.2053125 -7.41796875 5.1953125 C-7.41796875 5.8553125 -7.41796875 6.5153125 -7.41796875 7.1953125 C-8.73796875 7.1953125 -10.05796875 7.1953125 -11.41796875 7.1953125 C-9.21508149 0.75610358 -6.5817853 -0.05956367 0 0 Z " fill="#CE44E4" transform="translate(106.41796875,143.8046875)"/>
<path d="M0 0 C0.66 0 1.32 0 2 0 C2.33 0.66 2.66 1.32 3 2 C3.99 1.34 4.98 0.68 6 0 C6.33 1.32 6.66 2.64 7 4 C7.66 4 8.32 4 9 4 C9 6.97 9 9.94 9 13 C8.34 13 7.68 13 7 13 C5.2734375 10.6640625 5.2734375 10.6640625 3.375 7.625 C2.74335937 6.62726563 2.11171875 5.62953125 1.4609375 4.6015625 C0 2 0 2 0 0 Z " fill="#C952DB" transform="translate(5,192)"/>
<path d="M0 0 C5.57142857 5.14285714 5.57142857 5.14285714 6 9 C5.34 9 4.68 9 4 9 C3.67 9.66 3.34 10.32 3 11 C3 10.34 3 9.68 3 9 C2.01 9 1.02 9 0 9 C0 8.34 0 7.68 0 7 C-1.65 7.66 -3.3 8.32 -5 9 C-4.34 6.36 -3.68 3.72 -3 1 C-2.34 1.33 -1.68 1.66 -1 2 C-0.67 1.34 -0.34 0.68 0 0 Z " fill="#D049E4" transform="translate(213,23)"/>
<path d="M0 0 C6.6 0 13.2 0 20 0 C20 0.33 20 0.66 20 1 C17.69 1 15.38 1 13 1 C13 1.66 13 2.32 13 3 C13.66 3.33 14.32 3.66 15 4 C14.67 4.66 14.34 5.32 14 6 C13.34 6 12.68 6 12 6 C12 5.34 12 4.68 12 4 C9.69 4 7.38 4 5 4 C4.67 3.34 4.34 2.68 4 2 C2.68 1.34 1.36 0.68 0 0 Z " fill="#BC58CE" transform="translate(118,0)"/>
<path d="M0 0 C9.24 0 18.48 0 28 0 C26 1 24 2 22 3 C22 2.34 22 1.68 22 1 C18.37 1.33 14.74 1.66 11 2 C11 2.99 11 3.98 11 5 C8.69 4.67 6.38 4.34 4 4 C4 3.34 4 2.68 4 2 C4.99 1.67 5.98 1.34 7 1 C4.69 1 2.38 1 0 1 C0 0.67 0 0.34 0 0 Z " fill="#B361C2" transform="translate(65,0)"/>
<path d="M0 0 C1.01973129 3.05919388 1.11533602 5.12418025 1.09765625 8.32421875 C1.09282227 9.86625977 1.09282227 9.86625977 1.08789062 11.43945312 C1.07951172 12.51130859 1.07113281 13.58316406 1.0625 14.6875 C1.05798828 15.77095703 1.05347656 16.85441406 1.04882812 17.97070312 C1.03703743 20.64719085 1.02058063 23.32356777 1 26 C-0.98 26.99 -0.98 26.99 -3 28 C-3 27.01 -3 26.02 -3 25 C-2.01 25 -1.02 25 0 25 C-0.33 24.34 -0.66 23.68 -1 23 C-1.38946841 19.51203166 -1.51389103 16.00458641 -1.6875 12.5 C-1.74744141 11.52417969 -1.80738281 10.54835938 -1.86914062 9.54296875 C-1.91619141 8.61097656 -1.96324219 7.67898437 -2.01171875 6.71875 C-2.08072388 5.43387695 -2.08072388 5.43387695 -2.15112305 4.12304688 C-2 2 -2 2 0 0 Z " fill="#D04EE5" transform="translate(92,57)"/>
<path d="M0 0 C0 3 0 3 -2 5.1875 C-2.66 5.785625 -3.32 6.38375 -4 7 C-2.68 7 -1.36 7 0 7 C0.33 8.98 0.66 10.96 1 13 C-0.98 12.34 -2.96 11.68 -5 11 C-5 10.01 -5 9.02 -5 8 C-5.99 8.33 -6.98 8.66 -8 9 C-6.4169423 4.7257442 -3.49431596 2.73468206 0 0 Z " fill="#D148E8" transform="translate(23,11)"/>
<path d="M0 0 C6.27 0 12.54 0 19 0 C19 0.66 19 1.32 19 2 C16.59454362 3.20272819 15.05003047 3.10071472 12.375 3.0625 C11.14910156 3.04896484 11.14910156 3.04896484 9.8984375 3.03515625 C8.95871094 3.01775391 8.95871094 3.01775391 8 3 C8 2.34 8 1.68 8 1 C5.36 1 2.72 1 0 1 C0 0.67 0 0.34 0 0 Z " fill="#CD45E3" transform="translate(136,114)"/>
<path d="M0 0 C6.27 0 12.54 0 19 0 C19 0.33 19 0.66 19 1 C11.08 1.495 11.08 1.495 3 2 C3 3.65 3 5.3 3 7 C2.34 7 1.68 7 1 7 C1 6.34 1 5.68 1 5 C0.01 4.67 -0.98 4.34 -2 4 C-1.34 2.68 -0.68 1.36 0 0 Z " fill="#DC4DF3" transform="translate(101,86)"/>
<path d="M0 0 C2.31 0 4.62 0 7 0 C7.165 0.639375 7.33 1.27875 7.5 1.9375 C8.781786 4.16119241 8.781786 4.16119241 10.9140625 4.48828125 C12.93575155 4.7275978 14.96841939 4.86893028 17 5 C17 5.33 17 5.66 17 6 C10.07 6 3.14 6 -4 6 C-3.34 5.01 -2.68 4.02 -2 3 C-2 3.66 -2 4.32 -2 5 C1.465 4.505 1.465 4.505 5 4 C5.33 3.01 5.66 2.02 6 1 C4.02 1 2.04 1 0 1 C0 0.67 0 0.34 0 0 Z " fill="#C24FD6" transform="translate(94,0)"/>
<path d="M0 0 C0.93423645 3.01031744 1.04449911 3.86650268 0 7 C0.66 7.33 1.32 7.66 2 8 C1.01 8.99 0.02 9.98 -1 11 C-1.33 10.67 -1.66 10.34 -2 10 C-2.66 12.97 -3.32 15.94 -4 19 C-4.66 18.67 -5.32 18.34 -6 18 C-4.83805848 11.53287812 -2.8751252 5.90377651 0 0 Z " fill="#BD4ECE" transform="translate(6,31)"/>
<path d="M0 0 C2.64 0 5.28 0 8 0 C8 0.66 8 1.32 8 2 C10.97 2 13.94 2 17 2 C17 2.66 17 3.32 17 4 C10.93107371 4.25287193 5.83799592 3.69832609 0 2 C0 1.34 0 0.68 0 0 Z " fill="#DB45F3" transform="translate(136,115)"/>
<path d="M0 0 C0.66 0.33 1.32 0.66 2 1 C1.67 1.66 1.34 2.32 1 3 C1.66 3.33 2.32 3.66 3 4 C2.25 5.9375 2.25 5.9375 1 8 C-1.125 8.75 -1.125 8.75 -3 9 C-3.75 6.75 -3.75 6.75 -4 4 C-2.0625 1.6875 -2.0625 1.6875 0 0 Z M-1 4 C0 6 0 6 0 6 Z " fill="#CF4BE3" transform="translate(99,87)"/>
<path d="M0 0 C6.27 0 12.54 0 19 0 C18.67 0.66 18.34 1.32 18 2 C11.56776019 3.40339778 6.3380187 2.57151693 0 1 C0 0.67 0 0.34 0 0 Z " fill="#F3F7F2" transform="translate(175,0)"/>
<path d="M0 0 C1.32 1.32 2.64 2.64 4 4 C3.734375 7.234375 3.734375 7.234375 2.75 10.75 C2.43546875 11.92046875 2.1209375 13.0909375 1.796875 14.296875 C1.53390625 15.18890625 1.2709375 16.0809375 1 17 C0.67 17 0.34 17 0 17 C0 11.39 0 5.78 0 0 Z " fill="#EFF0EE" transform="translate(0,32)"/>
<path d="M0 0 C0.763125 0.20625 1.52625 0.4125 2.3125 0.625 C2.6425 1.615 2.9725 2.605 3.3125 3.625 C2.9825 4.285 2.6525 4.945 2.3125 5.625 C-0.00906597 6.03229228 -2.3443787 6.36938677 -4.6875 6.625 C-4.0275 5.965 -3.3675 5.305 -2.6875 4.625 C-1.6975 4.625 -0.7075 4.625 0.3125 4.625 C0.3125 3.965 0.3125 3.305 0.3125 2.625 C-1.6675 2.955 -3.6475 3.285 -5.6875 3.625 C-5.6875 2.965 -5.6875 2.305 -5.6875 1.625 C-2.6875 -0.375 -2.6875 -0.375 0 0 Z " fill="#CE4DE1" transform="translate(69.6875,80.375)"/>
<path d="M0 0 C4.95 0 9.9 0 15 0 C12 2 12 2 9 2 C9.66 2.66 10.32 3.32 11 4 C9.02 4 7.04 4 5 4 C4.67 3.34 4.34 2.68 4 2 C2.68 1.34 1.36 0.68 0 0 Z " fill="#B65EC6" transform="translate(102,0)"/>
<path d="M0 0 C0.886875 0.103125 1.77375 0.20625 2.6875 0.3125 C2.6875 0.9725 2.6875 1.6325 2.6875 2.3125 C1.23368103 3.00949552 -0.22572953 3.69483866 -1.6875 4.375 C-2.49960938 4.75785156 -3.31171875 5.14070312 -4.1484375 5.53515625 C-4.86257812 5.79167969 -5.57671875 6.04820312 -6.3125 6.3125 C-6.9725 5.9825 -7.6325 5.6525 -8.3125 5.3125 C-4.12788462 0.38942308 -4.12788462 0.38942308 0 0 Z " fill="#BE49D1" transform="translate(195.3125,215.6875)"/>
<path d="M0 0 C5.57142857 5.14285714 5.57142857 5.14285714 6 9 C2.34683329 7.75023244 1.21934164 7.32901247 -1 4 C-0.625 1.8125 -0.625 1.8125 0 0 Z " fill="#C458D5" transform="translate(213,23)"/>
<path d="M0 0 C3.63 0 7.26 0 11 0 C11 0.99 11 1.98 11 3 C12.98 3 14.96 3 17 3 C17 3.33 17 3.66 17 4 C10.83381819 4.40214229 5.82254243 2.96818336 0 1 C0 0.67 0 0.34 0 0 Z " fill="#BC5CCA" transform="translate(35,221)"/>
<path d="M0 0 C0.66 0 1.32 0 2 0 C2 0.66 2 1.32 2 2 C2.94875 1.95875 3.8975 1.9175 4.875 1.875 C8 2 8 2 10 4 C9.071875 3.979375 8.14375 3.95875 7.1875 3.9375 C3.97713989 3.84230396 3.97713989 3.84230396 1 5 C1 4.34 1 3.68 1 3 C0.34 3 -0.32 3 -1 3 C-1 3.66 -1 4.32 -1 5 C-1.66 4.67 -2.32 4.34 -3 4 C-1.625 2 -1.625 2 0 0 Z " fill="#CC4EE0" transform="translate(134,115)"/>
<path d="M0 0 C0.33 0 0.66 0 1 0 C1.33 5.61 1.66 11.22 2 17 C-1.2830098 18.6415049 -4.42545033 17.51888624 -8 17 C-8 16.67 -8 16.34 -8 16 C-5.36 16 -2.72 16 0 16 C0 10.72 0 5.44 0 0 Z " fill="#CD49E2" transform="translate(88,64)"/>
<path d="M0 0 C0.33 0.66 0.66 1.32 1 2 C1.66 2 2.32 2 3 2 C2.52060632 6.71403788 2.03165952 10.66579301 0 15 C-0.33 15 -0.66 15 -1 15 C-1.04254356 13.00045254 -1.04080783 10.99958364 -1 9 C-0.67 8.67 -0.34 8.34 0 8 C0.07148199 6.64756083 0.08399454 5.29165633 0.0625 3.9375 C0.041875 2.638125 0.02125 1.33875 0 0 Z " fill="#B94FC9" transform="translate(221,176)"/>
<path d="M0 0 C2.31 0.66 4.62 1.32 7 2 C6.01 2.495 6.01 2.495 5 3 C3.86649466 5.01669827 3.86649466 5.01669827 3 7 C1.5 5.75 1.5 5.75 0 4 C0 2.68 0 1.36 0 0 Z " fill="#F4F1F4" transform="translate(8,17)"/>
<path d="M0 0 C0.99 0 1.98 0 3 0 C3 1.32 3 2.64 3 4 C-2.94 4.495 -2.94 4.495 -9 5 C-8.67 4.34 -8.34 3.68 -8 3 C-6.02 3 -4.04 3 -2 3 C-1.67 2.34 -1.34 1.68 -1 1 C-0.67 0.67 -0.34 0.34 0 0 Z " fill="#DE48F5" transform="translate(56,1)"/>
<path d="M0 0 C0.66 0.33 1.32 0.66 2 1 C0.90931332 4.77545388 0.0916909 7.47043472 -3 10 C-3.66 9.67 -4.32 9.34 -5 9 C-3.35 6.03 -1.7 3.06 0 0 Z " fill="#F5F2F1" transform="translate(220,191)"/>
<path d="M0 0 C0.33 0.66 0.66 1.32 1 2 C1.66 2 2.32 2 3 2 C3 3.65 3 5.3 3 7 C2.01 7.33 1.02 7.66 0 8 C-0.33 8.99 -0.66 9.98 -1 11 C-1.33 10.01 -1.66 9.02 -2 8 C-1.34 7.34 -0.68 6.68 0 6 C0.16681109 2.91652174 0.16681109 2.91652174 0 0 Z " fill="#F5FDF1" transform="translate(132,106)"/>
<path d="M0 0 C2.35953094 2.35953094 2.49141413 3.77895617 3 7 C1.68 7.33 0.36 7.66 -1 8 C-1.125 2.25 -1.125 2.25 0 0 Z " fill="#C154D7" transform="translate(219,32)"/>
<path d="M0 0 C1.32 0.33 2.64 0.66 4 1 C3.67 2.65 3.34 4.3 3 6 C2.01 6.33 1.02 6.66 0 7 C0 6.01 0 5.02 0 4 C-0.66 3.67 -1.32 3.34 -2 3 C-1.34 2.01 -0.68 1.02 0 0 Z " fill="#C548D8" transform="translate(13,20)"/>
<path d="M0 0 C1.29640378 0.59393382 2.58698839 1.20057989 3.875 1.8125 C4.59429687 2.14894531 5.31359375 2.48539063 6.0546875 2.83203125 C8 4 8 4 10 7 C9.21625 6.814375 8.4325 6.62875 7.625 6.4375 C5.02910225 5.74037734 5.02910225 5.74037734 3 7 C2.87625 6.360625 2.7525 5.72125 2.625 5.0625 C2.315625 4.0415625 2.315625 4.0415625 2 3 C1.34 2.67 0.68 2.34 0 2 C0 1.34 0 0.68 0 0 Z " fill="#B951CB" transform="translate(196,8)"/>
<path d="M0 0 C0.33 0 0.66 0 1 0 C1.08159574 4.16138263 0.98248524 7.9472484 0 12 C-0.99 12 -1.98 12 -3 12 C-2.01 8.04 -1.02 4.08 0 0 Z " fill="#F7F0F7" transform="translate(224,178)"/>
<path d="M0 0 C0 3 0 3 -1.53125 4.60546875 C-2.1809375 5.12753906 -2.830625 5.64960938 -3.5 6.1875 C-4.1496875 6.71730469 -4.799375 7.24710938 -5.46875 7.79296875 C-5.9740625 8.19128906 -6.479375 8.58960938 -7 9 C-7 6 -7 6 -5.46875 4.39453125 C-4.49421875 3.61142578 -4.49421875 3.61142578 -3.5 2.8125 C-2.8503125 2.28269531 -2.200625 1.75289062 -1.53125 1.20703125 C-1.0259375 0.80871094 -0.520625 0.41039062 0 0 Z " fill="#B053BF" transform="translate(23,11)"/>
<path d="M0 0 C0.66 0.66 1.32 1.32 2 2 C1.67 2.99 1.34 3.98 1 5 C-0.65 5.33 -2.3 5.66 -4 6 C-4 5.34 -4 4.68 -4 4 C-3.34 4 -2.68 4 -2 4 C-1.34 2.68 -0.68 1.36 0 0 Z " fill="#F2F4F5" transform="translate(214,202)"/>
<path d="M0 0 C0.66 0 1.32 0 2 0 C2.33 1.98 2.66 3.96 3 6 C1.02 6 -0.96 6 -3 6 C-3.33 5.34 -3.66 4.68 -4 4 C-2.35 3.67 -0.7 3.34 1 3 C0.67 2.01 0.34 1.02 0 0 Z " fill="#CC49E1" transform="translate(100,105)"/>
<path d="M0 0 C0.66 0 1.32 0 2 0 C2 0.66 2 1.32 2 2 C2.66 2.33 3.32 2.66 4 3 C3.01 3.495 3.01 3.495 2 4 C2 5.98 2 7.96 2 10 C-0.4294516 6.3558226 -0.16179575 4.28758728 0 0 Z " fill="#B85EC8" transform="translate(0,172)"/>
<path d="M0 0 C0.66 1.32 1.32 2.64 2 4 C0.35 4.33 -1.3 4.66 -3 5 C-2.625 3.0625 -2.625 3.0625 -2 1 C-1.34 0.67 -0.68 0.34 0 0 Z " fill="#DB44F3" transform="translate(99,104)"/>
</svg>
